<svg width="393" height="852" viewBox="0 0 393 852" fill="none" xmlns="http://www.w3.org/2000/svg">
<g clip-path="url(#clip0_8_23)">
<rect width="393" height="852" fill="white"/>
<rect width="393" height="852" fill="white"/>
<rect x="47.5" y="292.5" width="299" height="49" rx="24.5" fill="white" stroke="url(#paint0_linear_8_23)"/>
<rect x="47.5" y="387.5" width="299" height="49" rx="24.5" fill="white" stroke="url(#paint1_linear_8_23)"/>
<path d="M315.75 410.833C316.251 411.441 316.841 411.969 317.5 412.4M317.5 412.4C318.21 412.863 319.002 413.184 319.833 413.347C320.604 413.496 321.396 413.496 322.167 413.347C322.998 413.184 323.79 412.863 324.5 412.4M317.5 412.4L316.625 413.458M326.25 410.833C325.749 411.441 325.159 411.969 324.5 412.4M324.5 412.4L325.375 413.458M319.833 413.347L319.542 414.625M322.167 413.347L322.458 414.625" stroke="black" stroke-width="2" stroke-linecap="round" stroke-linejoin="round"/>
<path d="M50.7614 284V269.455H59.5398V271.017H52.5227V275.932H59.0852V277.494H52.5227V282.438H59.6534V284H50.7614ZM62.4872 284V273.091H64.1065V274.795H64.2486C64.4759 274.213 64.8428 273.761 65.3494 273.439C65.8561 273.112 66.4645 272.949 67.1747 272.949C67.8944 272.949 68.4934 273.112 68.9716 273.439C69.4545 273.761 69.831 274.213 70.1009 274.795H70.2145C70.4938 274.232 70.9129 273.785 71.4716 273.453C72.0303 273.117 72.7003 272.949 73.4815 272.949C74.4569 272.949 75.2547 273.254 75.875 273.865C76.4953 274.471 76.8054 275.416 76.8054 276.699V284H75.1293V276.699C75.1293 275.894 74.9091 275.319 74.4688 274.973C74.0284 274.627 73.5099 274.455 72.9134 274.455C72.1463 274.455 71.5521 274.687 71.1307 275.151C70.7093 275.61 70.4986 276.192 70.4986 276.898V284H68.794V276.528C68.794 275.908 68.5928 275.409 68.1903 275.03C67.7879 274.646 67.2694 274.455 66.6349 274.455C66.1993 274.455 65.7921 274.571 65.4134 274.803C65.0393 275.035 64.7363 275.357 64.5043 275.768C64.277 276.176 64.1634 276.647 64.1634 277.182V284H62.4872ZM83.0803 284.256C82.389 284.256 81.7616 284.125 81.1982 283.865C80.6347 283.6 80.1873 283.219 79.8558 282.722C79.5244 282.22 79.3587 281.614 79.3587 280.903C79.3587 280.278 79.4818 279.772 79.728 279.384C79.9742 278.991 80.3033 278.683 80.7152 278.46C81.1271 278.238 81.5817 278.072 82.0788 277.963C82.5807 277.849 83.085 277.759 83.5916 277.693C84.2545 277.608 84.7919 277.544 85.2038 277.501C85.6205 277.454 85.9235 277.376 86.1129 277.267C86.3071 277.158 86.4041 276.969 86.4041 276.699V276.642C86.4041 275.941 86.2124 275.397 85.8288 275.009C85.45 274.62 84.8748 274.426 84.103 274.426C83.3028 274.426 82.6754 274.601 82.2209 274.952C81.7663 275.302 81.4467 275.676 81.2621 276.074L79.6712 275.506C79.9553 274.843 80.334 274.327 80.8075 273.957C81.2857 273.583 81.8066 273.323 82.37 273.176C82.9382 273.025 83.4969 272.949 84.0462 272.949C84.3965 272.949 84.799 272.991 85.2536 273.077C85.7128 273.157 86.1555 273.325 86.5817 273.581C87.0125 273.837 87.37 274.223 87.6541 274.739C87.9382 275.255 88.0803 275.946 88.0803 276.812V284H86.4041V282.523H86.3189C86.2053 282.759 86.0159 283.013 85.7507 283.283C85.4856 283.553 85.1328 283.782 84.6925 283.972C84.2521 284.161 83.7147 284.256 83.0803 284.256ZM83.3359 282.75C83.9988 282.75 84.5575 282.62 85.0121 282.359C85.4714 282.099 85.817 281.763 86.049 281.351C86.2857 280.939 86.4041 280.506 86.4041 280.051V278.517C86.3331 278.602 86.1768 278.68 85.9354 278.751C85.6986 278.818 85.424 278.877 85.1115 278.929C84.8037 278.976 84.5031 279.019 84.2095 279.057C83.9207 279.09 83.6863 279.118 83.5064 279.142C83.0708 279.199 82.6636 279.291 82.2848 279.419C81.9107 279.542 81.6077 279.729 81.3757 279.98C81.1484 280.226 81.0348 280.562 81.0348 280.989C81.0348 281.571 81.2502 282.011 81.6811 282.31C82.1167 282.603 82.6683 282.75 83.3359 282.75ZM91.1396 284V273.091H92.8157V284H91.1396ZM91.9918 271.273C91.6651 271.273 91.3834 271.161 91.1467 270.939C90.9147 270.716 90.7987 270.449 90.7987 270.136C90.7987 269.824 90.9147 269.556 91.1467 269.334C91.3834 269.111 91.6651 269 91.9918 269C92.3185 269 92.5979 269.111 92.8299 269.334C93.0666 269.556 93.185 269.824 93.185 270.136C93.185 270.449 93.0666 270.716 92.8299 270.939C92.5979 271.161 92.3185 271.273 91.9918 271.273ZM97.5618 269.455V284H95.8857V269.455H97.5618Z" fill="black"/>
<path d="M196.227 556.182C196.227 557.409 196.006 558.47 195.562 559.364C195.119 560.258 194.511 560.947 193.739 561.432C192.966 561.917 192.083 562.159 191.091 562.159C190.098 562.159 189.216 561.917 188.443 561.432C187.67 560.947 187.063 560.258 186.619 559.364C186.176 558.47 185.955 557.409 185.955 556.182C185.955 554.955 186.176 553.894 186.619 553C187.063 552.106 187.67 551.417 188.443 550.932C189.216 550.447 190.098 550.205 191.091 550.205C192.083 550.205 192.966 550.447 193.739 550.932C194.511 551.417 195.119 552.106 195.562 553C196.006 553.894 196.227 554.955 196.227 556.182ZM194.864 556.182C194.864 555.174 194.695 554.324 194.358 553.631C194.025 552.938 193.572 552.413 193 552.057C192.432 551.701 191.795 551.523 191.091 551.523C190.386 551.523 189.748 551.701 189.176 552.057C188.608 552.413 188.155 552.938 187.818 553.631C187.485 554.324 187.318 555.174 187.318 556.182C187.318 557.189 187.485 558.04 187.818 558.733C188.155 559.426 188.608 559.951 189.176 560.307C189.748 560.663 190.386 560.841 191.091 560.841C191.795 560.841 192.432 560.663 193 560.307C193.572 559.951 194.025 559.426 194.358 558.733C194.695 558.04 194.864 557.189 194.864 556.182ZM198.415 562V553.273H199.71V554.591H199.801C199.96 554.159 200.248 553.809 200.665 553.54C201.081 553.271 201.551 553.136 202.074 553.136C202.172 553.136 202.295 553.138 202.443 553.142C202.591 553.146 202.703 553.152 202.778 553.159V554.523C202.733 554.511 202.629 554.494 202.466 554.472C202.307 554.445 202.138 554.432 201.96 554.432C201.536 554.432 201.157 554.521 200.824 554.699C200.494 554.873 200.233 555.116 200.04 555.426C199.85 555.733 199.756 556.083 199.756 556.477V562H198.415Z" fill="black"/>
<path d="M21 557H159" stroke="url(#paint2_linear_8_23)"/>
<path d="M240 557H378" stroke="url(#paint3_linear_8_23)"/>
<path d="M93.2364 150V131.818H99.3798C100.806 131.818 101.972 132.076 102.878 132.591C103.789 133.1 104.464 133.789 104.902 134.659C105.34 135.529 105.559 136.5 105.559 137.571C105.559 138.642 105.34 139.616 104.902 140.492C104.47 141.368 103.801 142.066 102.895 142.587C101.99 143.102 100.83 143.359 99.4153 143.359H95.0119V141.406H99.3443C100.321 141.406 101.105 141.238 101.697 140.9C102.289 140.563 102.718 140.107 102.984 139.533C103.256 138.953 103.393 138.299 103.393 137.571C103.393 136.843 103.256 136.192 102.984 135.618C102.718 135.044 102.286 134.594 101.688 134.268C101.09 133.937 100.297 133.771 99.3088 133.771H95.4381V150H93.2364ZM110.917 131.818V150H108.821V131.818H110.917ZM120.471 150.284C119.157 150.284 118.024 149.994 117.071 149.414C116.124 148.828 115.393 148.011 114.878 146.964C114.369 145.91 114.115 144.685 114.115 143.288C114.115 141.892 114.369 140.661 114.878 139.595C115.393 138.524 116.109 137.689 117.027 137.092C117.95 136.488 119.027 136.186 120.258 136.186C120.969 136.186 121.67 136.304 122.362 136.541C123.055 136.778 123.685 137.163 124.253 137.695C124.822 138.222 125.274 138.92 125.612 139.79C125.949 140.661 126.118 141.732 126.118 143.004V143.892H115.606V142.081H123.987C123.987 141.312 123.833 140.625 123.525 140.021C123.223 139.418 122.791 138.941 122.229 138.592C121.673 138.243 121.016 138.068 120.258 138.068C119.424 138.068 118.702 138.275 118.092 138.69C117.488 139.098 117.024 139.631 116.698 140.288C116.373 140.945 116.21 141.649 116.21 142.401V143.608C116.21 144.638 116.388 145.511 116.743 146.227C117.104 146.937 117.604 147.479 118.243 147.852C118.882 148.219 119.625 148.402 120.471 148.402C121.022 148.402 121.519 148.325 121.963 148.171C122.413 148.011 122.8 147.775 123.126 147.461C123.451 147.141 123.703 146.745 123.88 146.271L125.905 146.839C125.692 147.526 125.333 148.13 124.83 148.651C124.327 149.165 123.706 149.568 122.966 149.858C122.226 150.142 121.395 150.284 120.471 150.284ZM133.318 150.32C132.453 150.32 131.669 150.157 130.965 149.831C130.261 149.5 129.701 149.023 129.287 148.402C128.873 147.775 128.666 147.017 128.666 146.129C128.666 145.348 128.819 144.715 129.127 144.229C129.435 143.738 129.846 143.353 130.361 143.075C130.876 142.797 131.444 142.59 132.066 142.454C132.693 142.312 133.324 142.199 133.957 142.116C134.785 142.01 135.457 141.93 135.972 141.877C136.493 141.818 136.872 141.72 137.108 141.584C137.351 141.448 137.472 141.211 137.472 140.874V140.803C137.472 139.927 137.233 139.246 136.753 138.761C136.28 138.275 135.561 138.033 134.596 138.033C133.596 138.033 132.812 138.252 132.243 138.69C131.675 139.128 131.276 139.595 131.045 140.092L129.056 139.382C129.411 138.554 129.885 137.908 130.477 137.447C131.074 136.979 131.726 136.654 132.43 136.47C133.14 136.281 133.838 136.186 134.525 136.186C134.963 136.186 135.466 136.239 136.034 136.346C136.608 136.446 137.162 136.657 137.694 136.976C138.233 137.296 138.68 137.778 139.035 138.423C139.39 139.068 139.568 139.933 139.568 141.016V150H137.472V148.153H137.366C137.224 148.449 136.987 148.766 136.656 149.103C136.324 149.441 135.883 149.728 135.333 149.964C134.782 150.201 134.111 150.32 133.318 150.32ZM133.637 148.438C134.466 148.438 135.164 148.275 135.732 147.949C136.306 147.624 136.739 147.203 137.029 146.689C137.324 146.174 137.472 145.632 137.472 145.064V143.146C137.384 143.253 137.188 143.35 136.886 143.439C136.591 143.522 136.247 143.596 135.857 143.661C135.472 143.72 135.096 143.774 134.729 143.821C134.368 143.862 134.075 143.898 133.85 143.928C133.306 143.999 132.797 144.114 132.323 144.274C131.856 144.428 131.477 144.661 131.187 144.975C130.903 145.283 130.761 145.703 130.761 146.236C130.761 146.964 131.03 147.514 131.569 147.887C132.113 148.254 132.803 148.438 133.637 148.438ZM153.051 139.418L151.169 139.95C151.05 139.637 150.876 139.332 150.645 139.036C150.42 138.734 150.112 138.485 149.722 138.29C149.331 138.095 148.831 137.997 148.221 137.997C147.387 137.997 146.691 138.19 146.135 138.574C145.585 138.953 145.309 139.435 145.309 140.021C145.309 140.542 145.499 140.953 145.878 141.255C146.256 141.557 146.848 141.809 147.653 142.01L149.677 142.507C150.896 142.803 151.805 143.256 152.403 143.865C153.001 144.469 153.299 145.247 153.299 146.2C153.299 146.982 153.075 147.68 152.625 148.295C152.181 148.911 151.559 149.396 150.76 149.751C149.961 150.107 149.032 150.284 147.973 150.284C146.582 150.284 145.431 149.982 144.519 149.379C143.608 148.775 143.031 147.893 142.788 146.733L144.777 146.236C144.966 146.97 145.324 147.52 145.851 147.887C146.384 148.254 147.079 148.438 147.937 148.438C148.914 148.438 149.689 148.23 150.263 147.816C150.843 147.396 151.133 146.893 151.133 146.307C151.133 145.833 150.967 145.437 150.636 145.117C150.305 144.792 149.796 144.549 149.109 144.389L146.836 143.857C145.588 143.561 144.67 143.102 144.084 142.48C143.504 141.853 143.214 141.069 143.214 140.128C143.214 139.358 143.43 138.678 143.862 138.086C144.3 137.494 144.895 137.029 145.647 136.692C146.404 136.355 147.262 136.186 148.221 136.186C149.571 136.186 150.63 136.482 151.4 137.074C152.175 137.666 152.725 138.447 153.051 139.418ZM162.171 150.284C160.857 150.284 159.723 149.994 158.77 149.414C157.823 148.828 157.092 148.011 156.578 146.964C156.069 145.91 155.814 144.685 155.814 143.288C155.814 141.892 156.069 140.661 156.578 139.595C157.092 138.524 157.809 137.689 158.726 137.092C159.649 136.488 160.726 136.186 161.958 136.186C162.668 136.186 163.369 136.304 164.062 136.541C164.754 136.778 165.384 137.163 165.953 137.695C166.521 138.222 166.974 138.92 167.311 139.79C167.648 140.661 167.817 141.732 167.817 143.004V143.892H157.306V142.081H165.686C165.686 141.312 165.532 140.625 165.225 140.021C164.923 139.418 164.491 138.941 163.928 138.592C163.372 138.243 162.715 138.068 161.958 138.068C161.123 138.068 160.401 138.275 159.791 138.69C159.188 139.098 158.723 139.631 158.398 140.288C158.072 140.945 157.909 141.649 157.909 142.401V143.608C157.909 144.638 158.087 145.511 158.442 146.227C158.803 146.937 159.303 147.479 159.942 147.852C160.581 148.219 161.324 148.402 162.171 148.402C162.721 148.402 163.218 148.325 163.662 148.171C164.112 148.011 164.5 147.775 164.825 147.461C165.151 147.141 165.402 146.745 165.58 146.271L167.604 146.839C167.391 147.526 167.033 148.13 166.53 148.651C166.027 149.165 165.405 149.568 164.665 149.858C163.925 150.142 163.094 150.284 162.171 150.284ZM254.06 155.114C253.704 155.114 253.388 155.084 253.11 155.025C252.831 154.972 252.639 154.918 252.533 154.865L253.065 153.018C253.574 153.149 254.024 153.196 254.415 153.161C254.805 153.125 255.152 152.95 255.453 152.637C255.761 152.329 256.042 151.829 256.297 151.136L256.687 150.071L251.645 136.364H253.917L257.682 147.23H257.824L261.588 136.364H263.861L258.072 151.989C257.812 152.693 257.489 153.276 257.105 153.738C256.72 154.205 256.273 154.551 255.764 154.776C255.261 155.001 254.693 155.114 254.06 155.114ZM271.678 150.284C270.447 150.284 269.366 149.991 268.437 149.405C267.514 148.819 266.792 148 266.271 146.946C265.756 145.893 265.499 144.661 265.499 143.253C265.499 141.832 265.756 140.592 266.271 139.533C266.792 138.474 267.514 137.651 268.437 137.065C269.366 136.479 270.447 136.186 271.678 136.186C272.909 136.186 273.986 136.479 274.909 137.065C275.838 137.651 276.56 138.474 277.075 139.533C277.596 140.592 277.857 141.832 277.857 143.253C277.857 144.661 277.596 145.893 277.075 146.946C276.56 148 275.838 148.819 274.909 149.405C273.986 149.991 272.909 150.284 271.678 150.284ZM271.678 148.402C272.613 148.402 273.382 148.162 273.986 147.683C274.59 147.203 275.036 146.573 275.326 145.792C275.616 145.011 275.761 144.164 275.761 143.253C275.761 142.341 275.616 141.492 275.326 140.705C275.036 139.918 274.59 139.281 273.986 138.796C273.382 138.311 272.613 138.068 271.678 138.068C270.742 138.068 269.973 138.311 269.369 138.796C268.766 139.281 268.319 139.918 268.029 140.705C267.739 141.492 267.594 142.341 267.594 143.253C267.594 144.164 267.739 145.011 268.029 145.792C268.319 146.573 268.766 147.203 269.369 147.683C269.973 148.162 270.742 148.402 271.678 148.402ZM289.649 144.425V136.364H291.744V150H289.649V147.692H289.507C289.187 148.384 288.69 148.973 288.015 149.458C287.34 149.938 286.488 150.178 285.458 150.178C284.606 150.178 283.848 149.991 283.186 149.618C282.523 149.239 282.002 148.671 281.623 147.914C281.244 147.15 281.055 146.188 281.055 145.028V136.364H283.15V144.886C283.15 145.881 283.428 146.674 283.985 147.266C284.547 147.857 285.263 148.153 286.133 148.153C286.654 148.153 287.183 148.02 287.722 147.754C288.267 147.488 288.722 147.079 289.089 146.529C289.462 145.978 289.649 145.277 289.649 144.425ZM295.581 150V136.364H297.605V138.423H297.747C297.996 137.749 298.446 137.201 299.097 136.781C299.748 136.361 300.482 136.151 301.299 136.151C301.452 136.151 301.645 136.154 301.876 136.159C302.106 136.165 302.281 136.174 302.399 136.186V138.317C302.328 138.299 302.166 138.272 301.911 138.237C301.663 138.195 301.399 138.175 301.121 138.175C300.458 138.175 299.866 138.314 299.345 138.592C298.83 138.864 298.422 139.243 298.12 139.728C297.824 140.208 297.676 140.755 297.676 141.371V150H295.581ZM151.905 180.32C151.041 180.32 150.257 180.157 149.552 179.831C148.848 179.5 148.289 179.023 147.874 178.402C147.46 177.775 147.253 177.017 147.253 176.129C147.253 175.348 147.407 174.715 147.715 174.229C148.022 173.738 148.434 173.353 148.949 173.075C149.464 172.797 150.032 172.59 150.653 172.454C151.281 172.312 151.911 172.199 152.544 172.116C153.373 172.01 154.045 171.93 154.559 171.877C155.08 171.818 155.459 171.72 155.696 171.584C155.939 171.448 156.06 171.211 156.06 170.874V170.803C156.06 169.927 155.82 169.246 155.341 168.761C154.867 168.275 154.148 168.033 153.183 168.033C152.183 168.033 151.399 168.252 150.831 168.69C150.263 169.128 149.863 169.595 149.632 170.092L147.644 169.382C147.999 168.554 148.472 167.908 149.064 167.447C149.662 166.979 150.313 166.654 151.017 166.47C151.727 166.281 152.426 166.186 153.112 166.186C153.55 166.186 154.053 166.239 154.622 166.346C155.196 166.446 155.749 166.657 156.282 166.976C156.82 167.296 157.267 167.778 157.622 168.423C157.977 169.068 158.155 169.933 158.155 171.016V180H156.06V178.153H155.953C155.811 178.449 155.575 178.766 155.243 179.103C154.912 179.441 154.471 179.728 153.92 179.964C153.37 180.201 152.698 180.32 151.905 180.32ZM152.225 178.438C153.053 178.438 153.752 178.275 154.32 177.949C154.894 177.624 155.326 177.203 155.616 176.689C155.912 176.174 156.06 175.632 156.06 175.064V173.146C155.971 173.253 155.776 173.35 155.474 173.439C155.178 173.522 154.835 173.596 154.444 173.661C154.059 173.72 153.684 173.774 153.317 173.821C152.956 173.862 152.663 173.898 152.438 173.928C151.893 173.999 151.384 174.114 150.911 174.274C150.443 174.428 150.064 174.661 149.774 174.975C149.49 175.283 149.348 175.703 149.348 176.236C149.348 176.964 149.617 177.514 150.156 177.887C150.701 178.254 151.39 178.438 152.225 178.438ZM167.519 180.284C166.241 180.284 165.14 179.982 164.216 179.379C163.293 178.775 162.583 177.943 162.086 176.884C161.589 175.824 161.34 174.614 161.34 173.253C161.34 171.868 161.594 170.646 162.103 169.586C162.618 168.521 163.334 167.689 164.252 167.092C165.175 166.488 166.252 166.186 167.483 166.186C168.442 166.186 169.306 166.364 170.076 166.719C170.845 167.074 171.475 167.571 171.967 168.21C172.458 168.849 172.763 169.595 172.881 170.447H170.786C170.626 169.826 170.271 169.276 169.721 168.796C169.176 168.311 168.442 168.068 167.519 168.068C166.702 168.068 165.986 168.281 165.37 168.707C164.761 169.128 164.284 169.722 163.941 170.492C163.604 171.255 163.435 172.152 163.435 173.182C163.435 174.235 163.601 175.153 163.932 175.934C164.27 176.715 164.743 177.322 165.353 177.754C165.968 178.186 166.69 178.402 167.519 178.402C168.063 178.402 168.558 178.307 169.002 178.118C169.445 177.929 169.821 177.656 170.129 177.301C170.437 176.946 170.656 176.52 170.786 176.023H172.881C172.763 176.828 172.47 177.553 172.002 178.198C171.541 178.837 170.928 179.346 170.165 179.725C169.407 180.098 168.525 180.284 167.519 180.284ZM181.484 180.284C180.205 180.284 179.104 179.982 178.181 179.379C177.258 178.775 176.548 177.943 176.051 176.884C175.553 175.824 175.305 174.614 175.305 173.253C175.305 171.868 175.559 170.646 176.068 169.586C176.583 168.521 177.299 167.689 178.217 167.092C179.14 166.488 180.217 166.186 181.448 166.186C182.407 166.186 183.271 166.364 184.041 166.719C184.81 167.074 185.44 167.571 185.932 168.21C186.423 168.849 186.728 169.595 186.846 170.447H184.751C184.591 169.826 184.236 169.276 183.685 168.796C183.141 168.311 182.407 168.068 181.484 168.068C180.667 168.068 179.951 168.281 179.335 168.707C178.726 169.128 178.249 169.722 177.906 170.492C177.569 171.255 177.4 172.152 177.4 173.182C177.4 174.235 177.566 175.153 177.897 175.934C178.234 176.715 178.708 177.322 179.318 177.754C179.933 178.186 180.655 178.402 181.484 178.402C182.028 178.402 182.522 178.307 182.966 178.118C183.41 177.929 183.786 177.656 184.094 177.301C184.402 176.946 184.621 176.52 184.751 176.023H186.846C186.728 176.828 186.435 177.553 185.967 178.198C185.505 178.837 184.893 179.346 184.129 179.725C183.372 180.098 182.49 180.284 181.484 180.284ZM195.449 180.284C194.218 180.284 193.137 179.991 192.208 179.405C191.285 178.819 190.563 178 190.042 176.946C189.527 175.893 189.27 174.661 189.27 173.253C189.27 171.832 189.527 170.592 190.042 169.533C190.563 168.474 191.285 167.651 192.208 167.065C193.137 166.479 194.218 166.186 195.449 166.186C196.68 166.186 197.757 166.479 198.68 167.065C199.609 167.651 200.331 168.474 200.846 169.533C201.367 170.592 201.628 171.832 201.628 173.253C201.628 174.661 201.367 175.893 200.846 176.946C200.331 178 199.609 178.819 198.68 179.405C197.757 179.991 196.68 180.284 195.449 180.284ZM195.449 178.402C196.384 178.402 197.153 178.162 197.757 177.683C198.361 177.203 198.807 176.573 199.097 175.792C199.387 175.011 199.532 174.164 199.532 173.253C199.532 172.341 199.387 171.492 199.097 170.705C198.807 169.918 198.361 169.281 197.757 168.796C197.153 168.311 196.384 168.068 195.449 168.068C194.513 168.068 193.744 168.311 193.14 168.796C192.537 169.281 192.09 169.918 191.8 170.705C191.51 171.492 191.365 172.341 191.365 173.253C191.365 174.164 191.51 175.011 191.8 175.792C192.09 176.573 192.537 177.203 193.14 177.683C193.744 178.162 194.513 178.402 195.449 178.402ZM213.42 174.425V166.364H215.515V180H213.42V177.692H213.278C212.958 178.384 212.461 178.973 211.786 179.458C211.111 179.938 210.259 180.178 209.229 180.178C208.377 180.178 207.619 179.991 206.956 179.618C206.294 179.239 205.773 178.671 205.394 177.914C205.015 177.15 204.826 176.188 204.826 175.028V166.364H206.921V174.886C206.921 175.881 207.199 176.674 207.756 177.266C208.318 177.857 209.034 178.153 209.904 178.153C210.425 178.153 210.954 178.02 211.493 177.754C212.038 177.488 212.493 177.079 212.86 176.529C213.233 175.978 213.42 175.277 213.42 174.425ZM221.447 171.797V180H219.352V166.364H221.376V168.494H221.554C221.873 167.802 222.359 167.246 223.01 166.825C223.661 166.399 224.501 166.186 225.531 166.186C226.454 166.186 227.262 166.375 227.955 166.754C228.647 167.127 229.186 167.695 229.571 168.459C229.955 169.216 230.148 170.175 230.148 171.335V180H228.052V171.477C228.052 170.406 227.774 169.571 227.218 168.974C226.662 168.37 225.898 168.068 224.927 168.068C224.259 168.068 223.661 168.213 223.134 168.503C222.613 168.793 222.202 169.216 221.9 169.773C221.598 170.329 221.447 171.004 221.447 171.797ZM239.907 166.364V168.139H232.84V166.364H239.907ZM234.9 163.097H236.995V176.094C236.995 176.686 237.08 177.129 237.252 177.425C237.43 177.715 237.655 177.911 237.927 178.011C238.205 178.106 238.498 178.153 238.806 178.153C239.037 178.153 239.226 178.142 239.374 178.118C239.522 178.088 239.64 178.065 239.729 178.047L240.155 179.929C240.013 179.982 239.815 180.036 239.56 180.089C239.306 180.148 238.983 180.178 238.593 180.178C238.001 180.178 237.421 180.05 236.853 179.796C236.29 179.541 235.823 179.154 235.45 178.633C235.083 178.112 234.9 177.455 234.9 176.662V163.097ZM244.585 180.142C244.147 180.142 243.771 179.985 243.458 179.672C243.144 179.358 242.987 178.982 242.987 178.544C242.987 178.106 243.144 177.73 243.458 177.417C243.771 177.103 244.147 176.946 244.585 176.946C245.023 176.946 245.399 177.103 245.713 177.417C246.026 177.73 246.183 178.106 246.183 178.544C246.183 178.834 246.109 179.1 245.961 179.343C245.819 179.586 245.627 179.781 245.384 179.929C245.147 180.071 244.881 180.142 244.585 180.142Z" fill="black"/>
<path d="M182.52 152.013C181.64 151.793 180.925 151.331 180.375 150.627C179.847 149.945 179.418 149.12 179.088 148.152C179.066 147.866 179.055 147.47 179.055 146.964C179.077 146.458 179.11 145.985 179.154 145.545C179.198 145.105 179.242 144.852 179.286 144.786C179.352 144.742 179.385 144.61 179.385 144.39C179.363 144.302 179.374 144.159 179.418 143.961C179.484 143.741 179.55 143.521 179.616 143.301C179.726 143.037 179.781 142.828 179.781 142.674C179.781 142.498 179.77 142.366 179.748 142.278C179.748 142.278 179.781 142.212 179.847 142.08C179.913 141.926 179.99 141.805 180.078 141.717C180.21 141.585 180.265 141.453 180.243 141.321C180.243 141.189 180.243 141.123 180.243 141.123C180.221 141.035 180.243 140.914 180.309 140.76C180.375 140.606 180.441 140.485 180.507 140.397C180.551 140.353 180.606 140.265 180.672 140.133C180.76 139.979 180.804 139.902 180.804 139.902C180.804 139.836 180.848 139.66 180.936 139.374C181.046 139.088 181.167 138.78 181.299 138.45C181.431 138.098 181.552 137.779 181.662 137.493C181.794 137.207 181.893 137.02 181.959 136.932V136.866C182.047 136.646 182.168 136.415 182.322 136.173C182.344 136.063 182.399 135.887 182.487 135.645C182.575 135.381 182.674 135.128 182.784 134.886C183.026 134.358 183.323 133.764 183.675 133.104C184.049 132.422 184.445 131.751 184.863 131.091C185.281 130.409 185.677 129.804 186.051 129.276C186.447 128.726 186.788 128.319 187.074 128.055C187.448 127.637 187.822 127.34 188.196 127.164C188.592 126.966 188.955 127.032 189.285 127.362C189.439 127.516 189.571 127.747 189.681 128.055C189.791 128.341 189.835 128.616 189.813 128.88C189.813 129.122 189.725 129.254 189.549 129.276C189.395 129.364 189.186 129.617 188.922 130.035C188.658 130.431 188.361 130.904 188.031 131.454C187.723 132.004 187.415 132.576 187.107 133.17C186.799 133.742 186.513 134.259 186.249 134.721C185.963 135.359 185.699 135.92 185.457 136.404C185.215 136.866 185.094 137.097 185.094 137.097C185.072 137.163 185.05 137.218 185.028 137.262C185.006 137.306 184.984 137.35 184.962 137.394C184.632 138.076 184.357 138.703 184.137 139.275C183.917 139.825 183.697 140.408 183.477 141.024C183.345 141.178 183.268 141.332 183.246 141.486C183.224 141.64 183.213 141.717 183.213 141.717C183.169 141.695 183.136 141.75 183.114 141.882C183.092 141.992 183.048 142.124 182.982 142.278C182.872 142.366 182.806 142.509 182.784 142.707C182.762 142.883 182.751 143.059 182.751 143.235C182.597 143.631 182.454 144.115 182.322 144.687C182.19 145.237 182.091 145.776 182.025 146.304C181.981 146.81 181.97 147.206 181.992 147.492C182.036 147.866 182.135 148.185 182.289 148.449C182.465 148.691 182.707 148.889 183.015 149.043C183.257 149.153 183.477 149.252 183.675 149.34C183.873 149.406 184.049 149.439 184.203 149.439C184.379 149.461 184.599 149.461 184.863 149.439C185.149 149.395 185.534 149.329 186.018 149.241H185.985C186.271 149.197 186.568 149.142 186.876 149.076C187.206 148.988 187.514 148.911 187.8 148.845C188.064 148.801 188.317 148.757 188.559 148.713C188.801 148.647 188.988 148.592 189.12 148.548C189.604 148.416 189.989 148.306 190.275 148.218C190.583 148.13 190.792 148.13 190.902 148.218C191.012 148.306 191.133 148.471 191.265 148.713C191.397 148.955 191.43 149.175 191.364 149.373C191.32 149.483 191.1 149.703 190.704 150.033C190.308 150.385 189.857 150.726 189.351 151.056C188.845 151.408 188.383 151.65 187.965 151.782C187.525 151.98 186.931 152.112 186.183 152.178C185.457 152.266 184.753 152.288 184.071 152.244C183.389 152.2 182.872 152.123 182.52 152.013ZM195.712 149.769C195.426 149.769 195.195 149.714 195.019 149.604C194.865 149.494 194.667 149.34 194.425 149.142C194.007 148.702 193.666 148.229 193.402 147.723C193.16 147.217 193.072 146.777 193.138 146.403C193.204 146.227 193.226 146.062 193.204 145.908C193.204 145.732 193.204 145.644 193.204 145.644C193.094 145.534 193.061 145.468 193.105 145.446C193.149 145.402 193.193 145.336 193.237 145.248C193.369 145.248 193.413 145.127 193.369 144.885C193.325 144.709 193.391 144.335 193.567 143.763C193.765 143.169 194.029 142.608 194.359 142.08C194.491 141.86 194.689 141.574 194.953 141.222C195.217 140.848 195.503 140.485 195.811 140.133C196.141 139.759 196.438 139.462 196.702 139.242C197.252 138.78 197.758 138.406 198.22 138.12C198.704 137.834 199.188 137.636 199.672 137.526C200.156 137.416 200.651 137.361 201.157 137.361C201.685 137.361 202.114 137.537 202.444 137.889C202.95 138.109 203.302 138.406 203.5 138.78C203.72 139.154 203.863 139.638 203.929 140.232C203.995 140.892 203.929 141.706 203.731 142.674C203.533 143.62 202.994 144.72 202.114 145.974C201.564 146.766 201.025 147.382 200.497 147.822C199.969 148.262 199.386 148.669 198.748 149.043C198.286 149.351 197.791 149.538 197.263 149.604C196.735 149.67 196.218 149.725 195.712 149.769ZM199.078 145.743C199.562 145.325 199.903 144.863 200.101 144.357C200.321 143.851 200.552 143.257 200.794 142.575C200.882 142.443 200.937 142.223 200.959 141.915C201.003 141.607 201.014 141.31 200.992 141.024C200.97 140.716 200.893 140.54 200.761 140.496C200.563 140.342 200.365 140.309 200.167 140.397C199.969 140.463 199.716 140.606 199.408 140.826C198.748 141.376 198.132 142.014 197.56 142.74C197.01 143.444 196.625 144.313 196.405 145.347C196.339 145.897 196.394 146.315 196.57 146.601C196.768 146.865 197.076 146.942 197.494 146.832C197.934 146.7 198.462 146.337 199.078 145.743ZM209.187 156.6C208.571 156.842 207.922 156.798 207.24 156.468C206.58 156.16 206.008 155.665 205.524 154.983C205.436 154.851 205.304 154.609 205.128 154.257C204.952 153.927 204.776 153.564 204.6 153.168C204.446 152.772 204.325 152.431 204.237 152.145C204.171 151.859 204.171 151.694 204.237 151.65C204.325 151.408 204.523 151.265 204.831 151.221C205.139 151.177 205.447 151.188 205.755 151.254C206.063 151.342 206.239 151.452 206.283 151.584C206.349 151.738 206.415 151.892 206.481 152.046C206.547 152.222 206.624 152.376 206.712 152.508C206.822 152.662 206.921 152.794 207.009 152.904C207.251 153.278 207.515 153.531 207.801 153.663C208.087 153.817 208.307 153.839 208.461 153.729C208.835 153.443 209.11 153.102 209.286 152.706C209.484 152.332 209.737 151.661 210.045 150.693C210.287 149.879 210.496 149.175 210.672 148.581C210.848 147.987 211.035 147.437 211.233 146.931C211.299 146.667 211.376 146.447 211.464 146.271C211.574 146.073 211.673 145.93 211.761 145.842H211.959C211.475 146.15 211.068 146.458 210.738 146.766C210.408 147.074 209.957 147.349 209.385 147.591C209.253 147.745 208.923 147.844 208.395 147.888C207.889 147.91 207.394 147.844 206.91 147.69C206.602 147.514 206.349 147.338 206.151 147.162C205.975 146.964 205.821 146.744 205.689 146.502C205.579 146.26 205.458 145.974 205.326 145.644C205.172 145.314 205.15 144.775 205.26 144.027C205.37 143.279 205.568 142.531 205.854 141.783C206.118 141.233 206.503 140.639 207.009 140.001C207.515 139.363 208.054 138.791 208.626 138.285C209.198 137.757 209.715 137.427 210.177 137.295C210.353 137.207 210.661 137.108 211.101 136.998C211.541 136.866 211.959 136.855 212.355 136.965C212.729 137.009 213.015 137.097 213.213 137.229C213.411 137.339 213.73 137.581 214.17 137.955C214.456 138.241 214.808 138.615 215.226 139.077C215.644 139.517 215.908 139.891 216.018 140.199C216.172 140.529 216.205 140.892 216.117 141.288C216.029 141.662 215.875 141.992 215.655 142.278C215.457 142.564 215.248 142.85 215.028 143.136C214.808 143.422 214.643 143.818 214.533 144.324C214.423 144.984 214.214 145.732 213.906 146.568C213.598 147.382 213.356 148.141 213.18 148.845L212.652 150.891C212.102 152.761 211.497 154.114 210.837 154.95C210.177 155.808 209.627 156.358 209.187 156.6ZM208.494 145.248C208.934 145.226 209.308 145.182 209.616 145.116C209.946 145.028 210.254 144.852 210.54 144.588C210.826 144.302 211.156 143.873 211.53 143.301C211.904 142.773 212.168 142.289 212.322 141.849C212.476 141.409 212.531 140.914 212.487 140.364C212.465 140.012 212.366 139.781 212.19 139.671C212.014 139.561 211.783 139.528 211.497 139.572C211.079 139.638 210.705 139.814 210.375 140.1C210.045 140.364 209.66 140.782 209.22 141.354C208.89 141.794 208.615 142.322 208.395 142.938C208.175 143.598 208.076 144.126 208.098 144.522C208.142 144.918 208.274 145.16 208.494 145.248ZM227.78 149.967C227.252 149.967 226.79 149.692 226.394 149.142C226.02 148.57 225.789 147.888 225.701 147.096C225.723 146.92 225.745 146.667 225.767 146.337C225.811 146.007 225.855 145.666 225.899 145.314C225.987 144.896 226.108 144.357 226.262 143.697C226.416 143.037 226.581 142.377 226.757 141.717C226.933 141.035 227.087 140.452 227.219 139.968C227.351 139.462 227.428 139.165 227.45 139.077C227.582 138.769 227.879 138.692 228.341 138.846C228.803 139 229.199 139.33 229.529 139.836C229.661 140.012 229.738 140.221 229.76 140.463C229.804 140.705 229.771 141.057 229.661 141.519C229.573 141.981 229.397 142.663 229.133 143.565C228.891 144.445 228.704 145.16 228.572 145.71C228.462 146.238 228.418 146.799 228.44 147.393C228.352 148.405 228.264 149.098 228.176 149.472C228.088 149.824 227.956 149.989 227.78 149.967ZM230.816 136.272C230.728 136.338 230.64 136.371 230.552 136.371C230.486 136.349 230.365 136.283 230.189 136.173C230.035 136.151 229.837 136.052 229.595 135.876C229.375 135.678 229.177 135.48 229.001 135.282C228.847 135.084 228.77 134.963 228.77 134.919C228.748 134.699 228.759 134.347 228.803 133.863C228.869 133.379 228.99 132.928 229.166 132.51C229.364 132.07 229.628 131.839 229.958 131.817C230.046 131.817 230.233 131.861 230.519 131.949C230.827 132.037 231.146 132.147 231.476 132.279C231.652 132.609 231.817 133.038 231.971 133.566C232.125 134.094 232.136 134.611 232.004 135.117C231.894 135.601 231.498 135.986 230.816 136.272ZM242.442 149.868C242.112 149.868 241.793 149.769 241.485 149.571C241.177 149.351 240.924 149.054 240.726 148.68C240.528 148.284 240.429 147.822 240.429 147.294C240.429 146.964 240.484 146.502 240.594 145.908C240.726 145.292 240.913 144.522 241.155 143.598C241.199 143.29 241.232 143.092 241.254 143.004C241.298 142.916 241.32 142.828 241.32 142.74C241.32 142.696 241.309 142.663 241.287 142.641C241.287 142.597 241.265 142.575 241.221 142.575C241.045 142.575 240.803 142.696 240.495 142.938C240.209 143.158 239.879 143.422 239.505 143.73C239.439 143.774 239.362 143.829 239.274 143.895C239.208 143.961 239.131 144.027 239.043 144.093C238.977 144.159 238.9 144.225 238.812 144.291C238.592 144.423 238.251 144.676 237.789 145.05C237.349 145.424 236.887 145.82 236.403 146.238C235.941 146.656 235.534 147.008 235.182 147.294C235.006 147.426 234.852 147.536 234.72 147.624C234.61 147.712 234.533 147.756 234.489 147.756C234.445 147.756 234.269 147.701 233.961 147.591C233.675 147.459 233.389 147.283 233.103 147.063C232.839 146.821 232.707 146.546 232.707 146.238C232.707 146.04 232.784 145.644 232.938 145.05C233.114 144.456 233.356 143.752 233.664 142.938C233.972 142.124 234.324 141.299 234.72 140.463C234.808 140.265 234.874 140.001 234.918 139.671C234.962 139.341 235.006 139.022 235.05 138.714C235.116 138.384 235.226 138.142 235.38 137.988C235.446 137.878 235.523 137.801 235.611 137.757C235.721 137.691 235.831 137.658 235.941 137.658C236.161 137.658 236.37 137.713 236.568 137.823C236.766 137.911 236.953 138.065 237.129 138.285C237.459 138.637 237.635 139.055 237.657 139.539C237.701 140.001 237.668 140.452 237.558 140.892C237.448 141.332 237.327 141.695 237.195 141.981C237.063 142.245 236.997 142.355 236.997 142.311C237.085 142.267 237.206 142.157 237.36 141.981C237.536 141.805 237.833 141.596 238.251 141.354C238.823 140.914 239.263 140.606 239.571 140.43C239.879 140.232 240.11 140.089 240.264 140.001C240.44 139.913 240.594 139.814 240.726 139.704C240.836 139.616 240.913 139.561 240.957 139.539C241.023 139.517 241.056 139.506 241.056 139.506C241.122 139.506 241.232 139.462 241.386 139.374C241.562 139.286 241.727 139.242 241.881 139.242C242.101 139.242 242.332 139.297 242.574 139.407C242.816 139.495 243.025 139.627 243.201 139.803C243.377 139.957 243.465 140.122 243.465 140.298C243.465 140.364 243.487 140.419 243.531 140.463C243.575 140.507 243.619 140.562 243.663 140.628C243.773 140.76 243.894 140.947 244.026 141.189C244.18 141.409 244.257 141.772 244.257 142.278C244.257 142.63 244.18 143.147 244.026 143.829C243.872 144.511 243.707 145.182 243.531 145.842C243.355 146.524 243.267 147.074 243.267 147.492C243.289 147.888 243.333 148.196 243.399 148.416C243.465 148.614 243.498 148.779 243.498 148.911C243.498 149.087 243.41 149.296 243.234 149.538C243.058 149.758 242.794 149.868 242.442 149.868Z" fill="url(#paint4_linear_8_23)"/>
<path d="M100.039 665H96.897V654.818H100.178C101.166 654.818 102.011 655.022 102.714 655.43C103.416 655.834 103.955 656.416 104.33 657.175C104.704 657.93 104.891 658.835 104.891 659.889C104.891 660.95 104.702 661.863 104.325 662.629C103.947 663.391 103.397 663.978 102.674 664.388C101.951 664.796 101.073 665 100.039 665ZM98.13 663.906H99.9595C100.801 663.906 101.499 663.744 102.053 663.419C102.606 663.094 103.019 662.632 103.29 662.032C103.562 661.432 103.698 660.718 103.698 659.889C103.698 659.067 103.564 658.36 103.295 657.766C103.027 657.17 102.626 656.712 102.092 656.394C101.559 656.073 100.894 655.912 100.099 655.912H98.13V663.906ZM109.903 665.159C109.213 665.159 108.608 664.995 108.088 664.667C107.571 664.339 107.167 663.88 106.875 663.29C106.587 662.7 106.442 662.01 106.442 661.222C106.442 660.426 106.587 659.732 106.875 659.138C107.167 658.545 107.571 658.085 108.088 657.756C108.608 657.428 109.213 657.264 109.903 657.264C110.592 657.264 111.195 657.428 111.712 657.756C112.233 658.085 112.637 658.545 112.925 659.138C113.217 659.732 113.363 660.426 113.363 661.222C113.363 662.01 113.217 662.7 112.925 663.29C112.637 663.88 112.233 664.339 111.712 664.667C111.195 664.995 110.592 665.159 109.903 665.159ZM109.903 664.105C110.426 664.105 110.857 663.971 111.195 663.702C111.533 663.434 111.784 663.081 111.946 662.643C112.108 662.206 112.19 661.732 112.19 661.222C112.19 660.711 112.108 660.236 111.946 659.795C111.784 659.354 111.533 658.998 111.195 658.726C110.857 658.454 110.426 658.318 109.903 658.318C109.379 658.318 108.948 658.454 108.61 658.726C108.272 658.998 108.022 659.354 107.859 659.795C107.697 660.236 107.616 660.711 107.616 661.222C107.616 661.732 107.697 662.206 107.859 662.643C108.022 663.081 108.272 663.434 108.61 663.702C108.948 663.971 109.379 664.105 109.903 664.105ZM116.327 660.406V665H115.154V657.364H116.287V658.557H116.387C116.566 658.169 116.838 657.857 117.202 657.622C117.567 657.384 118.037 657.264 118.614 657.264C119.131 657.264 119.584 657.37 119.971 657.582C120.359 657.791 120.661 658.109 120.876 658.537C121.092 658.961 121.199 659.498 121.199 660.148V665H120.026V660.227C120.026 659.627 119.87 659.16 119.559 658.825C119.247 658.487 118.82 658.318 118.276 658.318C117.902 658.318 117.567 658.399 117.272 658.562C116.98 658.724 116.75 658.961 116.581 659.273C116.412 659.584 116.327 659.962 116.327 660.406ZM124.377 654.818V655.713C124.377 655.985 124.328 656.275 124.228 656.583C124.132 656.888 123.99 657.185 123.801 657.473C123.615 657.758 123.39 658.007 123.125 658.219L122.488 657.702C122.697 657.403 122.878 657.094 123.03 656.772C123.186 656.447 123.264 656.101 123.264 655.733V654.818H124.377ZM129.453 657.364V658.358H125.496V657.364H129.453ZM126.65 655.534H127.823V662.812C127.823 663.144 127.871 663.393 127.967 663.558C128.066 663.721 128.192 663.83 128.345 663.886C128.501 663.939 128.665 663.966 128.837 663.966C128.966 663.966 129.072 663.959 129.155 663.946C129.238 663.929 129.304 663.916 129.354 663.906L129.593 664.96C129.513 664.99 129.402 665.02 129.26 665.05C129.117 665.083 128.936 665.099 128.718 665.099C128.386 665.099 128.061 665.028 127.743 664.886C127.428 664.743 127.167 664.526 126.958 664.234C126.752 663.943 126.65 663.575 126.65 663.131V655.534ZM136.329 660.406V665H135.156V654.818H136.329V658.557H136.429C136.608 658.162 136.876 657.849 137.234 657.617C137.595 657.382 138.076 657.264 138.676 657.264C139.196 657.264 139.652 657.369 140.043 657.577C140.434 657.783 140.737 658.099 140.953 658.527C141.172 658.951 141.281 659.491 141.281 660.148V665H140.108V660.227C140.108 659.621 139.95 659.152 139.635 658.82C139.324 658.486 138.891 658.318 138.338 658.318C137.953 658.318 137.609 658.399 137.304 658.562C137.002 658.724 136.763 658.961 136.588 659.273C136.415 659.584 136.329 659.962 136.329 660.406ZM145.675 665.179C145.191 665.179 144.751 665.088 144.357 664.906C143.963 664.72 143.649 664.453 143.417 664.105C143.185 663.754 143.069 663.33 143.069 662.832C143.069 662.395 143.156 662.04 143.328 661.768C143.5 661.493 143.731 661.278 144.019 661.122C144.307 660.966 144.626 660.85 144.974 660.774C145.325 660.695 145.678 660.632 146.032 660.585C146.497 660.526 146.873 660.481 147.161 660.451C147.453 660.418 147.665 660.363 147.797 660.287C147.933 660.211 148.001 660.078 148.001 659.889V659.849C148.001 659.359 147.867 658.978 147.599 658.706C147.333 658.434 146.931 658.298 146.39 658.298C145.83 658.298 145.391 658.421 145.073 658.666C144.755 658.911 144.531 659.173 144.402 659.452L143.288 659.054C143.487 658.59 143.752 658.229 144.084 657.97C144.418 657.708 144.783 657.526 145.177 657.423C145.575 657.317 145.966 657.264 146.351 657.264C146.596 657.264 146.878 657.294 147.196 657.354C147.517 657.41 147.827 657.528 148.126 657.707C148.427 657.886 148.677 658.156 148.876 658.517C149.075 658.878 149.175 659.362 149.175 659.969V665H148.001V663.966H147.942C147.862 664.132 147.729 664.309 147.544 664.498C147.358 664.687 147.111 664.848 146.803 664.98C146.495 665.113 146.119 665.179 145.675 665.179ZM145.854 664.125C146.318 664.125 146.709 664.034 147.027 663.852C147.348 663.669 147.59 663.434 147.753 663.146C147.918 662.857 148.001 662.554 148.001 662.236V661.162C147.952 661.222 147.842 661.276 147.673 661.326C147.507 661.372 147.315 661.414 147.096 661.45C146.881 661.483 146.671 661.513 146.465 661.54C146.263 661.563 146.099 661.583 145.973 661.599C145.668 661.639 145.383 661.704 145.118 661.793C144.856 661.879 144.644 662.01 144.481 662.186C144.322 662.358 144.243 662.594 144.243 662.892C144.243 663.3 144.394 663.608 144.695 663.817C145 664.022 145.386 664.125 145.854 664.125ZM157.287 657.364L154.463 665H153.27L150.446 657.364H151.719L153.827 663.449H153.906L156.014 657.364H157.287ZM161.764 665.159C161.028 665.159 160.393 664.997 159.86 664.672C159.329 664.344 158.92 663.886 158.632 663.3C158.347 662.71 158.204 662.024 158.204 661.241C158.204 660.459 158.347 659.77 158.632 659.173C158.92 658.573 159.321 658.106 159.835 657.771C160.352 657.433 160.955 657.264 161.645 657.264C162.042 657.264 162.435 657.33 162.823 657.463C163.211 657.596 163.564 657.811 163.882 658.109C164.2 658.404 164.453 658.795 164.642 659.283C164.831 659.77 164.926 660.37 164.926 661.082V661.58H159.039V660.565H163.733C163.733 660.134 163.646 659.75 163.474 659.412C163.305 659.074 163.063 658.807 162.748 658.612C162.437 658.416 162.069 658.318 161.645 658.318C161.177 658.318 160.773 658.434 160.431 658.666C160.093 658.895 159.833 659.193 159.651 659.561C159.469 659.929 159.377 660.323 159.377 660.744V661.42C159.377 661.997 159.477 662.486 159.676 662.887C159.878 663.285 160.158 663.588 160.516 663.797C160.874 664.002 161.29 664.105 161.764 664.105C162.072 664.105 162.35 664.062 162.599 663.976C162.851 663.886 163.068 663.754 163.25 663.578C163.433 663.399 163.574 663.177 163.673 662.912L164.806 663.23C164.687 663.615 164.487 663.953 164.205 664.244C163.923 664.533 163.575 664.758 163.161 664.92C162.747 665.08 162.281 665.159 161.764 665.159ZM172.895 665.179C172.411 665.179 171.972 665.088 171.578 664.906C171.183 664.72 170.87 664.453 170.638 664.105C170.406 663.754 170.29 663.33 170.29 662.832C170.29 662.395 170.376 662.04 170.549 661.768C170.721 661.493 170.951 661.278 171.24 661.122C171.528 660.966 171.846 660.85 172.194 660.774C172.546 660.695 172.899 660.632 173.253 660.585C173.717 660.526 174.093 660.481 174.382 660.451C174.673 660.418 174.886 660.363 175.018 660.287C175.154 660.211 175.222 660.078 175.222 659.889V659.849C175.222 659.359 175.088 658.978 174.819 658.706C174.554 658.434 174.151 658.298 173.611 658.298C173.051 658.298 172.612 658.421 172.294 658.666C171.975 658.911 171.752 659.173 171.623 659.452L170.509 659.054C170.708 658.59 170.973 658.229 171.304 657.97C171.639 657.708 172.004 657.526 172.398 657.423C172.796 657.317 173.187 657.264 173.571 657.264C173.817 657.264 174.098 657.294 174.417 657.354C174.738 657.41 175.048 657.528 175.346 657.707C175.648 657.886 175.898 658.156 176.097 658.517C176.296 658.878 176.395 659.362 176.395 659.969V665H175.222V663.966H175.162C175.083 664.132 174.95 664.309 174.765 664.498C174.579 664.687 174.332 664.848 174.024 664.98C173.716 665.113 173.339 665.179 172.895 665.179ZM173.074 664.125C173.538 664.125 173.929 664.034 174.248 663.852C174.569 663.669 174.811 663.434 174.973 663.146C175.139 662.857 175.222 662.554 175.222 662.236V661.162C175.172 661.222 175.063 661.276 174.894 661.326C174.728 661.372 174.536 661.414 174.317 661.45C174.102 661.483 173.891 661.513 173.686 661.54C173.484 661.563 173.319 661.583 173.194 661.599C172.889 661.639 172.604 661.704 172.338 661.793C172.077 661.879 171.864 662.01 171.702 662.186C171.543 662.358 171.463 662.594 171.463 662.892C171.463 663.3 171.614 663.608 171.916 663.817C172.221 664.022 172.607 664.125 173.074 664.125ZM179.71 660.406V665H178.537V657.364H179.67V658.557H179.77C179.949 658.169 180.22 657.857 180.585 657.622C180.95 657.384 181.42 657.264 181.997 657.264C182.514 657.264 182.966 657.37 183.354 657.582C183.742 657.791 184.044 658.109 184.259 658.537C184.474 658.961 184.582 659.498 184.582 660.148V665H183.409V660.227C183.409 659.627 183.253 659.16 182.942 658.825C182.63 658.487 182.202 658.318 181.659 658.318C181.284 658.318 180.95 658.399 180.655 658.562C180.363 658.724 180.133 658.961 179.964 659.273C179.795 659.584 179.71 659.962 179.71 660.406ZM192.911 665.179C192.427 665.179 191.988 665.088 191.593 664.906C191.199 664.72 190.886 664.453 190.654 664.105C190.422 663.754 190.306 663.33 190.306 662.832C190.306 662.395 190.392 662.04 190.564 661.768C190.737 661.493 190.967 661.278 191.255 661.122C191.544 660.966 191.862 660.85 192.21 660.774C192.561 660.695 192.914 660.632 193.269 660.585C193.733 660.526 194.109 660.481 194.397 660.451C194.689 660.418 194.901 660.363 195.034 660.287C195.17 660.211 195.238 660.078 195.238 659.889V659.849C195.238 659.359 195.103 658.978 194.835 658.706C194.57 658.434 194.167 658.298 193.627 658.298C193.067 658.298 192.627 658.421 192.309 658.666C191.991 658.911 191.767 659.173 191.638 659.452L190.525 659.054C190.723 658.59 190.989 658.229 191.32 657.97C191.655 657.708 192.019 657.526 192.414 657.423C192.811 657.317 193.203 657.264 193.587 657.264C193.832 657.264 194.114 657.294 194.432 657.354C194.754 657.41 195.064 657.528 195.362 657.707C195.663 657.886 195.914 658.156 196.113 658.517C196.311 658.878 196.411 659.362 196.411 659.969V665H195.238V663.966H195.178C195.098 664.132 194.966 664.309 194.78 664.498C194.595 664.687 194.348 664.848 194.039 664.98C193.731 665.113 193.355 665.179 192.911 665.179ZM193.09 664.125C193.554 664.125 193.945 664.034 194.263 663.852C194.585 663.669 194.827 663.434 194.989 663.146C195.155 662.857 195.238 662.554 195.238 662.236V661.162C195.188 661.222 195.078 661.276 194.909 661.326C194.744 661.372 194.551 661.414 194.333 661.45C194.117 661.483 193.907 661.513 193.701 661.54C193.499 661.563 193.335 661.583 193.209 661.599C192.904 661.639 192.619 661.704 192.354 661.793C192.092 661.879 191.88 662.01 191.718 662.186C191.559 662.358 191.479 662.594 191.479 662.892C191.479 663.3 191.63 663.608 191.931 663.817C192.236 664.022 192.623 664.125 193.09 664.125ZM201.655 665.159C200.939 665.159 200.322 664.99 199.805 664.652C199.288 664.314 198.89 663.848 198.612 663.255C198.334 662.662 198.194 661.984 198.194 661.222C198.194 660.446 198.337 659.762 198.622 659.168C198.91 658.572 199.311 658.106 199.825 657.771C200.342 657.433 200.945 657.264 201.635 657.264C202.172 657.264 202.656 657.364 203.086 657.562C203.517 657.761 203.87 658.04 204.145 658.398C204.421 658.756 204.591 659.173 204.657 659.651H203.484C203.395 659.303 203.196 658.994 202.888 658.726C202.583 658.454 202.172 658.318 201.655 658.318C201.197 658.318 200.796 658.437 200.452 658.676C200.11 658.911 199.843 659.245 199.651 659.675C199.462 660.103 199.368 660.605 199.368 661.182C199.368 661.772 199.461 662.286 199.646 662.723C199.835 663.161 200.1 663.5 200.442 663.742C200.786 663.984 201.191 664.105 201.655 664.105C201.96 664.105 202.236 664.052 202.485 663.946C202.733 663.84 202.944 663.688 203.116 663.489C203.289 663.29 203.411 663.051 203.484 662.773H204.657C204.591 663.223 204.427 663.629 204.165 663.991C203.907 664.349 203.564 664.634 203.136 664.846C202.712 665.055 202.218 665.159 201.655 665.159ZM209.475 665.159C208.759 665.159 208.143 664.99 207.626 664.652C207.108 664.314 206.711 663.848 206.432 663.255C206.154 662.662 206.015 661.984 206.015 661.222C206.015 660.446 206.157 659.762 206.442 659.168C206.731 658.572 207.132 658.106 207.645 657.771C208.162 657.433 208.766 657.264 209.455 657.264C209.992 657.264 210.476 657.364 210.907 657.562C211.338 657.761 211.691 658.04 211.966 658.398C212.241 658.756 212.412 659.173 212.478 659.651H211.305C211.215 659.303 211.016 658.994 210.708 658.726C210.403 658.454 209.992 658.318 209.475 658.318C209.018 658.318 208.617 658.437 208.272 658.676C207.93 658.911 207.664 659.245 207.471 659.675C207.282 660.103 207.188 660.605 207.188 661.182C207.188 661.772 207.281 662.286 207.466 662.723C207.655 663.161 207.921 663.5 208.262 663.742C208.607 663.984 209.011 664.105 209.475 664.105C209.78 664.105 210.057 664.052 210.305 663.946C210.554 663.84 210.764 663.688 210.937 663.489C211.109 663.29 211.232 663.051 211.305 662.773H212.478C212.412 663.223 212.247 663.629 211.986 663.991C211.727 664.349 211.384 664.634 210.956 664.846C210.532 665.055 210.038 665.159 209.475 665.159ZM217.295 665.159C216.606 665.159 216.001 664.995 215.481 664.667C214.964 664.339 214.559 663.88 214.268 663.29C213.979 662.7 213.835 662.01 213.835 661.222C213.835 660.426 213.979 659.732 214.268 659.138C214.559 658.545 214.964 658.085 215.481 657.756C216.001 657.428 216.606 657.264 217.295 657.264C217.985 657.264 218.588 657.428 219.105 657.756C219.625 658.085 220.03 658.545 220.318 659.138C220.61 659.732 220.756 660.426 220.756 661.222C220.756 662.01 220.61 662.7 220.318 663.29C220.03 663.88 219.625 664.339 219.105 664.667C218.588 664.995 217.985 665.159 217.295 665.159ZM217.295 664.105C217.819 664.105 218.25 663.971 218.588 663.702C218.926 663.434 219.176 663.081 219.339 662.643C219.501 662.206 219.582 661.732 219.582 661.222C219.582 660.711 219.501 660.236 219.339 659.795C219.176 659.354 218.926 658.998 218.588 658.726C218.25 658.454 217.819 658.318 217.295 658.318C216.772 658.318 216.341 658.454 216.003 658.726C215.665 658.998 215.414 659.354 215.252 659.795C215.09 660.236 215.008 660.711 215.008 661.222C215.008 661.732 215.09 662.206 215.252 662.643C215.414 663.081 215.665 663.434 216.003 663.702C216.341 663.971 216.772 664.105 217.295 664.105ZM227.359 661.878V657.364H228.532V665H227.359V663.707H227.279C227.1 664.095 226.822 664.425 226.444 664.697C226.066 664.965 225.589 665.099 225.012 665.099C224.535 665.099 224.111 664.995 223.74 664.786C223.368 664.574 223.077 664.256 222.865 663.832C222.653 663.404 222.547 662.866 222.547 662.216V657.364H223.72V662.136C223.72 662.693 223.876 663.137 224.187 663.469C224.502 663.8 224.903 663.966 225.39 663.966C225.682 663.966 225.979 663.891 226.28 663.742C226.585 663.593 226.84 663.364 227.046 663.056C227.255 662.748 227.359 662.355 227.359 661.878ZM231.855 660.406V665H230.681V657.364H231.815V658.557H231.914C232.093 658.169 232.365 657.857 232.73 657.622C233.094 657.384 233.565 657.264 234.142 657.264C234.659 657.264 235.111 657.37 235.499 657.582C235.887 657.791 236.188 658.109 236.404 658.537C236.619 658.961 236.727 659.498 236.727 660.148V665H235.553V660.227C235.553 659.627 235.398 659.16 235.086 658.825C234.775 658.487 234.347 658.318 233.803 658.318C233.429 658.318 233.094 658.399 232.799 658.562C232.508 658.724 232.277 658.961 232.108 659.273C231.939 659.584 231.855 659.962 231.855 660.406ZM242.192 657.364V658.358H238.234V657.364H242.192ZM239.388 655.534H240.561V662.812C240.561 663.144 240.609 663.393 240.705 663.558C240.805 663.721 240.931 663.83 241.083 663.886C241.239 663.939 241.403 663.966 241.575 663.966C241.705 663.966 241.811 663.959 241.893 663.946C241.976 663.929 242.043 663.916 242.092 663.906L242.331 664.96C242.251 664.99 242.14 665.02 241.998 665.05C241.855 665.083 241.675 665.099 241.456 665.099C241.125 665.099 240.8 665.028 240.482 664.886C240.167 664.743 239.905 664.526 239.696 664.234C239.491 663.943 239.388 663.575 239.388 663.131V655.534ZM245.488 662.136V662.077C245.495 661.444 245.561 660.94 245.687 660.565C245.813 660.191 245.992 659.888 246.224 659.656C246.456 659.424 246.734 659.21 247.059 659.014C247.254 658.895 247.43 658.754 247.586 658.592C247.742 658.426 247.864 658.235 247.954 658.02C248.047 657.804 248.093 657.566 248.093 657.304C248.093 656.979 248.017 656.697 247.864 656.459C247.712 656.22 247.508 656.036 247.253 655.907C246.998 655.778 246.714 655.713 246.403 655.713C246.131 655.713 245.869 655.769 245.617 655.882C245.365 655.995 245.155 656.172 244.986 656.414C244.817 656.656 244.719 656.973 244.692 657.364H243.44C243.466 656.8 243.612 656.318 243.877 655.917C244.146 655.516 244.499 655.209 244.936 654.997C245.377 654.785 245.866 654.679 246.403 654.679C246.986 654.679 247.493 654.795 247.924 655.027C248.358 655.259 248.693 655.577 248.928 655.982C249.167 656.386 249.286 656.847 249.286 657.364C249.286 657.728 249.23 658.058 249.117 658.353C249.008 658.648 248.849 658.911 248.64 659.143C248.434 659.375 248.186 659.581 247.894 659.76C247.603 659.942 247.369 660.134 247.193 660.337C247.018 660.536 246.89 660.772 246.81 661.048C246.731 661.323 246.688 661.666 246.681 662.077V662.136H245.488ZM246.124 665.08C245.879 665.08 245.669 664.992 245.493 664.816C245.317 664.64 245.229 664.43 245.229 664.185C245.229 663.939 245.317 663.729 245.493 663.553C245.669 663.378 245.879 663.29 246.124 663.29C246.37 663.29 246.58 663.378 246.756 663.553C246.931 663.729 247.019 663.939 247.019 664.185C247.019 664.347 246.978 664.496 246.895 664.632C246.815 664.768 246.708 664.877 246.572 664.96C246.439 665.04 246.29 665.08 246.124 665.08ZM260.717 657.364C260.657 656.86 260.416 656.469 259.991 656.19C259.567 655.912 259.047 655.773 258.43 655.773C257.979 655.773 257.585 655.846 257.247 655.991C256.912 656.137 256.65 656.338 256.461 656.593C256.276 656.848 256.183 657.138 256.183 657.463C256.183 657.735 256.248 657.969 256.377 658.164C256.51 658.356 256.679 658.517 256.884 658.646C257.09 658.772 257.305 658.877 257.53 658.96C257.756 659.039 257.963 659.104 258.152 659.153L259.186 659.432C259.451 659.501 259.746 659.598 260.071 659.72C260.399 659.843 260.712 660.01 261.01 660.222C261.312 660.431 261.561 660.7 261.756 661.028C261.952 661.356 262.05 661.759 262.05 662.236C262.05 662.786 261.905 663.283 261.617 663.727C261.332 664.171 260.914 664.524 260.364 664.786C259.817 665.048 259.153 665.179 258.371 665.179C257.641 665.179 257.01 665.061 256.476 664.826C255.946 664.591 255.528 664.263 255.224 663.842C254.922 663.421 254.751 662.932 254.711 662.375H255.984C256.017 662.759 256.147 663.078 256.372 663.33C256.601 663.578 256.889 663.764 257.237 663.886C257.588 664.006 257.966 664.065 258.371 664.065C258.841 664.065 259.264 663.989 259.638 663.837C260.013 663.681 260.309 663.465 260.528 663.19C260.747 662.912 260.856 662.587 260.856 662.216C260.856 661.878 260.762 661.603 260.573 661.391C260.384 661.179 260.135 661.006 259.827 660.874C259.519 660.741 259.186 660.625 258.828 660.526L257.575 660.168C256.78 659.939 256.15 659.612 255.686 659.188C255.222 658.764 254.99 658.209 254.99 657.523C254.99 656.953 255.144 656.455 255.452 656.031C255.764 655.604 256.181 655.272 256.705 655.037C257.232 654.798 257.82 654.679 258.47 654.679C259.126 654.679 259.71 654.797 260.22 655.032C260.73 655.264 261.135 655.582 261.433 655.987C261.735 656.391 261.894 656.85 261.91 657.364H260.717ZM263.918 665V657.364H265.091V665H263.918ZM264.514 656.091C264.286 656.091 264.088 656.013 263.923 655.857C263.76 655.701 263.679 655.514 263.679 655.295C263.679 655.077 263.76 654.889 263.923 654.734C264.088 654.578 264.286 654.5 264.514 654.5C264.743 654.5 264.938 654.578 265.101 654.734C265.267 654.889 265.349 655.077 265.349 655.295C265.349 655.514 265.267 655.701 265.101 655.857C264.938 656.013 264.743 656.091 264.514 656.091ZM270.322 668.023C269.756 668.023 269.268 667.95 268.861 667.804C268.453 667.661 268.113 667.473 267.841 667.237C267.573 667.005 267.359 666.757 267.2 666.491L268.135 665.835C268.241 665.974 268.375 666.134 268.537 666.312C268.7 666.495 268.922 666.652 269.204 666.785C269.489 666.921 269.862 666.989 270.322 666.989C270.939 666.989 271.448 666.839 271.849 666.541C272.25 666.243 272.45 665.776 272.45 665.139V663.588H272.351C272.265 663.727 272.142 663.9 271.983 664.105C271.827 664.307 271.602 664.488 271.307 664.647C271.015 664.803 270.621 664.881 270.123 664.881C269.507 664.881 268.953 664.735 268.463 664.443C267.976 664.152 267.59 663.727 267.305 663.17C267.023 662.614 266.882 661.937 266.882 661.142C266.882 660.36 267.019 659.679 267.295 659.099C267.57 658.515 267.952 658.065 268.443 657.746C268.934 657.425 269.5 657.264 270.143 657.264C270.64 657.264 271.035 657.347 271.327 657.513C271.622 657.675 271.847 657.861 272.003 658.07C272.162 658.275 272.284 658.444 272.371 658.577H272.49V657.364H273.623V665.219C273.623 665.875 273.474 666.409 273.176 666.82C272.881 667.234 272.483 667.537 271.983 667.729C271.486 667.925 270.932 668.023 270.322 668.023ZM270.282 663.827C270.753 663.827 271.151 663.719 271.476 663.504C271.8 663.288 272.047 662.978 272.216 662.574C272.385 662.17 272.47 661.686 272.47 661.122C272.47 660.572 272.387 660.086 272.221 659.665C272.056 659.245 271.81 658.915 271.486 658.676C271.161 658.437 270.76 658.318 270.282 658.318C269.785 658.318 269.371 658.444 269.04 658.696C268.711 658.948 268.465 659.286 268.299 659.71C268.136 660.134 268.055 660.605 268.055 661.122C268.055 661.652 268.138 662.121 268.304 662.529C268.473 662.933 268.721 663.252 269.05 663.484C269.381 663.712 269.792 663.827 270.282 663.827ZM276.944 660.406V665H275.771V657.364H276.905V658.557H277.004C277.183 658.169 277.455 657.857 277.819 657.622C278.184 657.384 278.655 657.264 279.231 657.264C279.748 657.264 280.201 657.37 280.589 657.582C280.976 657.791 281.278 658.109 281.493 658.537C281.709 658.961 281.817 659.498 281.817 660.148V665H280.643V660.227C280.643 659.627 280.488 659.16 280.176 658.825C279.864 658.487 279.437 658.318 278.893 658.318C278.519 658.318 278.184 658.399 277.889 658.562C277.597 658.724 277.367 658.961 277.198 659.273C277.029 659.584 276.944 659.962 276.944 660.406ZM287.898 665V657.364H289.071V665H287.898ZM288.495 656.091C288.266 656.091 288.069 656.013 287.903 655.857C287.741 655.701 287.659 655.514 287.659 655.295C287.659 655.077 287.741 654.889 287.903 654.734C288.069 654.578 288.266 654.5 288.495 654.5C288.723 654.5 288.919 654.578 289.081 654.734C289.247 654.889 289.33 655.077 289.33 655.295C289.33 655.514 289.247 655.701 289.081 655.857C288.919 656.013 288.723 656.091 288.495 656.091ZM292.394 660.406V665H291.22V657.364H292.354V658.557H292.453C292.632 658.169 292.904 657.857 293.269 657.622C293.633 657.384 294.104 657.264 294.681 657.264C295.198 657.264 295.65 657.37 296.038 657.582C296.426 657.791 296.727 658.109 296.943 658.537C297.158 658.961 297.266 659.498 297.266 660.148V665H296.093V660.227C296.093 659.627 295.937 659.16 295.625 658.825C295.314 658.487 294.886 658.318 294.343 658.318C293.968 658.318 293.633 658.399 293.338 658.562C293.047 658.724 292.816 658.961 292.647 659.273C292.478 659.584 292.394 659.962 292.394 660.406Z" fill="black"/>
<path d="M253.916 667.784H267.85V668.739H253.916V667.784ZM272.79 667.784H298.34V668.739H272.79V667.784Z" fill="black"/>
<path d="M50.7614 376V361.455H55.6761C56.8172 361.455 57.75 361.661 58.4744 362.072C59.2036 362.48 59.7434 363.031 60.0938 363.727C60.4441 364.423 60.6193 365.2 60.6193 366.057C60.6193 366.914 60.4441 367.693 60.0938 368.393C59.7481 369.094 59.2131 369.653 58.4886 370.07C57.7642 370.482 56.8362 370.688 55.7045 370.688H52.1818V369.125H55.6477C56.429 369.125 57.0563 368.99 57.5298 368.72C58.0033 368.45 58.3466 368.086 58.5597 367.626C58.7775 367.162 58.8864 366.639 58.8864 366.057C58.8864 365.474 58.7775 364.954 58.5597 364.494C58.3466 364.035 58.0009 363.675 57.5227 363.415C57.0445 363.15 56.41 363.017 55.6193 363.017H52.5227V376H50.7614ZM66.4396 376.256C65.7483 376.256 65.121 376.125 64.5575 375.865C63.9941 375.6 63.5466 375.219 63.2152 374.722C62.8838 374.22 62.718 373.614 62.718 372.903C62.718 372.278 62.8411 371.772 63.0874 371.384C63.3336 370.991 63.6626 370.683 64.0746 370.46C64.4865 370.238 64.9411 370.072 65.4382 369.963C65.9401 369.849 66.4444 369.759 66.951 369.693C67.6139 369.608 68.1513 369.544 68.5632 369.501C68.9799 369.454 69.2829 369.376 69.4723 369.267C69.6664 369.158 69.7635 368.969 69.7635 368.699V368.642C69.7635 367.941 69.5717 367.397 69.1882 367.009C68.8094 366.62 68.2341 366.426 67.4624 366.426C66.6622 366.426 66.0348 366.601 65.5803 366.952C65.1257 367.302 64.8061 367.676 64.6214 368.074L63.0305 367.506C63.3146 366.843 63.6934 366.327 64.1669 365.957C64.6451 365.583 65.166 365.323 65.7294 365.176C66.2976 365.025 66.8563 364.949 67.4055 364.949C67.7559 364.949 68.1584 364.991 68.6129 365.077C69.0722 365.157 69.5149 365.325 69.9411 365.581C70.3719 365.837 70.7294 366.223 71.0135 366.739C71.2976 367.255 71.4396 367.946 71.4396 368.812V376H69.7635V374.523H69.6783C69.5646 374.759 69.3752 375.013 69.1101 375.283C68.8449 375.553 68.4922 375.782 68.0518 375.972C67.6115 376.161 67.0741 376.256 66.4396 376.256ZM66.6953 374.75C67.3582 374.75 67.9169 374.62 68.3714 374.359C68.8307 374.099 69.1764 373.763 69.4084 373.351C69.6451 372.939 69.7635 372.506 69.7635 372.051V370.517C69.6925 370.602 69.5362 370.68 69.2947 370.751C69.058 370.818 68.7834 370.877 68.4709 370.929C68.1631 370.976 67.8625 371.019 67.5689 371.057C67.2801 371.09 67.0457 371.118 66.8658 371.142C66.4302 371.199 66.023 371.291 65.6442 371.419C65.2701 371.542 64.9671 371.729 64.7351 371.98C64.5078 372.226 64.3942 372.562 64.3942 372.989C64.3942 373.571 64.6096 374.011 65.0405 374.31C65.4761 374.603 66.0277 374.75 66.6953 374.75ZM82.2262 367.534L80.7205 367.96C80.6258 367.709 80.4862 367.465 80.3015 367.229C80.1216 366.987 79.8754 366.788 79.5629 366.632C79.2504 366.476 78.8503 366.398 78.3626 366.398C77.695 366.398 77.1386 366.552 76.6935 366.859C76.2532 367.162 76.033 367.548 76.033 368.017C76.033 368.434 76.1845 368.763 76.4876 369.004C76.7906 369.246 77.2641 369.447 77.908 369.608L79.5273 370.006C80.5027 370.242 81.2295 370.605 81.7077 371.092C82.186 371.575 82.4251 372.198 82.4251 372.96C82.4251 373.585 82.2451 374.144 81.8853 374.636C81.5302 375.129 81.033 375.517 80.3938 375.801C79.7546 376.085 79.0112 376.227 78.1637 376.227C77.051 376.227 76.1301 375.986 75.4009 375.503C74.6718 375.02 74.2101 374.314 74.016 373.386L75.6069 372.989C75.7584 373.576 76.0449 374.016 76.4663 374.31C76.8924 374.603 77.4487 374.75 78.1353 374.75C78.9165 374.75 79.5368 374.584 79.9961 374.253C80.4601 373.917 80.6921 373.514 80.6921 373.045C80.6921 372.667 80.5595 372.349 80.2944 372.094C80.0292 371.833 79.622 371.639 79.0728 371.511L77.2546 371.085C76.2556 370.848 75.5217 370.482 75.0529 369.984C74.5889 369.482 74.3569 368.855 74.3569 368.102C74.3569 367.487 74.5297 366.942 74.8754 366.469C75.2257 365.995 75.7016 365.624 76.3029 365.354C76.909 365.084 77.5955 364.949 78.3626 364.949C79.4421 364.949 80.2897 365.186 80.9052 365.659C81.5254 366.133 81.9658 366.758 82.2262 367.534ZM92.6754 367.534L91.1697 367.96C91.075 367.709 90.9354 367.465 90.7507 367.229C90.5708 366.987 90.3246 366.788 90.0121 366.632C89.6996 366.476 89.2995 366.398 88.8118 366.398C88.1442 366.398 87.5878 366.552 87.1428 366.859C86.7024 367.162 86.4822 367.548 86.4822 368.017C86.4822 368.434 86.6338 368.763 86.9368 369.004C87.2398 369.246 87.7133 369.447 88.3572 369.608L89.9766 370.006C90.9519 370.242 91.6787 370.605 92.157 371.092C92.6352 371.575 92.8743 372.198 92.8743 372.96C92.8743 373.585 92.6944 374.144 92.3345 374.636C91.9794 375.129 91.4822 375.517 90.843 375.801C90.2038 376.085 89.4605 376.227 88.6129 376.227C87.5002 376.227 86.5793 375.986 85.8501 375.503C85.121 375.02 84.6593 374.314 84.4652 373.386L86.0561 372.989C86.2076 373.576 86.4941 374.016 86.9155 374.31C87.3416 374.603 87.898 374.75 88.5845 374.75C89.3658 374.75 89.986 374.584 90.4453 374.253C90.9093 373.917 91.1413 373.514 91.1413 373.045C91.1413 372.667 91.0088 372.349 90.7436 372.094C90.4785 371.833 90.0713 371.639 89.522 371.511L87.7038 371.085C86.7048 370.848 85.9709 370.482 85.5021 369.984C85.0381 369.482 84.8061 368.855 84.8061 368.102C84.8061 367.487 84.9789 366.942 85.3246 366.469C85.675 365.995 86.1508 365.624 86.7521 365.354C87.3582 365.084 88.0447 364.949 88.8118 364.949C89.8913 364.949 90.7389 365.186 91.3544 365.659C91.9747 366.133 92.415 366.758 92.6754 367.534ZM97.869 376L94.5451 365.091H96.3065L98.6644 373.443H98.7781L101.108 365.091H102.897L105.199 373.415H105.312L107.67 365.091H109.431L106.108 376H104.46L102.074 367.619H101.903L99.5167 376H97.869ZM115.708 376.227C114.723 376.227 113.859 375.993 113.116 375.524C112.377 375.055 111.799 374.4 111.383 373.557C110.971 372.714 110.765 371.729 110.765 370.602C110.765 369.466 110.971 368.474 111.383 367.626C111.799 366.779 112.377 366.121 113.116 365.652C113.859 365.183 114.723 364.949 115.708 364.949C116.693 364.949 117.555 365.183 118.293 365.652C119.037 366.121 119.614 366.779 120.026 367.626C120.443 368.474 120.651 369.466 120.651 370.602C120.651 371.729 120.443 372.714 120.026 373.557C119.614 374.4 119.037 375.055 118.293 375.524C117.555 375.993 116.693 376.227 115.708 376.227ZM115.708 374.722C116.456 374.722 117.072 374.53 117.555 374.146C118.038 373.763 118.395 373.259 118.627 372.634C118.859 372.009 118.975 371.331 118.975 370.602C118.975 369.873 118.859 369.194 118.627 368.564C118.395 367.934 118.038 367.425 117.555 367.037C117.072 366.649 116.456 366.455 115.708 366.455C114.96 366.455 114.344 366.649 113.862 367.037C113.379 367.425 113.021 367.934 112.789 368.564C112.557 369.194 112.441 369.873 112.441 370.602C112.441 371.331 112.557 372.009 112.789 372.634C113.021 373.259 113.379 373.763 113.862 374.146C114.344 374.53 114.96 374.722 115.708 374.722ZM123.21 376V365.091H124.829V366.739H124.943C125.142 366.199 125.502 365.761 126.022 365.425C126.543 365.089 127.13 364.92 127.784 364.92C127.907 364.92 128.061 364.923 128.245 364.928C128.43 364.932 128.57 364.939 128.664 364.949V366.653C128.608 366.639 128.477 366.618 128.274 366.589C128.075 366.556 127.864 366.54 127.642 366.54C127.111 366.54 126.638 366.651 126.221 366.874C125.809 367.091 125.483 367.394 125.241 367.783C125.004 368.166 124.886 368.604 124.886 369.097V376H123.21ZM134.439 376.227C133.529 376.227 132.727 375.998 132.031 375.538C131.335 375.074 130.79 374.421 130.397 373.578C130.004 372.731 129.808 371.729 129.808 370.574C129.808 369.428 130.004 368.434 130.397 367.591C130.79 366.748 131.337 366.097 132.038 365.638C132.739 365.179 133.548 364.949 134.467 364.949C135.177 364.949 135.738 365.067 136.15 365.304C136.567 365.536 136.884 365.801 137.102 366.099C137.324 366.393 137.497 366.634 137.62 366.824H137.762V361.455H139.439V376H137.819V374.324H137.62C137.497 374.523 137.322 374.774 137.095 375.077C136.868 375.375 136.543 375.643 136.122 375.879C135.7 376.111 135.139 376.227 134.439 376.227ZM134.666 374.722C135.338 374.722 135.906 374.546 136.37 374.196C136.834 373.841 137.187 373.351 137.429 372.726C137.67 372.096 137.791 371.369 137.791 370.545C137.791 369.731 137.672 369.018 137.436 368.408C137.199 367.792 136.849 367.314 136.385 366.973C135.921 366.627 135.348 366.455 134.666 366.455C133.956 366.455 133.364 366.637 132.89 367.001C132.422 367.361 132.069 367.851 131.832 368.472C131.6 369.087 131.484 369.778 131.484 370.545C131.484 371.322 131.602 372.027 131.839 372.662C132.081 373.292 132.436 373.794 132.904 374.168C133.378 374.537 133.965 374.722 134.666 374.722Z" fill="black"/>
<g filter="url(#filter0_d_8_23)">
<rect x="99" y="469" width="200" height="40" rx="20" fill="black"/>
<path d="M170.041 496V481.455H171.802V494.438H178.563V496H170.041ZM185.495 496.227C184.51 496.227 183.646 495.993 182.903 495.524C182.164 495.055 181.587 494.4 181.17 493.557C180.758 492.714 180.552 491.729 180.552 490.602C180.552 489.466 180.758 488.474 181.17 487.626C181.587 486.779 182.164 486.121 182.903 485.652C183.646 485.183 184.51 484.949 185.495 484.949C186.48 484.949 187.342 485.183 188.08 485.652C188.824 486.121 189.401 486.779 189.813 487.626C190.23 488.474 190.438 489.466 190.438 490.602C190.438 491.729 190.23 492.714 189.813 493.557C189.401 494.4 188.824 495.055 188.08 495.524C187.342 495.993 186.48 496.227 185.495 496.227ZM185.495 494.722C186.243 494.722 186.859 494.53 187.342 494.146C187.825 493.763 188.182 493.259 188.414 492.634C188.646 492.009 188.762 491.331 188.762 490.602C188.762 489.873 188.646 489.194 188.414 488.564C188.182 487.934 187.825 487.425 187.342 487.037C186.859 486.649 186.243 486.455 185.495 486.455C184.747 486.455 184.132 486.649 183.649 487.037C183.166 487.425 182.808 487.934 182.576 488.564C182.344 489.194 182.228 489.873 182.228 490.602C182.228 491.331 182.344 492.009 182.576 492.634C182.808 493.259 183.166 493.763 183.649 494.146C184.132 494.53 184.747 494.722 185.495 494.722ZM197.4 500.318C196.591 500.318 195.895 500.214 195.312 500.006C194.73 499.802 194.245 499.532 193.856 499.196C193.473 498.865 193.167 498.509 192.94 498.131L194.275 497.193C194.427 497.392 194.619 497.619 194.851 497.875C195.083 498.135 195.4 498.36 195.802 498.55C196.21 498.744 196.742 498.841 197.4 498.841C198.281 498.841 199.008 498.628 199.581 498.202C200.154 497.776 200.44 497.108 200.44 496.199V493.983H200.298C200.175 494.182 200 494.428 199.773 494.722C199.55 495.01 199.228 495.268 198.807 495.496C198.39 495.718 197.827 495.83 197.116 495.83C196.236 495.83 195.445 495.621 194.744 495.205C194.048 494.788 193.497 494.182 193.089 493.386C192.687 492.591 192.486 491.625 192.486 490.489C192.486 489.371 192.682 488.398 193.075 487.57C193.468 486.736 194.015 486.092 194.716 485.638C195.416 485.179 196.226 484.949 197.145 484.949C197.855 484.949 198.418 485.067 198.835 485.304C199.256 485.536 199.578 485.801 199.801 486.099C200.028 486.393 200.203 486.634 200.327 486.824H200.497V485.091H202.116V496.312C202.116 497.25 201.903 498.012 201.477 498.599C201.056 499.191 200.488 499.625 199.773 499.899C199.062 500.179 198.272 500.318 197.4 500.318ZM197.344 494.324C198.016 494.324 198.584 494.17 199.048 493.862C199.512 493.554 199.865 493.112 200.106 492.534C200.348 491.956 200.469 491.265 200.469 490.46C200.469 489.674 200.35 488.981 200.113 488.379C199.877 487.778 199.526 487.307 199.062 486.966C198.598 486.625 198.025 486.455 197.344 486.455C196.633 486.455 196.041 486.634 195.568 486.994C195.099 487.354 194.747 487.837 194.51 488.443C194.278 489.049 194.162 489.722 194.162 490.46C194.162 491.218 194.28 491.888 194.517 492.47C194.758 493.048 195.113 493.502 195.582 493.834C196.056 494.161 196.643 494.324 197.344 494.324ZM210.809 496V485.091H212.486V496H210.809ZM211.662 483.273C211.335 483.273 211.053 483.161 210.817 482.939C210.585 482.716 210.469 482.449 210.469 482.136C210.469 481.824 210.585 481.556 210.817 481.334C211.053 481.111 211.335 481 211.662 481C211.988 481 212.268 481.111 212.5 481.334C212.737 481.556 212.855 481.824 212.855 482.136C212.855 482.449 212.737 482.716 212.5 482.939C212.268 483.161 211.988 483.273 211.662 483.273ZM217.232 489.438V496H215.556V485.091H217.175V486.795H217.317C217.573 486.241 217.961 485.796 218.482 485.46C219.003 485.119 219.675 484.949 220.499 484.949C221.237 484.949 221.884 485.1 222.438 485.403C222.992 485.702 223.423 486.156 223.73 486.767C224.038 487.373 224.192 488.14 224.192 489.068V496H222.516V489.182C222.516 488.325 222.293 487.657 221.848 487.179C221.403 486.696 220.792 486.455 220.016 486.455C219.481 486.455 219.003 486.571 218.581 486.803C218.164 487.035 217.835 487.373 217.594 487.818C217.352 488.263 217.232 488.803 217.232 489.438Z" fill="white"/>
</g>
<g filter="url(#filter1_d_8_23)">
<rect x="97" y="596" width="200" height="40" rx="20" fill="white"/>
<rect x="97.5" y="596.5" width="199" height="39" rx="19.5" stroke="black"/>
</g>
<path d="M179.906 614.141C179.817 613.83 179.691 613.555 179.529 613.316C179.367 613.073 179.169 612.869 178.934 612.702C178.704 612.532 178.44 612.402 178.142 612.312C177.848 612.223 177.522 612.178 177.164 612.178C176.495 612.178 175.907 612.344 175.4 612.677C174.897 613.009 174.505 613.493 174.224 614.128C173.942 614.759 173.802 615.53 173.802 616.442C173.802 617.354 173.94 618.129 174.217 618.768C174.494 619.408 174.886 619.896 175.393 620.232C175.9 620.565 176.499 620.731 177.189 620.731C177.816 620.731 178.351 620.62 178.794 620.398C179.241 620.173 179.582 619.855 179.817 619.446C180.055 619.037 180.175 618.553 180.175 617.995L180.737 618.078H177.362V615.994H182.84V617.643C182.84 618.794 182.597 619.783 182.111 620.609C181.626 621.432 180.956 622.067 180.104 622.514C179.252 622.957 178.276 623.179 177.177 623.179C175.949 623.179 174.871 622.908 173.942 622.367C173.013 621.822 172.289 621.048 171.769 620.047C171.253 619.041 170.996 617.848 170.996 616.467C170.996 615.406 171.149 614.46 171.456 613.629C171.767 612.794 172.202 612.087 172.76 611.507C173.318 610.928 173.968 610.487 174.709 610.184C175.451 609.881 176.254 609.73 177.119 609.73C177.861 609.73 178.551 609.839 179.19 610.056C179.829 610.269 180.396 610.572 180.89 610.964C181.389 611.356 181.796 611.822 182.111 612.364C182.427 612.901 182.629 613.493 182.719 614.141H179.906ZM189.304 623.192C188.311 623.192 187.452 622.981 186.728 622.559C186.008 622.133 185.452 621.54 185.06 620.782C184.668 620.019 184.472 619.135 184.472 618.129C184.472 617.115 184.668 616.229 185.06 615.47C185.452 614.707 186.008 614.115 186.728 613.693C187.452 613.267 188.311 613.054 189.304 613.054C190.297 613.054 191.153 613.267 191.874 613.693C192.598 614.115 193.156 614.707 193.548 615.47C193.94 616.229 194.136 617.115 194.136 618.129C194.136 619.135 193.94 620.019 193.548 620.782C193.156 621.54 192.598 622.133 191.874 622.559C191.153 622.981 190.297 623.192 189.304 623.192ZM189.317 621.082C189.768 621.082 190.146 620.955 190.448 620.699C190.751 620.439 190.979 620.085 191.132 619.638C191.29 619.19 191.369 618.681 191.369 618.11C191.369 617.539 191.29 617.03 191.132 616.582C190.979 616.135 190.751 615.781 190.448 615.521C190.146 615.261 189.768 615.131 189.317 615.131C188.861 615.131 188.477 615.261 188.166 615.521C187.859 615.781 187.627 616.135 187.469 616.582C187.316 617.03 187.239 617.539 187.239 618.11C187.239 618.681 187.316 619.19 187.469 619.638C187.627 620.085 187.859 620.439 188.166 620.699C188.477 620.955 188.861 621.082 189.317 621.082ZM200.343 623.192C199.35 623.192 198.491 622.981 197.767 622.559C197.047 622.133 196.491 621.54 196.099 620.782C195.707 620.019 195.511 619.135 195.511 618.129C195.511 617.115 195.707 616.229 196.099 615.47C196.491 614.707 197.047 614.115 197.767 613.693C198.491 613.267 199.35 613.054 200.343 613.054C201.336 613.054 202.192 613.267 202.913 613.693C203.637 614.115 204.195 614.707 204.587 615.47C204.979 616.229 205.175 617.115 205.175 618.129C205.175 619.135 204.979 620.019 204.587 620.782C204.195 621.54 203.637 622.133 202.913 622.559C202.192 622.981 201.336 623.192 200.343 623.192ZM200.356 621.082C200.808 621.082 201.185 620.955 201.487 620.699C201.79 620.439 202.018 620.085 202.171 619.638C202.329 619.19 202.408 618.681 202.408 618.11C202.408 617.539 202.329 617.03 202.171 616.582C202.018 616.135 201.79 615.781 201.487 615.521C201.185 615.261 200.808 615.131 200.356 615.131C199.9 615.131 199.516 615.261 199.205 615.521C198.898 615.781 198.666 616.135 198.509 616.582C198.355 617.03 198.278 617.539 198.278 618.11C198.278 618.681 198.355 619.19 198.509 619.638C198.666 620.085 198.898 620.439 199.205 620.699C199.516 620.955 199.9 621.082 200.356 621.082ZM211.369 626.886C210.487 626.886 209.731 626.765 209.1 626.522C208.474 626.283 207.975 625.957 207.604 625.544C207.234 625.131 206.993 624.666 206.882 624.151L209.401 623.812C209.477 624.008 209.599 624.191 209.765 624.362C209.931 624.532 210.151 624.668 210.423 624.771C210.7 624.877 211.037 624.93 211.433 624.93C212.026 624.93 212.513 624.786 212.897 624.496C213.285 624.21 213.479 623.731 213.479 623.058V621.261H213.364C213.244 621.534 213.065 621.792 212.827 622.035C212.588 622.278 212.281 622.476 211.906 622.629C211.531 622.783 211.084 622.859 210.564 622.859C209.827 622.859 209.156 622.689 208.55 622.348C207.95 622.003 207.47 621.477 207.112 620.769C206.759 620.058 206.582 619.158 206.582 618.072C206.582 616.96 206.763 616.031 207.125 615.285C207.487 614.539 207.969 613.981 208.57 613.61C209.175 613.239 209.837 613.054 210.558 613.054C211.107 613.054 211.567 613.148 211.938 613.335C212.309 613.518 212.607 613.749 212.833 614.026C213.063 614.298 213.24 614.567 213.364 614.831H213.466V613.182H216.17V623.096C216.17 623.931 215.965 624.63 215.556 625.192C215.147 625.755 214.58 626.177 213.856 626.458C213.136 626.744 212.307 626.886 211.369 626.886ZM211.427 620.814C211.866 620.814 212.237 620.705 212.539 620.488C212.846 620.266 213.08 619.951 213.242 619.542C213.408 619.129 213.491 618.634 213.491 618.059C213.491 617.484 213.411 616.985 213.249 616.563C213.087 616.137 212.852 615.807 212.545 615.572C212.239 615.338 211.866 615.221 211.427 615.221C210.979 615.221 210.602 615.342 210.295 615.585C209.989 615.824 209.756 616.156 209.599 616.582C209.441 617.009 209.362 617.501 209.362 618.059C209.362 618.626 209.441 619.116 209.599 619.529C209.761 619.938 209.993 620.256 210.295 620.482C210.602 620.703 210.979 620.814 211.427 620.814ZM221.06 609.909V623H218.337V609.909H221.06ZM227.715 623.192C226.705 623.192 225.836 622.987 225.107 622.578C224.383 622.165 223.825 621.581 223.433 620.827C223.041 620.068 222.845 619.171 222.845 618.136C222.845 617.126 223.041 616.239 223.433 615.477C223.825 614.714 224.377 614.119 225.088 613.693C225.804 613.267 226.644 613.054 227.607 613.054C228.254 613.054 228.857 613.158 229.416 613.367C229.978 613.572 230.468 613.881 230.886 614.294C231.308 614.707 231.636 615.227 231.87 615.854C232.105 616.476 232.222 617.205 232.222 618.04V618.788H223.931V617.1H229.659C229.659 616.708 229.573 616.361 229.403 616.058C229.232 615.756 228.996 615.519 228.693 615.349C228.395 615.174 228.048 615.087 227.651 615.087C227.238 615.087 226.872 615.183 226.552 615.374C226.237 615.562 225.99 615.815 225.811 616.135C225.632 616.45 225.54 616.802 225.536 617.19V618.794C225.536 619.28 225.625 619.7 225.804 620.053C225.987 620.407 226.245 620.68 226.578 620.871C226.91 621.063 227.304 621.159 227.76 621.159C228.063 621.159 228.34 621.116 228.591 621.031C228.843 620.946 229.058 620.818 229.237 620.648C229.416 620.477 229.552 620.268 229.646 620.021L232.164 620.188C232.036 620.793 231.774 621.321 231.378 621.773C230.986 622.22 230.479 622.57 229.857 622.821C229.239 623.068 228.525 623.192 227.715 623.192Z" fill="black"/>
<path d="M142.709 603.822C140.211 604.689 138.057 606.334 136.563 608.515C135.069 610.696 134.314 613.299 134.408 615.941C134.503 618.584 135.442 621.126 137.089 623.195C138.735 625.264 141.001 626.75 143.555 627.436C145.625 627.97 147.794 627.993 149.875 627.504C151.76 627.08 153.503 626.175 154.934 624.875C156.422 623.481 157.502 621.708 158.059 619.746C158.663 617.613 158.771 615.369 158.373 613.187H146.748V618.01H153.48C153.346 618.779 153.058 619.513 152.633 620.168C152.208 620.823 151.655 621.386 151.008 621.822C150.186 622.366 149.259 622.732 148.287 622.896C147.312 623.078 146.313 623.078 145.338 622.896C144.35 622.692 143.415 622.284 142.594 621.699C141.274 620.765 140.283 619.437 139.762 617.906C139.232 616.346 139.232 614.655 139.762 613.096C140.132 612.002 140.745 611.007 141.555 610.184C142.481 609.224 143.653 608.538 144.944 608.201C146.234 607.864 147.592 607.889 148.869 608.273C149.867 608.58 150.779 609.115 151.533 609.836C152.292 609.081 153.05 608.324 153.807 607.564C154.197 607.156 154.623 606.768 155.008 606.35C153.857 605.278 152.505 604.445 151.031 603.896C148.347 602.922 145.41 602.896 142.709 603.822Z" fill="white"/>
<path d="M142.709 603.822C145.41 602.895 148.347 602.921 151.031 603.895C152.505 604.446 153.856 605.284 155.006 606.359C154.615 606.777 154.203 607.168 153.805 607.574C153.047 608.331 152.29 609.085 151.533 609.836C150.779 609.115 149.867 608.58 148.869 608.273C147.593 607.888 146.234 607.862 144.944 608.197C143.653 608.533 142.48 609.217 141.553 610.176C140.743 610.999 140.131 611.995 139.76 613.088L135.711 609.953C137.16 607.079 139.669 604.881 142.709 603.822Z" fill="#E33629"/>
<path d="M134.637 613.059C134.854 611.98 135.216 610.936 135.711 609.953L139.76 613.096C139.23 614.655 139.23 616.346 139.76 617.906C138.411 618.948 137.061 619.995 135.711 621.047C134.471 618.579 134.093 615.767 134.637 613.059Z" fill="#F8BD00"/>
<path d="M146.748 613.186H158.373C158.771 615.367 158.663 617.611 158.059 619.744C157.502 621.706 156.422 623.479 154.934 624.873C153.627 623.854 152.314 622.842 151.008 621.822C151.656 621.385 152.209 620.822 152.633 620.166C153.058 619.51 153.346 618.776 153.48 618.006H146.748C146.746 616.4 146.748 614.793 146.748 613.186Z" fill="#587DBD"/>
<path d="M135.709 621.047C137.059 620.005 138.409 618.958 139.758 617.906C140.28 619.438 141.272 620.765 142.594 621.699C143.418 622.282 144.355 622.686 145.344 622.887C146.318 623.068 147.318 623.068 148.293 622.887C149.265 622.722 150.192 622.356 151.014 621.812C152.32 622.832 153.633 623.844 154.939 624.863C153.51 626.164 151.766 627.07 149.881 627.494C147.8 627.983 145.631 627.96 143.561 627.426C141.923 626.989 140.394 626.218 139.068 625.162C137.665 624.048 136.519 622.644 135.709 621.047Z" fill="#319F43"/>
</g>
<defs>
<filter id="filter0_d_8_23" x="95" y="469" width="208" height="48" filterUnits="userSpaceOnUse" color-interpolation-filters="sRGB">
<feFlood flood-opacity="0" result="BackgroundImageFix"/>
<feColorMatrix in="SourceAlpha" type="matrix" values="0 0 0 0 0 0 0 0 0 0 0 0 0 0 0 0 0 0 127 0" result="hardAlpha"/>
<feOffset dy="4"/>
<feGaussianBlur stdDeviation="2"/>
<feComposite in2="hardAlpha" operator="out"/>
<feColorMatrix type="matrix" values="0 0 0 0 0 0 0 0 0 0 0 0 0 0 0 0 0 0 0.25 0"/>
<feBlend mode="normal" in2="BackgroundImageFix" result="effect1_dropShadow_8_23"/>
<feBlend mode="normal" in="SourceGraphic" in2="effect1_dropShadow_8_23" result="shape"/>
</filter>
<filter id="filter1_d_8_23" x="93" y="596" width="208" height="48" filterUnits="userSpaceOnUse" color-interpolation-filters="sRGB">
<feFlood flood-opacity="0" result="BackgroundImageFix"/>
<feColorMatrix in="SourceAlpha" type="matrix" values="0 0 0 0 0 0 0 0 0 0 0 0 0 0 0 0 0 0 127 0" result="hardAlpha"/>
<feOffset dy="4"/>
<feGaussianBlur stdDeviation="2"/>
<feComposite in2="hardAlpha" operator="out"/>
<feColorMatrix type="matrix" values="0 0 0 0 0 0 0 0 0 0 0 0 0 0 0 0 0 0 0.25 0"/>
<feBlend mode="normal" in2="BackgroundImageFix" result="effect1_dropShadow_8_23"/>
<feBlend mode="normal" in="SourceGraphic" in2="effect1_dropShadow_8_23" result="shape"/>
</filter>
<linearGradient id="paint0_linear_8_23" x1="47" y1="317" x2="347" y2="317" gradientUnits="userSpaceOnUse">
<stop stop-color="#1E40AF"/>
<stop offset="0.496" stop-color="#14B8A6"/>
<stop offset="1" stop-color="#FACC15"/>
</linearGradient>
<linearGradient id="paint1_linear_8_23" x1="47" y1="412" x2="347" y2="412" gradientUnits="userSpaceOnUse">
<stop stop-color="#1E40AF"/>
<stop offset="0.496" stop-color="#14B8A6"/>
<stop offset="1" stop-color="#FACC15"/>
</linearGradient>
<linearGradient id="paint2_linear_8_23" x1="21" y1="557.5" x2="159" y2="557.5" gradientUnits="userSpaceOnUse">
<stop stop-color="#1E40AF"/>
<stop offset="0.496" stop-color="#14B8A6"/>
<stop offset="1" stop-color="#FACC15"/>
</linearGradient>
<linearGradient id="paint3_linear_8_23" x1="240" y1="557.5" x2="378" y2="557.5" gradientUnits="userSpaceOnUse">
<stop stop-color="#1E40AF"/>
<stop offset="0.496" stop-color="#14B8A6"/>
<stop offset="1" stop-color="#FACC15"/>
</linearGradient>
<linearGradient id="paint4_linear_8_23" x1="88" y1="152" x2="306" y2="152" gradientUnits="userSpaceOnUse">
<stop offset="0.441" stop-color="#1E40AF"/>
<stop offset="0.561" stop-color="#14B8A6"/>
<stop offset="0.686" stop-color="#FACC15"/>
</linearGradient>
<clipPath id="clip0_8_23">
<rect width="393" height="852" fill="white"/>
</clipPath>
</defs>
</svg>
