<svg width="176" height="215" viewBox="0 0 176 215" fill="none" xmlns="http://www.w3.org/2000/svg">
<g clip-path="url(#clip0_1_12)">
<rect width="176" height="215" fill="white"/>
<rect width="176" height="215" fill="#FBFAF5"/>
<path d="M22.4917 13.9961V19H21.8594V14.7856L20.5845 15.2505V14.6797L22.3926 13.9961H22.4917ZM27.4751 16.1152V16.874C27.4751 17.2819 27.4386 17.626 27.3657 17.9062C27.2928 18.1865 27.188 18.4121 27.0513 18.583C26.9146 18.7539 26.7493 18.8781 26.5557 18.9556C26.3643 19.0308 26.1478 19.0684 25.9062 19.0684C25.7148 19.0684 25.5382 19.0444 25.3765 18.9966C25.2147 18.9487 25.0688 18.8724 24.939 18.7676C24.8114 18.6605 24.702 18.5215 24.6108 18.3506C24.5197 18.1797 24.4502 17.9723 24.4023 17.7285C24.3545 17.4847 24.3306 17.1999 24.3306 16.874V16.1152C24.3306 15.7074 24.367 15.3656 24.4399 15.0898C24.5151 14.8141 24.6211 14.5931 24.7578 14.4268C24.8945 14.2581 25.0586 14.1374 25.25 14.0645C25.4437 13.9915 25.6602 13.9551 25.8994 13.9551C26.0931 13.9551 26.2708 13.979 26.4326 14.0269C26.5967 14.0724 26.7425 14.1465 26.8701 14.249C26.9977 14.3493 27.106 14.4837 27.1948 14.6523C27.286 14.8187 27.3555 15.0226 27.4033 15.2642C27.4512 15.5057 27.4751 15.7894 27.4751 16.1152ZM26.8394 16.9766V16.0093C26.8394 15.786 26.8257 15.59 26.7983 15.4214C26.7733 15.2505 26.7357 15.1047 26.6855 14.9839C26.6354 14.8631 26.5716 14.7651 26.4941 14.6899C26.4189 14.6147 26.3312 14.5601 26.231 14.5259C26.133 14.4894 26.0225 14.4712 25.8994 14.4712C25.749 14.4712 25.6157 14.4997 25.4995 14.5566C25.3833 14.6113 25.2853 14.6991 25.2056 14.8198C25.1281 14.9406 25.0688 15.099 25.0278 15.2949C24.9868 15.4909 24.9663 15.729 24.9663 16.0093V16.9766C24.9663 17.1999 24.9788 17.397 25.0039 17.5679C25.0312 17.7388 25.0711 17.8869 25.1235 18.0122C25.1759 18.1353 25.2397 18.2367 25.3149 18.3164C25.3901 18.3962 25.4767 18.4554 25.5747 18.4941C25.675 18.5306 25.7855 18.5488 25.9062 18.5488C26.0612 18.5488 26.1968 18.5192 26.313 18.46C26.4292 18.4007 26.526 18.3084 26.6035 18.1831C26.6833 18.0555 26.7425 17.8926 26.7812 17.6943C26.82 17.4938 26.8394 17.2546 26.8394 16.9766ZM28.3296 18.665C28.3296 18.5579 28.3626 18.4679 28.4287 18.395C28.4971 18.3198 28.5951 18.2822 28.7227 18.2822C28.8503 18.2822 28.9471 18.3198 29.0132 18.395C29.0815 18.4679 29.1157 18.5579 29.1157 18.665C29.1157 18.7699 29.0815 18.8587 29.0132 18.9316C28.9471 19.0046 28.8503 19.041 28.7227 19.041C28.5951 19.041 28.4971 19.0046 28.4287 18.9316C28.3626 18.8587 28.3296 18.7699 28.3296 18.665ZM28.333 15.647C28.333 15.5399 28.366 15.4499 28.4321 15.377C28.5005 15.3018 28.5985 15.2642 28.7261 15.2642C28.8537 15.2642 28.9505 15.3018 29.0166 15.377C29.085 15.4499 29.1191 15.5399 29.1191 15.647C29.1191 15.7518 29.085 15.8407 29.0166 15.9136C28.9505 15.9865 28.8537 16.0229 28.7261 16.0229C28.5985 16.0229 28.5005 15.9865 28.4321 15.9136C28.366 15.8407 28.333 15.7518 28.333 15.647ZM30.9067 16.2007H31.3579C31.5789 16.2007 31.7612 16.1642 31.9048 16.0913C32.0506 16.0161 32.1589 15.9147 32.2295 15.7871C32.3024 15.6572 32.3389 15.5114 32.3389 15.3496C32.3389 15.1582 32.307 14.9976 32.2432 14.8677C32.1794 14.7378 32.0837 14.6398 31.9561 14.5737C31.8285 14.5076 31.6667 14.4746 31.4707 14.4746C31.293 14.4746 31.1357 14.5099 30.999 14.5806C30.8646 14.6489 30.7586 14.7469 30.6812 14.8745C30.606 15.0021 30.5684 15.1525 30.5684 15.3257H29.936C29.936 15.0728 29.9998 14.8426 30.1274 14.6353C30.255 14.4279 30.4339 14.2627 30.6641 14.1396C30.8965 14.0166 31.1654 13.9551 31.4707 13.9551C31.7715 13.9551 32.0347 14.0086 32.2603 14.1157C32.4858 14.2205 32.6613 14.3778 32.7866 14.5874C32.9119 14.7948 32.9746 15.0534 32.9746 15.3633C32.9746 15.4886 32.945 15.623 32.8857 15.7666C32.8288 15.9079 32.7388 16.04 32.6157 16.1631C32.495 16.2861 32.3377 16.3875 32.144 16.4673C31.9504 16.5448 31.7179 16.5835 31.4468 16.5835H30.9067V16.2007ZM30.9067 16.7202V16.3408H31.4468C31.7635 16.3408 32.0256 16.3784 32.2329 16.4536C32.4403 16.5288 32.6032 16.6291 32.7217 16.7544C32.8424 16.8797 32.9268 17.0176 32.9746 17.168C33.0247 17.3161 33.0498 17.4642 33.0498 17.6123C33.0498 17.8447 33.0099 18.0509 32.9302 18.231C32.8527 18.411 32.7422 18.5636 32.5986 18.689C32.4574 18.8143 32.291 18.9089 32.0996 18.9727C31.9082 19.0365 31.6997 19.0684 31.4741 19.0684C31.2576 19.0684 31.0537 19.0376 30.8623 18.9761C30.6732 18.9146 30.5057 18.8257 30.3599 18.7095C30.214 18.591 30.1001 18.4463 30.0181 18.2754C29.936 18.1022 29.895 17.9051 29.895 17.6841H30.5273C30.5273 17.8573 30.5649 18.0088 30.6401 18.1387C30.7176 18.2686 30.827 18.37 30.9683 18.4429C31.1118 18.5135 31.2804 18.5488 31.4741 18.5488C31.6678 18.5488 31.8341 18.5158 31.9731 18.4497C32.1144 18.3813 32.2227 18.2788 32.2979 18.1421C32.3753 18.0054 32.4141 17.8333 32.4141 17.626C32.4141 17.4186 32.3708 17.2489 32.2842 17.1167C32.1976 16.9823 32.0745 16.8831 31.915 16.8193C31.7578 16.7533 31.5721 16.7202 31.3579 16.7202H30.9067ZM37.0454 16.1152V16.874C37.0454 17.2819 37.009 17.626 36.936 17.9062C36.8631 18.1865 36.7583 18.4121 36.6216 18.583C36.4849 18.7539 36.3197 18.8781 36.126 18.9556C35.9346 19.0308 35.7181 19.0684 35.4766 19.0684C35.2852 19.0684 35.1086 19.0444 34.9468 18.9966C34.785 18.9487 34.6392 18.8724 34.5093 18.7676C34.3817 18.6605 34.2723 18.5215 34.1812 18.3506C34.09 18.1797 34.0205 17.9723 33.9727 17.7285C33.9248 17.4847 33.9009 17.1999 33.9009 16.874V16.1152C33.9009 15.7074 33.9373 15.3656 34.0103 15.0898C34.0854 14.8141 34.1914 14.5931 34.3281 14.4268C34.4648 14.2581 34.6289 14.1374 34.8203 14.0645C35.014 13.9915 35.2305 13.9551 35.4697 13.9551C35.6634 13.9551 35.8411 13.979 36.0029 14.0269C36.167 14.0724 36.3128 14.1465 36.4404 14.249C36.568 14.3493 36.6763 14.4837 36.7651 14.6523C36.8563 14.8187 36.9258 15.0226 36.9736 15.2642C37.0215 15.5057 37.0454 15.7894 37.0454 16.1152ZM36.4097 16.9766V16.0093C36.4097 15.786 36.396 15.59 36.3687 15.4214C36.3436 15.2505 36.306 15.1047 36.2559 14.9839C36.2057 14.8631 36.1419 14.7651 36.0645 14.6899C35.9893 14.6147 35.9015 14.5601 35.8013 14.5259C35.7033 14.4894 35.5928 14.4712 35.4697 14.4712C35.3193 14.4712 35.186 14.4997 35.0698 14.5566C34.9536 14.6113 34.8556 14.6991 34.7759 14.8198C34.6984 14.9406 34.6392 15.099 34.5981 15.2949C34.5571 15.4909 34.5366 15.729 34.5366 16.0093V16.9766C34.5366 17.1999 34.5492 17.397 34.5742 17.5679C34.6016 17.7388 34.6414 17.8869 34.6938 18.0122C34.7463 18.1353 34.8101 18.2367 34.8853 18.3164C34.9604 18.3962 35.047 18.4554 35.145 18.4941C35.2453 18.5306 35.3558 18.5488 35.4766 18.5488C35.6315 18.5488 35.7671 18.5192 35.8833 18.46C35.9995 18.4007 36.0964 18.3084 36.1738 18.1831C36.2536 18.0555 36.3128 17.8926 36.3516 17.6943C36.3903 17.4938 36.4097 17.2546 36.4097 16.9766Z" fill="#3E3E3E"/>
<g clip-path="url(#clip1_1_12)">
<path d="M157 13.4V17.6H148.333V13.4H157ZM157.667 16.55H158.333V14.45H157.667V12.875C157.667 12.824 157.651 12.782 157.62 12.7492C157.589 12.7164 157.549 12.7 157.5 12.7H147.833C147.785 12.7 147.745 12.7164 147.714 12.7492C147.682 12.782 147.667 12.824 147.667 12.875V18.125C147.667 18.176 147.682 18.218 147.714 18.2508C147.745 18.2836 147.785 18.3 147.833 18.3H157.5C157.549 18.3 157.589 18.2836 157.62 18.2508C157.651 18.218 157.667 18.176 157.667 18.125V16.55ZM159 14.45V16.55C159 16.7432 158.935 16.9082 158.805 17.0449C158.674 17.1816 158.517 17.25 158.333 17.25V18.125C158.333 18.3656 158.252 18.5716 158.089 18.743C157.925 18.9143 157.729 19 157.5 19H147.833C147.604 19 147.408 18.9143 147.245 18.743C147.082 18.5716 147 18.3656 147 18.125V12.875C147 12.6344 147.082 12.4284 147.245 12.257C147.408 12.0857 147.604 12 147.833 12H157.5C157.729 12 157.925 12.0857 158.089 12.257C158.252 12.4284 158.333 12.6344 158.333 12.875V13.75C158.517 13.75 158.674 13.8184 158.805 13.9551C158.935 14.0918 159 14.2568 159 14.45Z" fill="#3E3E3E"/>
</g>
<circle cx="55.5" cy="74.5" r="24.5" fill="#539EFF"/>
<circle cx="122.5" cy="74.5" r="24.5" fill="#FFFF51"/>
<circle cx="122.5" cy="142.5" r="24.5" fill="#B887C5"/>
<circle cx="55.5" cy="142.5" r="24.5" fill="#909090"/>
<path d="M55.5 64.4167C48.8373 64.4167 43.4167 68.7534 43.4167 74.0833C43.4167 77.5972 45.7089 80.7485 49.4583 82.4619V88.5833L55.9108 83.7452C62.3839 83.5712 67.5833 79.3033 67.5833 74.0833C67.5833 68.7534 62.1628 64.4167 55.5 64.4167ZM52.4792 75.2917C51.9985 75.2917 51.5375 75.1007 51.1975 74.7608C50.8576 74.4209 50.6667 73.9599 50.6667 73.4792C50.6667 72.9985 50.8576 72.5374 51.1975 72.1975C51.5375 71.8576 51.9985 71.6667 52.4792 71.6667C52.9599 71.6667 53.4209 71.8576 53.7608 72.1975C54.1007 72.5374 54.2917 72.9985 54.2917 73.4792C54.2917 73.9599 54.1007 74.4209 53.7608 74.7608C53.4209 75.1007 52.9599 75.2917 52.4792 75.2917ZM58.5208 75.2917C58.0401 75.2917 57.5791 75.1007 57.2392 74.7608C56.8993 74.4209 56.7083 73.9599 56.7083 73.4792C56.7083 72.9985 56.8993 72.5374 57.2392 72.1975C57.5791 71.8576 58.0401 71.6667 58.5208 71.6667C59.0015 71.6667 59.4626 71.8576 59.8025 72.1975C60.1424 72.5374 60.3333 72.9985 60.3333 73.4792C60.3333 73.9599 60.1424 74.4209 59.8025 74.7608C59.4626 75.1007 59.0015 75.2917 58.5208 75.2917Z" fill="black"/>
<path d="M119.75 68.375C119.75 68.0103 119.895 67.6606 120.153 67.4027C120.411 67.1449 120.76 67 121.125 67C121.49 67 121.839 67.1449 122.097 67.4027C122.355 67.6606 122.5 68.0103 122.5 68.375V74.5213L124.164 74.7L130.956 77.7113C131.685 78.0413 132.125 78.77 132.125 79.5675V85.5625C132.084 86.69 131.19 87.5837 130.062 87.625H121.125C120.602 87.625 120.107 87.4187 119.75 87.0337L113.012 81.2588L114.03 80.2C114.291 79.9113 114.662 79.76 115.047 79.76H115.35L119.75 82.125V68.375ZM121.125 62.875C122.584 62.875 123.983 63.4545 125.014 64.4859C126.046 65.5174 126.625 66.9163 126.625 68.375C126.625 70.4375 125.525 72.1838 123.875 73.1325V71.455C124.714 70.6987 125.25 69.5988 125.25 68.375C125.25 67.281 124.815 66.2318 124.042 65.4582C123.268 64.6846 122.219 64.25 121.125 64.25C120.031 64.25 118.982 64.6846 118.208 65.4582C117.435 66.2318 117 67.281 117 68.375C117 69.5988 117.536 70.6987 118.375 71.455V73.1325C116.725 72.1838 115.625 70.4375 115.625 68.375C115.625 66.9163 116.204 65.5174 117.236 64.4859C118.267 63.4545 119.666 62.875 121.125 62.875Z" fill="black"/>
<path d="M59 133L64 137.999V152.009C63.9995 152.272 63.8946 152.524 63.7085 152.71C63.5223 152.896 63.27 153 63.007 153H46.993C46.7304 152.998 46.479 152.893 46.2932 152.707C46.1074 152.522 46.0021 152.271 46 152.008V133.992C46 133.444 46.445 133 46.993 133H59ZM56 140H54V146H59V144H56V140Z" fill="black"/>
<path d="M130 131H114V133H130V131ZM114 155H130V153H114V155ZM130 135H114C112.9 135 112 135.9 112 137V149C112 150.1 112.9 151 114 151H130C131.1 151 132 150.1 132 149V137C132 135.9 131.1 135 130 135ZM122 137.75C123.24 137.75 124.25 138.76 124.25 140C124.25 141.24 123.24 142.25 122 142.25C120.76 142.25 119.75 141.24 119.75 140C119.75 138.76 120.76 137.75 122 137.75ZM127 148H117V146.5C117 144.83 120.33 144 122 144C123.67 144 127 144.83 127 146.5V148Z" fill="black"/>
</g>
<defs>
<clipPath id="clip0_1_12">
<rect width="176" height="215" fill="white"/>
</clipPath>
<clipPath id="clip1_1_12">
<rect width="12" height="7" fill="white" transform="translate(147 12)"/>
</clipPath>
</defs>
</svg>
