<svg width="320" height="568" viewBox="0 0 320 568" fill="none" xmlns="http://www.w3.org/2000/svg">
<g clip-path="url(#clip0_160_2)">
<rect width="320" height="568" fill="white"/>
<rect width="320" height="568" fill="#3E3E3E"/>
<path d="M82.8906 278.891H77.0938V275.234H82.8906C83.7865 275.234 84.5156 275.089 85.0781 274.797C85.6406 274.495 86.0521 274.078 86.3125 273.547C86.5729 273.016 86.7031 272.417 86.7031 271.75C86.7031 271.073 86.5729 270.443 86.3125 269.859C86.0521 269.276 85.6406 268.807 85.0781 268.453C84.5156 268.099 83.7865 267.922 82.8906 267.922H78.7188V287H74.0312V264.25H82.8906C84.6719 264.25 86.1979 264.573 87.4688 265.219C88.75 265.854 89.7292 266.734 90.4062 267.859C91.0833 268.984 91.4219 270.271 91.4219 271.719C91.4219 273.188 91.0833 274.458 90.4062 275.531C89.7292 276.604 88.75 277.432 87.4688 278.016C86.1979 278.599 84.6719 278.891 82.8906 278.891ZM104.375 282.953V270.094H108.875V287H104.641L104.375 282.953ZM104.875 279.484L106.203 279.453C106.203 280.578 106.073 281.625 105.812 282.594C105.552 283.552 105.161 284.385 104.641 285.094C104.12 285.792 103.464 286.339 102.672 286.734C101.88 287.12 100.948 287.312 99.875 287.312C99.0521 287.312 98.2917 287.198 97.5938 286.969C96.9062 286.729 96.3125 286.359 95.8125 285.859C95.3229 285.349 94.9375 284.698 94.6562 283.906C94.3854 283.104 94.25 282.141 94.25 281.016V270.094H98.75V281.047C98.75 281.547 98.8073 281.969 98.9219 282.312C99.0469 282.656 99.2188 282.938 99.4375 283.156C99.6562 283.375 99.9115 283.531 100.203 283.625C100.505 283.719 100.839 283.766 101.203 283.766C102.13 283.766 102.859 283.578 103.391 283.203C103.932 282.828 104.312 282.318 104.531 281.672C104.76 281.016 104.875 280.286 104.875 279.484ZM117.062 263V287H112.547V263H117.062ZM129.922 282.328C129.922 282.005 129.828 281.714 129.641 281.453C129.453 281.193 129.104 280.953 128.594 280.734C128.094 280.505 127.37 280.297 126.422 280.109C125.568 279.922 124.771 279.688 124.031 279.406C123.302 279.115 122.667 278.766 122.125 278.359C121.594 277.953 121.177 277.474 120.875 276.922C120.573 276.359 120.422 275.719 120.422 275C120.422 274.292 120.573 273.625 120.875 273C121.188 272.375 121.63 271.823 122.203 271.344C122.786 270.854 123.495 270.474 124.328 270.203C125.172 269.922 126.12 269.781 127.172 269.781C128.641 269.781 129.901 270.016 130.953 270.484C132.016 270.953 132.828 271.599 133.391 272.422C133.964 273.234 134.25 274.161 134.25 275.203H129.75C129.75 274.766 129.656 274.375 129.469 274.031C129.292 273.677 129.01 273.401 128.625 273.203C128.25 272.995 127.76 272.891 127.156 272.891C126.656 272.891 126.224 272.979 125.859 273.156C125.495 273.323 125.214 273.552 125.016 273.844C124.828 274.125 124.734 274.438 124.734 274.781C124.734 275.042 124.786 275.276 124.891 275.484C125.005 275.682 125.188 275.865 125.438 276.031C125.688 276.198 126.01 276.354 126.406 276.5C126.812 276.635 127.312 276.76 127.906 276.875C129.125 277.125 130.214 277.453 131.172 277.859C132.13 278.255 132.891 278.797 133.453 279.484C134.016 280.161 134.297 281.052 134.297 282.156C134.297 282.906 134.13 283.594 133.797 284.219C133.464 284.844 132.984 285.391 132.359 285.859C131.734 286.318 130.984 286.677 130.109 286.938C129.245 287.188 128.271 287.312 127.188 287.312C125.615 287.312 124.281 287.031 123.188 286.469C122.104 285.906 121.281 285.193 120.719 284.328C120.167 283.453 119.891 282.557 119.891 281.641H124.156C124.177 282.255 124.333 282.75 124.625 283.125C124.927 283.5 125.307 283.771 125.766 283.938C126.234 284.104 126.74 284.188 127.281 284.188C127.865 284.188 128.349 284.109 128.734 283.953C129.12 283.786 129.411 283.568 129.609 283.297C129.818 283.016 129.922 282.693 129.922 282.328ZM145 287.312C143.688 287.312 142.51 287.104 141.469 286.688C140.427 286.26 139.542 285.672 138.812 284.922C138.094 284.172 137.542 283.302 137.156 282.312C136.771 281.312 136.578 280.25 136.578 279.125V278.5C136.578 277.219 136.76 276.047 137.125 274.984C137.49 273.922 138.01 273 138.688 272.219C139.375 271.438 140.208 270.839 141.188 270.422C142.167 269.995 143.271 269.781 144.5 269.781C145.698 269.781 146.76 269.979 147.688 270.375C148.615 270.771 149.391 271.333 150.016 272.062C150.651 272.792 151.13 273.667 151.453 274.688C151.776 275.698 151.938 276.823 151.938 278.062V279.938H138.5V276.938H147.516V276.594C147.516 275.969 147.401 275.411 147.172 274.922C146.953 274.422 146.62 274.026 146.172 273.734C145.724 273.443 145.151 273.297 144.453 273.297C143.859 273.297 143.349 273.427 142.922 273.688C142.495 273.948 142.146 274.312 141.875 274.781C141.615 275.25 141.417 275.802 141.281 276.438C141.156 277.062 141.094 277.75 141.094 278.5V279.125C141.094 279.802 141.188 280.427 141.375 281C141.573 281.573 141.849 282.068 142.203 282.484C142.568 282.901 143.005 283.224 143.516 283.453C144.036 283.682 144.625 283.797 145.281 283.797C146.094 283.797 146.849 283.641 147.547 283.328C148.255 283.005 148.865 282.521 149.375 281.875L151.562 284.25C151.208 284.76 150.724 285.25 150.109 285.719C149.505 286.188 148.776 286.573 147.922 286.875C147.068 287.167 146.094 287.312 145 287.312ZM166.625 281.047C166.625 280.641 166.562 280.276 166.438 279.953C166.323 279.62 166.104 279.318 165.781 279.047C165.458 278.766 165.005 278.49 164.422 278.219C163.839 277.948 163.083 277.667 162.156 277.375C161.125 277.042 160.146 276.667 159.219 276.25C158.302 275.833 157.49 275.349 156.781 274.797C156.083 274.234 155.531 273.583 155.125 272.844C154.729 272.104 154.531 271.245 154.531 270.266C154.531 269.318 154.74 268.458 155.156 267.688C155.573 266.906 156.156 266.24 156.906 265.688C157.656 265.125 158.542 264.693 159.562 264.391C160.594 264.089 161.724 263.938 162.953 263.938C164.63 263.938 166.094 264.24 167.344 264.844C168.594 265.448 169.562 266.276 170.25 267.328C170.948 268.38 171.297 269.583 171.297 270.938H166.641C166.641 270.271 166.5 269.688 166.219 269.188C165.948 268.677 165.531 268.276 164.969 267.984C164.417 267.693 163.719 267.547 162.875 267.547C162.062 267.547 161.385 267.672 160.844 267.922C160.302 268.161 159.896 268.49 159.625 268.906C159.354 269.312 159.219 269.771 159.219 270.281C159.219 270.667 159.312 271.016 159.5 271.328C159.698 271.641 159.99 271.932 160.375 272.203C160.76 272.474 161.234 272.729 161.797 272.969C162.359 273.208 163.01 273.443 163.75 273.672C164.99 274.047 166.078 274.469 167.016 274.938C167.964 275.406 168.755 275.932 169.391 276.516C170.026 277.099 170.505 277.76 170.828 278.5C171.151 279.24 171.312 280.078 171.312 281.016C171.312 282.005 171.12 282.891 170.734 283.672C170.349 284.453 169.792 285.115 169.062 285.656C168.333 286.198 167.464 286.609 166.453 286.891C165.443 287.172 164.312 287.312 163.062 287.312C161.938 287.312 160.828 287.167 159.734 286.875C158.641 286.573 157.646 286.12 156.75 285.516C155.865 284.911 155.156 284.141 154.625 283.203C154.094 282.266 153.828 281.156 153.828 279.875H158.531C158.531 280.583 158.641 281.182 158.859 281.672C159.078 282.161 159.385 282.557 159.781 282.859C160.188 283.161 160.667 283.38 161.219 283.516C161.781 283.651 162.396 283.719 163.062 283.719C163.875 283.719 164.542 283.604 165.062 283.375C165.594 283.146 165.984 282.828 166.234 282.422C166.495 282.016 166.625 281.557 166.625 281.047ZM182 287.312C180.688 287.312 179.51 287.104 178.469 286.688C177.427 286.26 176.542 285.672 175.812 284.922C175.094 284.172 174.542 283.302 174.156 282.312C173.771 281.312 173.578 280.25 173.578 279.125V278.5C173.578 277.219 173.76 276.047 174.125 274.984C174.49 273.922 175.01 273 175.688 272.219C176.375 271.438 177.208 270.839 178.188 270.422C179.167 269.995 180.271 269.781 181.5 269.781C182.698 269.781 183.76 269.979 184.688 270.375C185.615 270.771 186.391 271.333 187.016 272.062C187.651 272.792 188.13 273.667 188.453 274.688C188.776 275.698 188.938 276.823 188.938 278.062V279.938H175.5V276.938H184.516V276.594C184.516 275.969 184.401 275.411 184.172 274.922C183.953 274.422 183.62 274.026 183.172 273.734C182.724 273.443 182.151 273.297 181.453 273.297C180.859 273.297 180.349 273.427 179.922 273.688C179.495 273.948 179.146 274.312 178.875 274.781C178.615 275.25 178.417 275.802 178.281 276.438C178.156 277.062 178.094 277.75 178.094 278.5V279.125C178.094 279.802 178.188 280.427 178.375 281C178.573 281.573 178.849 282.068 179.203 282.484C179.568 282.901 180.005 283.224 180.516 283.453C181.036 283.682 181.625 283.797 182.281 283.797C183.094 283.797 183.849 283.641 184.547 283.328C185.255 283.005 185.865 282.521 186.375 281.875L188.562 284.25C188.208 284.76 187.724 285.25 187.109 285.719C186.505 286.188 185.776 286.573 184.922 286.875C184.068 287.167 183.094 287.312 182 287.312ZM195.906 273.703V287H191.406V270.094H195.625L195.906 273.703ZM195.25 277.953H194.031C194.031 276.703 194.193 275.578 194.516 274.578C194.839 273.568 195.292 272.708 195.875 272C196.458 271.281 197.151 270.734 197.953 270.359C198.766 269.974 199.672 269.781 200.672 269.781C201.464 269.781 202.188 269.896 202.844 270.125C203.5 270.354 204.062 270.719 204.531 271.219C205.01 271.719 205.375 272.38 205.625 273.203C205.885 274.026 206.016 275.031 206.016 276.219V287H201.484V276.203C201.484 275.453 201.38 274.87 201.172 274.453C200.964 274.036 200.656 273.745 200.25 273.578C199.854 273.401 199.365 273.312 198.781 273.312C198.177 273.312 197.651 273.432 197.203 273.672C196.766 273.911 196.401 274.245 196.109 274.672C195.828 275.089 195.615 275.578 195.469 276.141C195.323 276.703 195.25 277.307 195.25 277.953ZM217.719 270.094V273.281H207.875V270.094H217.719ZM210.312 265.922H214.812V281.906C214.812 282.396 214.875 282.771 215 283.031C215.135 283.292 215.333 283.474 215.594 283.578C215.854 283.672 216.182 283.719 216.578 283.719C216.859 283.719 217.109 283.708 217.328 283.688C217.557 283.656 217.75 283.625 217.906 283.594L217.922 286.906C217.536 287.031 217.12 287.13 216.672 287.203C216.224 287.276 215.729 287.312 215.188 287.312C214.198 287.312 213.333 287.151 212.594 286.828C211.865 286.495 211.302 285.964 210.906 285.234C210.51 284.505 210.312 283.547 210.312 282.359V265.922ZM224.781 273.781V287H220.281V270.094H224.516L224.781 273.781ZM229.875 269.984L229.797 274.156C229.578 274.125 229.312 274.099 229 274.078C228.698 274.047 228.422 274.031 228.172 274.031C227.536 274.031 226.984 274.115 226.516 274.281C226.057 274.438 225.672 274.672 225.359 274.984C225.057 275.297 224.828 275.677 224.672 276.125C224.526 276.573 224.443 277.083 224.422 277.656L223.516 277.375C223.516 276.281 223.625 275.276 223.844 274.359C224.062 273.432 224.38 272.625 224.797 271.938C225.224 271.25 225.745 270.719 226.359 270.344C226.974 269.969 227.677 269.781 228.469 269.781C228.719 269.781 228.974 269.802 229.234 269.844C229.495 269.875 229.708 269.922 229.875 269.984ZM237.297 285.094L241.781 270.094H246.609L239.812 289.547C239.667 289.974 239.469 290.432 239.219 290.922C238.979 291.411 238.651 291.875 238.234 292.312C237.828 292.76 237.312 293.125 236.688 293.406C236.073 293.688 235.318 293.828 234.422 293.828C233.995 293.828 233.646 293.802 233.375 293.75C233.104 293.698 232.781 293.625 232.406 293.531V290.234C232.521 290.234 232.641 290.234 232.766 290.234C232.891 290.245 233.01 290.25 233.125 290.25C233.719 290.25 234.203 290.182 234.578 290.047C234.953 289.911 235.255 289.703 235.484 289.422C235.714 289.151 235.896 288.797 236.031 288.359L237.297 285.094ZM235.422 270.094L239.094 282.344L239.734 287.109L236.672 287.438L230.594 270.094H235.422Z" fill="white"/>
</g>
<defs>
<clipPath id="clip0_160_2">
<rect width="320" height="568" fill="white"/>
</clipPath>
</defs>
</svg>
