<svg width="320" height="568" viewBox="0 0 320 568" fill="none" xmlns="http://www.w3.org/2000/svg">
<g clip-path="url(#clip0_160_36)">
<rect width="320" height="568" fill="white"/>
<rect width="320" height="568" fill="white"/>
<path d="M23.7578 43.1953L26.0234 33.625H27.2891L27.5781 35.2188L25.1641 45H23.8047L23.7578 43.1953ZM22.5938 33.625L24.4688 43.1953L24.3125 45H22.7969L20.2734 33.625H22.5938ZM29.5703 43.1562L31.4219 33.625H33.7422L31.2266 45H29.7109L29.5703 43.1562ZM28 33.625L30.2812 43.2344L30.2188 45H28.8594L26.4297 35.2109L26.7422 33.625H28ZM38.5156 45.1562C37.8594 45.1562 37.2708 45.0521 36.75 44.8438C36.2292 44.6302 35.7865 44.3359 35.4219 43.9609C35.0625 43.5859 34.7865 43.151 34.5938 42.6562C34.401 42.1562 34.3047 41.625 34.3047 41.0625V40.75C34.3047 40.1094 34.3958 39.5234 34.5781 38.9922C34.7604 38.4609 35.0208 38 35.3594 37.6094C35.7031 37.2188 36.1198 36.9193 36.6094 36.7109C37.099 36.4974 37.651 36.3906 38.2656 36.3906C38.8646 36.3906 39.3958 36.4896 39.8594 36.6875C40.3229 36.8854 40.7109 37.1667 41.0234 37.5312C41.3411 37.8958 41.5807 38.3333 41.7422 38.8438C41.9036 39.349 41.9844 39.9115 41.9844 40.5312V41.4688H35.2656V39.9688H39.7734V39.7969C39.7734 39.4844 39.7161 39.2057 39.6016 38.9609C39.4922 38.7109 39.3255 38.513 39.1016 38.3672C38.8776 38.2214 38.5911 38.1484 38.2422 38.1484C37.9453 38.1484 37.6901 38.2135 37.4766 38.3438C37.263 38.474 37.0885 38.6562 36.9531 38.8906C36.8229 39.125 36.724 39.401 36.6562 39.7188C36.5938 40.0312 36.5625 40.375 36.5625 40.75V41.0625C36.5625 41.401 36.6094 41.7135 36.7031 42C36.8021 42.2865 36.9401 42.5339 37.1172 42.7422C37.2995 42.9505 37.5182 43.112 37.7734 43.2266C38.0339 43.3411 38.3281 43.3984 38.6562 43.3984C39.0625 43.3984 39.4401 43.3203 39.7891 43.1641C40.1432 43.0026 40.4479 42.7604 40.7031 42.4375L41.7969 43.625C41.6198 43.8802 41.3776 44.125 41.0703 44.3594C40.7682 44.5938 40.4036 44.7865 39.9766 44.9375C39.5495 45.0833 39.0625 45.1562 38.5156 45.1562ZM45.6406 33V45H43.3828V33H45.6406ZM50.9922 43.3984C51.2682 43.3984 51.513 43.3464 51.7266 43.2422C51.9401 43.1328 52.1068 42.9818 52.2266 42.7891C52.3516 42.5911 52.4167 42.3594 52.4219 42.0938H54.5391C54.5339 42.6875 54.375 43.2161 54.0625 43.6797C53.75 44.138 53.3307 44.5 52.8047 44.7656C52.2786 45.026 51.6901 45.1562 51.0391 45.1562C50.3828 45.1562 49.8099 45.0469 49.3203 44.8281C48.8359 44.6094 48.4323 44.3073 48.1094 43.9219C47.7865 43.5312 47.5443 43.0781 47.3828 42.5625C47.2214 42.0417 47.1406 41.4844 47.1406 40.8906V40.6641C47.1406 40.0651 47.2214 39.5078 47.3828 38.9922C47.5443 38.4714 47.7865 38.0182 48.1094 37.6328C48.4323 37.2422 48.8359 36.9375 49.3203 36.7188C49.8047 36.5 50.3724 36.3906 51.0234 36.3906C51.7161 36.3906 52.3229 36.5234 52.8438 36.7891C53.3698 37.0547 53.7812 37.4349 54.0781 37.9297C54.3802 38.4193 54.5339 39 54.5391 39.6719H52.4219C52.4167 39.3906 52.3568 39.1354 52.2422 38.9062C52.1328 38.6771 51.9714 38.4948 51.7578 38.3594C51.5495 38.2188 51.2917 38.1484 50.9844 38.1484C50.6562 38.1484 50.388 38.2188 50.1797 38.3594C49.9714 38.4948 49.8099 38.6823 49.6953 38.9219C49.5807 39.1562 49.5 39.4245 49.4531 39.7266C49.4115 40.0234 49.3906 40.3359 49.3906 40.6641V40.8906C49.3906 41.2188 49.4115 41.5339 49.4531 41.8359C49.4948 42.138 49.5729 42.4062 49.6875 42.6406C49.8073 42.875 49.9714 43.0599 50.1797 43.1953C50.388 43.3307 50.6589 43.3984 50.9922 43.3984ZM55.4844 40.8594V40.6953C55.4844 40.0755 55.5729 39.5052 55.75 38.9844C55.9271 38.4583 56.1849 38.0026 56.5234 37.6172C56.862 37.2318 57.2786 36.9323 57.7734 36.7188C58.2682 36.5 58.8359 36.3906 59.4766 36.3906C60.1172 36.3906 60.6875 36.5 61.1875 36.7188C61.6875 36.9323 62.1068 37.2318 62.4453 37.6172C62.7891 38.0026 63.0495 38.4583 63.2266 38.9844C63.4036 39.5052 63.4922 40.0755 63.4922 40.6953V40.8594C63.4922 41.474 63.4036 42.0443 63.2266 42.5703C63.0495 43.0911 62.7891 43.5469 62.4453 43.9375C62.1068 44.3229 61.6901 44.6224 61.1953 44.8359C60.7005 45.0495 60.1328 45.1562 59.4922 45.1562C58.8516 45.1562 58.2812 45.0495 57.7812 44.8359C57.2865 44.6224 56.8672 44.3229 56.5234 43.9375C56.1849 43.5469 55.9271 43.0911 55.75 42.5703C55.5729 42.0443 55.4844 41.474 55.4844 40.8594ZM57.7344 40.6953V40.8594C57.7344 41.2135 57.7656 41.5443 57.8281 41.8516C57.8906 42.1589 57.9896 42.4297 58.125 42.6641C58.2656 42.8932 58.4479 43.0729 58.6719 43.2031C58.8958 43.3333 59.1693 43.3984 59.4922 43.3984C59.8047 43.3984 60.0729 43.3333 60.2969 43.2031C60.5208 43.0729 60.7005 42.8932 60.8359 42.6641C60.9714 42.4297 61.0703 42.1589 61.1328 41.8516C61.2005 41.5443 61.2344 41.2135 61.2344 40.8594V40.6953C61.2344 40.3516 61.2005 40.0286 61.1328 39.7266C61.0703 39.4193 60.9688 39.1484 60.8281 38.9141C60.6927 38.6745 60.513 38.487 60.2891 38.3516C60.0651 38.2161 59.7943 38.1484 59.4766 38.1484C59.1589 38.1484 58.888 38.2161 58.6641 38.3516C58.4453 38.487 58.2656 38.6745 58.125 38.9141C57.9896 39.1484 57.8906 39.4193 57.8281 39.7266C57.7656 40.0286 57.7344 40.3516 57.7344 40.6953ZM67.125 38.2969V45H64.8672V36.5469H66.9844L67.125 38.2969ZM66.8125 40.4766H66.1875C66.1875 39.888 66.2578 39.3464 66.3984 38.8516C66.5443 38.3516 66.7552 37.9193 67.0312 37.5547C67.3125 37.1849 67.6589 36.8984 68.0703 36.6953C68.4818 36.4922 68.9583 36.3906 69.5 36.3906C69.875 36.3906 70.2188 36.4479 70.5312 36.5625C70.8438 36.6719 71.112 36.8464 71.3359 37.0859C71.5651 37.3203 71.7422 37.6276 71.8672 38.0078C71.9922 38.3828 72.0547 38.8333 72.0547 39.3594V45H69.8047V39.6094C69.8047 39.224 69.7526 38.9271 69.6484 38.7188C69.5443 38.5104 69.3958 38.3646 69.2031 38.2812C69.0156 38.1979 68.7891 38.1562 68.5234 38.1562C68.2318 38.1562 67.9766 38.2161 67.7578 38.3359C67.5443 38.4557 67.3672 38.6224 67.2266 38.8359C67.0859 39.0443 66.9818 39.2891 66.9141 39.5703C66.8464 39.8516 66.8125 40.1536 66.8125 40.4766ZM71.8438 40.2188L71.0391 40.3203C71.0391 39.7682 71.1068 39.2552 71.2422 38.7812C71.3828 38.3073 71.5885 37.8906 71.8594 37.5312C72.1354 37.1719 72.4766 36.8932 72.8828 36.6953C73.2891 36.4922 73.7578 36.3906 74.2891 36.3906C74.6953 36.3906 75.0651 36.4505 75.3984 36.5703C75.7318 36.6849 76.0156 36.8698 76.25 37.125C76.4896 37.375 76.6719 37.7031 76.7969 38.1094C76.9271 38.5156 76.9922 39.013 76.9922 39.6016V45H74.7344V39.6016C74.7344 39.2109 74.6823 38.9141 74.5781 38.7109C74.4792 38.5026 74.3333 38.3594 74.1406 38.2812C73.9531 38.1979 73.7292 38.1562 73.4688 38.1562C73.1979 38.1562 72.9609 38.2109 72.7578 38.3203C72.5547 38.4245 72.3854 38.5703 72.25 38.7578C72.1146 38.9453 72.013 39.1641 71.9453 39.4141C71.8776 39.6589 71.8438 39.9271 71.8438 40.2188ZM82.625 45.1562C81.9688 45.1562 81.3802 45.0521 80.8594 44.8438C80.3385 44.6302 79.8958 44.3359 79.5312 43.9609C79.1719 43.5859 78.8958 43.151 78.7031 42.6562C78.5104 42.1562 78.4141 41.625 78.4141 41.0625V40.75C78.4141 40.1094 78.5052 39.5234 78.6875 38.9922C78.8698 38.4609 79.1302 38 79.4688 37.6094C79.8125 37.2188 80.2292 36.9193 80.7188 36.7109C81.2083 36.4974 81.7604 36.3906 82.375 36.3906C82.974 36.3906 83.5052 36.4896 83.9688 36.6875C84.4323 36.8854 84.8203 37.1667 85.1328 37.5312C85.4505 37.8958 85.6901 38.3333 85.8516 38.8438C86.013 39.349 86.0938 39.9115 86.0938 40.5312V41.4688H79.375V39.9688H83.8828V39.7969C83.8828 39.4844 83.8255 39.2057 83.7109 38.9609C83.6016 38.7109 83.4349 38.513 83.2109 38.3672C82.987 38.2214 82.7005 38.1484 82.3516 38.1484C82.0547 38.1484 81.7995 38.2135 81.5859 38.3438C81.3724 38.474 81.1979 38.6562 81.0625 38.8906C80.9323 39.125 80.8333 39.401 80.7656 39.7188C80.7031 40.0312 80.6719 40.375 80.6719 40.75V41.0625C80.6719 41.401 80.7188 41.7135 80.8125 42C80.9115 42.2865 81.0495 42.5339 81.2266 42.7422C81.4089 42.9505 81.6276 43.112 81.8828 43.2266C82.1432 43.3411 82.4375 43.3984 82.7656 43.3984C83.1719 43.3984 83.5495 43.3203 83.8984 43.1641C84.2526 43.0026 84.5573 42.7604 84.8125 42.4375L85.9062 43.625C85.7292 43.8802 85.487 44.125 85.1797 44.3594C84.8776 44.5938 84.513 44.7865 84.0859 44.9375C83.6589 45.0833 83.1719 45.1562 82.625 45.1562Z" fill="#3E3E3E"/>
<rect x="20" y="70" width="280" height="230" rx="20" fill="#D9D9D9"/>
<rect x="168" y="320" width="132" height="100" rx="20" fill="#3E3E3E"/>
<path d="M183.227 339.273H184.386L185.358 340.551L185.614 340.892L187.062 342.818H185.903L184.949 341.54L184.71 341.216L183.227 339.273ZM187.42 337.636C187.42 338.557 187.254 339.352 186.922 340.023C186.589 340.693 186.134 341.21 185.554 341.574C184.974 341.938 184.313 342.119 183.568 342.119C182.824 342.119 182.162 341.938 181.582 341.574C181.003 341.21 180.547 340.693 180.214 340.023C179.882 339.352 179.716 338.557 179.716 337.636C179.716 336.716 179.882 335.92 180.214 335.25C180.547 334.58 181.003 334.062 181.582 333.699C182.162 333.335 182.824 333.153 183.568 333.153C184.313 333.153 184.974 333.335 185.554 333.699C186.134 334.062 186.589 334.58 186.922 335.25C187.254 335.92 187.42 336.716 187.42 337.636ZM186.398 337.636C186.398 336.881 186.271 336.243 186.018 335.723C185.768 335.203 185.429 334.81 185 334.543C184.574 334.276 184.097 334.142 183.568 334.142C183.04 334.142 182.561 334.276 182.132 334.543C181.706 334.81 181.366 335.203 181.114 335.723C180.864 336.243 180.739 336.881 180.739 337.636C180.739 338.392 180.864 339.03 181.114 339.55C181.366 340.07 181.706 340.463 182.132 340.73C182.561 340.997 183.04 341.131 183.568 341.131C184.097 341.131 184.574 340.997 185 340.73C185.429 340.463 185.768 340.07 186.018 339.55C186.271 339.03 186.398 338.392 186.398 337.636ZM193.186 339.324V335.455H194.192V342H193.186V340.892H193.118C192.964 341.224 192.726 341.507 192.402 341.74C192.078 341.97 191.669 342.085 191.175 342.085C190.766 342.085 190.402 341.996 190.084 341.817C189.766 341.635 189.516 341.362 189.334 340.999C189.152 340.632 189.061 340.17 189.061 339.614V335.455H190.067V339.545C190.067 340.023 190.2 340.403 190.467 340.688C190.737 340.972 191.081 341.114 191.499 341.114C191.749 341.114 192.003 341.05 192.261 340.922C192.523 340.794 192.741 340.598 192.918 340.334C193.097 340.07 193.186 339.733 193.186 339.324ZM196.034 342V335.455H197.039V342H196.034ZM196.545 334.364C196.349 334.364 196.18 334.297 196.038 334.163C195.899 334.03 195.829 333.869 195.829 333.682C195.829 333.494 195.899 333.334 196.038 333.2C196.18 333.067 196.349 333 196.545 333C196.741 333 196.909 333.067 197.048 333.2C197.19 333.334 197.261 333.494 197.261 333.682C197.261 333.869 197.19 334.03 197.048 334.163C196.909 334.297 196.741 334.364 196.545 334.364ZM201.54 342.136C200.927 342.136 200.398 341.991 199.955 341.702C199.512 341.412 199.171 341.013 198.933 340.504C198.694 339.996 198.575 339.415 198.575 338.761C198.575 338.097 198.697 337.51 198.941 337.001C199.188 336.49 199.532 336.091 199.972 335.804C200.415 335.514 200.933 335.369 201.523 335.369C201.984 335.369 202.398 335.455 202.768 335.625C203.137 335.795 203.44 336.034 203.675 336.341C203.911 336.648 204.058 337.006 204.114 337.415H203.109C203.032 337.116 202.862 336.852 202.597 336.622C202.336 336.389 201.984 336.273 201.54 336.273C201.148 336.273 200.805 336.375 200.509 336.58C200.217 336.781 199.988 337.067 199.823 337.436C199.661 337.803 199.58 338.233 199.58 338.727C199.58 339.233 199.66 339.673 199.819 340.048C199.981 340.423 200.208 340.714 200.501 340.922C200.796 341.129 201.143 341.233 201.54 341.233C201.802 341.233 202.039 341.188 202.252 341.097C202.465 341.006 202.646 340.875 202.793 340.705C202.941 340.534 203.046 340.33 203.109 340.091H204.114C204.058 340.477 203.917 340.825 203.692 341.135C203.471 341.442 203.177 341.686 202.81 341.868C202.447 342.047 202.023 342.136 201.54 342.136ZM206.522 339.614L206.505 338.369H206.71L209.573 335.455H210.817L207.766 338.54H207.681L206.522 339.614ZM205.585 342V333.273H206.59V342H205.585ZM209.744 342L207.187 338.761L207.903 338.062L211.022 342H209.744ZM215.623 342V333.273H218.572C219.254 333.273 219.814 333.389 220.251 333.622C220.689 333.852 221.012 334.169 221.223 334.572C221.433 334.976 221.538 335.435 221.538 335.949C221.538 336.463 221.433 336.919 221.223 337.317C221.012 337.714 220.69 338.027 220.255 338.254C219.821 338.479 219.265 338.591 218.589 338.591H216.203V337.636H218.555C219.021 337.636 219.396 337.568 219.68 337.432C219.967 337.295 220.174 337.102 220.302 336.852C220.433 336.599 220.498 336.298 220.498 335.949C220.498 335.599 220.433 335.294 220.302 335.033C220.172 334.771 219.963 334.57 219.676 334.428C219.389 334.283 219.01 334.21 218.538 334.21H216.68V342H215.623ZM219.731 338.08L221.879 342H220.652L218.538 338.08H219.731ZM225.837 342.136C225.206 342.136 224.662 341.997 224.205 341.719C223.75 341.438 223.399 341.045 223.152 340.543C222.908 340.037 222.786 339.449 222.786 338.778C222.786 338.108 222.908 337.517 223.152 337.006C223.399 336.491 223.743 336.091 224.183 335.804C224.626 335.514 225.143 335.369 225.734 335.369C226.075 335.369 226.412 335.426 226.744 335.54C227.077 335.653 227.379 335.838 227.652 336.094C227.925 336.347 228.142 336.682 228.304 337.099C228.466 337.517 228.547 338.031 228.547 338.642V339.068H223.501V338.199H227.524C227.524 337.83 227.45 337.5 227.303 337.21C227.158 336.92 226.95 336.692 226.68 336.524C226.413 336.357 226.098 336.273 225.734 336.273C225.334 336.273 224.987 336.372 224.695 336.571C224.405 336.767 224.182 337.023 224.026 337.338C223.869 337.653 223.791 337.991 223.791 338.352V338.932C223.791 339.426 223.876 339.845 224.047 340.189C224.22 340.53 224.46 340.79 224.767 340.969C225.074 341.145 225.43 341.233 225.837 341.233C226.101 341.233 226.339 341.196 226.553 341.122C226.768 341.045 226.955 340.932 227.111 340.781C227.267 340.628 227.388 340.437 227.473 340.21L228.445 340.483C228.342 340.812 228.17 341.102 227.929 341.352C227.688 341.599 227.389 341.793 227.034 341.932C226.679 342.068 226.28 342.136 225.837 342.136ZM234.713 336.92L233.81 337.176C233.753 337.026 233.669 336.879 233.558 336.737C233.45 336.592 233.303 336.473 233.115 336.379C232.928 336.286 232.688 336.239 232.395 336.239C231.994 336.239 231.661 336.331 231.393 336.516C231.129 336.697 230.997 336.929 230.997 337.21C230.997 337.46 231.088 337.658 231.27 337.803C231.452 337.947 231.736 338.068 232.122 338.165L233.094 338.403C233.679 338.545 234.115 338.763 234.402 339.055C234.689 339.345 234.832 339.719 234.832 340.176C234.832 340.551 234.724 340.886 234.509 341.182C234.295 341.477 233.997 341.71 233.614 341.881C233.23 342.051 232.784 342.136 232.276 342.136C231.608 342.136 231.055 341.991 230.618 341.702C230.18 341.412 229.903 340.989 229.787 340.432L230.741 340.193C230.832 340.545 231.004 340.81 231.257 340.986C231.513 341.162 231.847 341.25 232.259 341.25C232.727 341.25 233.099 341.151 233.375 340.952C233.653 340.75 233.793 340.509 233.793 340.227C233.793 340 233.713 339.81 233.554 339.656C233.395 339.5 233.151 339.384 232.821 339.307L231.73 339.051C231.131 338.909 230.69 338.689 230.409 338.391C230.131 338.089 229.991 337.713 229.991 337.261C229.991 336.892 230.095 336.565 230.303 336.281C230.513 335.997 230.798 335.774 231.159 335.612C231.523 335.45 231.935 335.369 232.395 335.369C233.043 335.369 233.551 335.511 233.92 335.795C234.293 336.08 234.557 336.455 234.713 336.92ZM236.346 344.455V335.455H237.318V336.494H237.437C237.511 336.381 237.613 336.236 237.744 336.06C237.877 335.881 238.068 335.722 238.315 335.582C238.565 335.44 238.903 335.369 239.329 335.369C239.88 335.369 240.366 335.507 240.787 335.783C241.207 336.058 241.535 336.449 241.771 336.955C242.007 337.46 242.125 338.057 242.125 338.744C242.125 339.438 242.007 340.038 241.771 340.547C241.535 341.053 241.208 341.445 240.791 341.723C240.373 341.999 239.892 342.136 239.346 342.136C238.926 342.136 238.589 342.067 238.336 341.928C238.083 341.786 237.889 341.625 237.752 341.446C237.616 341.264 237.511 341.114 237.437 340.994H237.352V344.455H236.346ZM237.335 338.727C237.335 339.222 237.407 339.658 237.552 340.036C237.697 340.411 237.909 340.705 238.187 340.918C238.466 341.128 238.806 341.233 239.21 341.233C239.63 341.233 239.981 341.122 240.262 340.901C240.547 340.676 240.76 340.375 240.902 339.997C241.047 339.616 241.119 339.193 241.119 338.727C241.119 338.267 241.048 337.852 240.906 337.483C240.767 337.111 240.555 336.817 240.271 336.601C239.99 336.382 239.636 336.273 239.21 336.273C238.801 336.273 238.457 336.376 238.179 336.584C237.9 336.788 237.69 337.075 237.548 337.445C237.406 337.811 237.335 338.239 237.335 338.727ZM246.318 342.136C245.727 342.136 245.208 341.996 244.762 341.714C244.319 341.433 243.973 341.04 243.723 340.534C243.475 340.028 243.352 339.437 243.352 338.761C243.352 338.08 243.475 337.484 243.723 336.976C243.973 336.467 244.319 336.072 244.762 335.791C245.208 335.51 245.727 335.369 246.318 335.369C246.909 335.369 247.426 335.51 247.869 335.791C248.315 336.072 248.662 336.467 248.909 336.976C249.159 337.484 249.284 338.08 249.284 338.761C249.284 339.437 249.159 340.028 248.909 340.534C248.662 341.04 248.315 341.433 247.869 341.714C247.426 341.996 246.909 342.136 246.318 342.136ZM246.318 341.233C246.767 341.233 247.136 341.118 247.426 340.888C247.716 340.658 247.93 340.355 248.069 339.98C248.208 339.605 248.278 339.199 248.278 338.761C248.278 338.324 248.208 337.916 248.069 337.538C247.93 337.161 247.716 336.855 247.426 336.622C247.136 336.389 246.767 336.273 246.318 336.273C245.869 336.273 245.5 336.389 245.21 336.622C244.92 336.855 244.706 337.161 244.566 337.538C244.427 337.916 244.358 338.324 244.358 338.761C244.358 339.199 244.427 339.605 244.566 339.98C244.706 340.355 244.92 340.658 245.21 340.888C245.5 341.118 245.869 341.233 246.318 341.233ZM251.825 338.062V342H250.819V335.455H251.79V336.477H251.876C252.029 336.145 252.262 335.878 252.575 335.676C252.887 335.472 253.29 335.369 253.785 335.369C254.228 335.369 254.616 335.46 254.948 335.642C255.281 335.821 255.539 336.094 255.724 336.46C255.908 336.824 256.001 337.284 256.001 337.841V342H254.995V337.909C254.995 337.395 254.862 336.994 254.594 336.707C254.327 336.418 253.961 336.273 253.495 336.273C253.174 336.273 252.887 336.342 252.634 336.482C252.384 336.621 252.187 336.824 252.042 337.091C251.897 337.358 251.825 337.682 251.825 338.062ZM260.31 342.136C259.765 342.136 259.283 341.999 258.865 341.723C258.448 341.445 258.121 341.053 257.885 340.547C257.65 340.038 257.532 339.438 257.532 338.744C257.532 338.057 257.65 337.46 257.885 336.955C258.121 336.449 258.449 336.058 258.87 335.783C259.29 335.507 259.776 335.369 260.327 335.369C260.753 335.369 261.09 335.44 261.337 335.582C261.587 335.722 261.777 335.881 261.908 336.06C262.042 336.236 262.145 336.381 262.219 336.494H262.304V333.273H263.31V342H262.338V340.994H262.219C262.145 341.114 262.04 341.264 261.904 341.446C261.767 341.625 261.573 341.786 261.32 341.928C261.067 342.067 260.73 342.136 260.31 342.136ZM260.446 341.233C260.85 341.233 261.191 341.128 261.469 340.918C261.748 340.705 261.959 340.411 262.104 340.036C262.249 339.658 262.321 339.222 262.321 338.727C262.321 338.239 262.25 337.811 262.108 337.445C261.966 337.075 261.756 336.788 261.478 336.584C261.199 336.376 260.855 336.273 260.446 336.273C260.02 336.273 259.665 336.382 259.381 336.601C259.1 336.817 258.888 337.111 258.746 337.483C258.607 337.852 258.537 338.267 258.537 338.727C258.537 339.193 258.608 339.616 258.75 339.997C258.895 340.375 259.108 340.676 259.39 340.901C259.674 341.122 260.026 341.233 260.446 341.233Z" fill="#FBF8F5"/>
<path d="M33.0568 93V84.2727H34.1136V92.0625H38.1705V93H33.0568ZM42.3295 93.1364C41.7386 93.1364 41.2202 92.9957 40.7741 92.7145C40.331 92.4332 39.9844 92.0398 39.7344 91.5341C39.4872 91.0284 39.3636 90.4375 39.3636 89.7614C39.3636 89.0795 39.4872 88.4844 39.7344 87.9759C39.9844 87.4673 40.331 87.0724 40.7741 86.7912C41.2202 86.5099 41.7386 86.3693 42.3295 86.3693C42.9205 86.3693 43.4375 86.5099 43.8807 86.7912C44.3267 87.0724 44.6733 87.4673 44.9205 87.9759C45.1705 88.4844 45.2955 89.0795 45.2955 89.7614C45.2955 90.4375 45.1705 91.0284 44.9205 91.5341C44.6733 92.0398 44.3267 92.4332 43.8807 92.7145C43.4375 92.9957 42.9205 93.1364 42.3295 93.1364ZM42.3295 92.233C42.7784 92.233 43.1477 92.1179 43.4375 91.8878C43.7273 91.6577 43.9418 91.3551 44.081 90.9801C44.2202 90.6051 44.2898 90.1989 44.2898 89.7614C44.2898 89.3239 44.2202 88.9162 44.081 88.5384C43.9418 88.1605 43.7273 87.8551 43.4375 87.6222C43.1477 87.3892 42.7784 87.2727 42.3295 87.2727C41.8807 87.2727 41.5114 87.3892 41.2216 87.6222C40.9318 87.8551 40.7173 88.1605 40.5781 88.5384C40.4389 88.9162 40.3693 89.3239 40.3693 89.7614C40.3693 90.1989 40.4389 90.6051 40.5781 90.9801C40.7173 91.3551 40.9318 91.6577 41.2216 91.8878C41.5114 92.1179 41.8807 92.233 42.3295 92.233ZM49.4897 93.1364C48.8761 93.1364 48.3477 92.9915 47.9045 92.7017C47.4613 92.4119 47.1204 92.0128 46.8817 91.5043C46.6431 90.9957 46.5238 90.4148 46.5238 89.7614C46.5238 89.0966 46.646 88.5099 46.8903 88.0014C47.1374 87.4901 47.4812 87.0909 47.9215 86.804C48.3647 86.5142 48.8817 86.3693 49.4727 86.3693C49.9329 86.3693 50.3477 86.4545 50.717 86.625C51.0863 86.7955 51.3888 87.0341 51.6246 87.3409C51.8604 87.6477 52.0067 88.0057 52.0636 88.4148H51.0579C50.9812 88.1165 50.8107 87.8523 50.5465 87.6222C50.2852 87.3892 49.9329 87.2727 49.4897 87.2727C49.0977 87.2727 48.7539 87.375 48.4585 87.5795C48.1658 87.7812 47.9371 88.0668 47.7724 88.4361C47.6104 88.8026 47.5295 89.233 47.5295 89.7273C47.5295 90.233 47.609 90.6733 47.7681 91.0483C47.93 91.4233 48.1573 91.7145 48.4499 91.9219C48.7454 92.1293 49.092 92.233 49.4897 92.233C49.7511 92.233 49.9883 92.1875 50.2013 92.0966C50.4144 92.0057 50.5948 91.875 50.7425 91.7045C50.8903 91.5341 50.9954 91.3295 51.0579 91.0909H52.0636C52.0067 91.4773 51.8661 91.8253 51.6417 92.1349C51.4201 92.4418 51.1261 92.6861 50.7596 92.8679C50.396 93.0469 49.9727 93.1364 49.4897 93.1364ZM55.4599 93.1534C55.0451 93.1534 54.6687 93.0753 54.3306 92.919C53.9925 92.7599 53.7241 92.5312 53.5252 92.233C53.3263 91.9318 53.2269 91.5682 53.2269 91.142C53.2269 90.767 53.3008 90.4631 53.4485 90.2301C53.5962 89.9943 53.7937 89.8097 54.0408 89.6761C54.288 89.5426 54.5607 89.4432 54.859 89.3778C55.1602 89.3097 55.4627 89.2557 55.7667 89.2159C56.1644 89.1648 56.4869 89.1264 56.734 89.1009C56.984 89.0724 57.1658 89.0256 57.2795 88.9602C57.396 88.8949 57.4542 88.7812 57.4542 88.6193V88.5852C57.4542 88.1648 57.3391 87.8381 57.109 87.6051C56.8817 87.3722 56.5366 87.2557 56.0735 87.2557C55.5934 87.2557 55.217 87.3608 54.9442 87.571C54.6715 87.7812 54.4798 88.0057 54.369 88.2443L53.4144 87.9034C53.5849 87.5057 53.8121 87.196 54.0962 86.9744C54.3832 86.75 54.6957 86.5937 55.0337 86.5057C55.3746 86.4148 55.7099 86.3693 56.0394 86.3693C56.2496 86.3693 56.4911 86.3949 56.7638 86.446C57.0394 86.4943 57.305 86.5952 57.5607 86.7486C57.8192 86.902 58.0337 87.1335 58.2042 87.4432C58.3746 87.7528 58.4599 88.1676 58.4599 88.6875V93H57.4542V92.1136H57.4031C57.3349 92.2557 57.2212 92.4077 57.0621 92.5696C56.9031 92.7315 56.6914 92.8693 56.4272 92.983C56.163 93.0966 55.8406 93.1534 55.4599 93.1534ZM55.6133 92.25C56.011 92.25 56.3462 92.1719 56.619 92.0156C56.8945 91.8594 57.1019 91.6577 57.2411 91.4105C57.3832 91.1634 57.4542 90.9034 57.4542 90.6307V89.7102C57.4116 89.7614 57.3178 89.8082 57.1729 89.8509C57.0309 89.8906 56.8661 89.9261 56.6786 89.9574C56.494 89.9858 56.3136 90.0114 56.1374 90.0341C55.9641 90.054 55.8235 90.071 55.7156 90.0852C55.4542 90.1193 55.2099 90.1747 54.9826 90.2514C54.7582 90.3253 54.5763 90.4375 54.4371 90.5881C54.3008 90.7358 54.2326 90.9375 54.2326 91.1932C54.2326 91.5426 54.3619 91.8068 54.6204 91.9858C54.8817 92.1619 55.2127 92.25 55.6133 92.25ZM63.142 86.4545V87.3068H59.75V86.4545H63.142ZM60.7386 84.8864H61.7443V91.125C61.7443 91.4091 61.7855 91.6222 61.8679 91.7642C61.9531 91.9034 62.0611 91.9972 62.1918 92.0455C62.3253 92.0909 62.4659 92.1136 62.6136 92.1136C62.7244 92.1136 62.8153 92.108 62.8864 92.0966C62.9574 92.0824 63.0142 92.071 63.0568 92.0625L63.2614 92.9659C63.1932 92.9915 63.098 93.017 62.9759 93.0426C62.8537 93.071 62.6989 93.0852 62.5114 93.0852C62.2273 93.0852 61.9489 93.0241 61.6761 92.902C61.4063 92.7798 61.1818 92.5938 61.0028 92.3438C60.8267 92.0938 60.7386 91.7784 60.7386 91.3977V84.8864ZM64.6548 93V86.4545H65.6605V93H64.6548ZM65.1662 85.3636C64.9702 85.3636 64.8011 85.2969 64.6591 85.1634C64.5199 85.0298 64.4503 84.8693 64.4503 84.6818C64.4503 84.4943 64.5199 84.3338 64.6591 84.2003C64.8011 84.0668 64.9702 84 65.1662 84C65.3622 84 65.5298 84.0668 65.669 84.2003C65.8111 84.3338 65.8821 84.4943 65.8821 84.6818C65.8821 84.8693 65.8111 85.0298 65.669 85.1634C65.5298 85.2969 65.3622 85.3636 65.1662 85.3636ZM70.1616 93.1364C69.5707 93.1364 69.0522 92.9957 68.6062 92.7145C68.163 92.4332 67.8164 92.0398 67.5664 91.5341C67.3192 91.0284 67.1957 90.4375 67.1957 89.7614C67.1957 89.0795 67.3192 88.4844 67.5664 87.9759C67.8164 87.4673 68.163 87.0724 68.6062 86.7912C69.0522 86.5099 69.5707 86.3693 70.1616 86.3693C70.7525 86.3693 71.2695 86.5099 71.7127 86.7912C72.1587 87.0724 72.5053 87.4673 72.7525 87.9759C73.0025 88.4844 73.1275 89.0795 73.1275 89.7614C73.1275 90.4375 73.0025 91.0284 72.7525 91.5341C72.5053 92.0398 72.1587 92.4332 71.7127 92.7145C71.2695 92.9957 70.7525 93.1364 70.1616 93.1364ZM70.1616 92.233C70.6104 92.233 70.9798 92.1179 71.2695 91.8878C71.5593 91.6577 71.7738 91.3551 71.913 90.9801C72.0522 90.6051 72.1218 90.1989 72.1218 89.7614C72.1218 89.3239 72.0522 88.9162 71.913 88.5384C71.7738 88.1605 71.5593 87.8551 71.2695 87.6222C70.9798 87.3892 70.6104 87.2727 70.1616 87.2727C69.7127 87.2727 69.3434 87.3892 69.0536 87.6222C68.7638 87.8551 68.5494 88.1605 68.4102 88.5384C68.271 88.9162 68.2013 89.3239 68.2013 89.7614C68.2013 90.1989 68.271 90.6051 68.4102 90.9801C68.5494 91.3551 68.7638 91.6577 69.0536 91.8878C69.3434 92.1179 69.7127 92.233 70.1616 92.233ZM75.6683 89.0625V93H74.6626V86.4545H75.6342V87.4773H75.7195C75.8729 87.1449 76.1058 86.8778 76.4183 86.6761C76.7308 86.4716 77.1342 86.3693 77.6286 86.3693C78.0717 86.3693 78.4595 86.4602 78.7919 86.642C79.1243 86.821 79.3828 87.0938 79.5675 87.4602C79.7521 87.8239 79.8445 88.2841 79.8445 88.8409V93H78.8388V88.9091C78.8388 88.3949 78.7053 87.9943 78.4382 87.7074C78.1712 87.4176 77.8047 87.2727 77.3388 87.2727C77.0178 87.2727 76.7308 87.3423 76.478 87.4815C76.228 87.6207 76.0305 87.8239 75.8857 88.0909C75.7408 88.358 75.6683 88.6818 75.6683 89.0625Z" fill="black"/>
<rect x="20.5" y="320.5" width="131" height="99" rx="19.5" fill="#FBF8F5" stroke="#3E3E3E"/>
<path d="M62.9716 354.273V363H61.9148V355.381H61.8636L59.733 356.795V355.722L61.9148 354.273H62.9716ZM68.3281 363.119C67.6861 363.119 67.1392 362.945 66.6875 362.595C66.2358 362.243 65.8906 361.733 65.652 361.065C65.4134 360.395 65.294 359.585 65.294 358.636C65.294 357.693 65.4134 356.888 65.652 356.22C65.8935 355.55 66.2401 355.038 66.6918 354.686C67.1463 354.331 67.6918 354.153 68.3281 354.153C68.9645 354.153 69.5085 354.331 69.9602 354.686C70.4148 355.038 70.7614 355.55 71 356.22C71.2415 356.888 71.3622 357.693 71.3622 358.636C71.3622 359.585 71.2429 360.395 71.0043 361.065C70.7656 361.733 70.4205 362.243 69.9688 362.595C69.517 362.945 68.9702 363.119 68.3281 363.119ZM68.3281 362.182C68.9645 362.182 69.4588 361.875 69.8111 361.261C70.1634 360.648 70.3395 359.773 70.3395 358.636C70.3395 357.881 70.2585 357.237 70.0966 356.706C69.9375 356.175 69.7074 355.77 69.4062 355.491C69.108 355.213 68.7486 355.074 68.3281 355.074C67.6974 355.074 67.2045 355.385 66.8494 356.007C66.4943 356.626 66.3168 357.503 66.3168 358.636C66.3168 359.392 66.3963 360.034 66.5554 360.562C66.7145 361.091 66.9432 361.493 67.2415 361.768C67.5426 362.044 67.9048 362.182 68.3281 362.182ZM75.8281 363.119C75.1861 363.119 74.6392 362.945 74.1875 362.595C73.7358 362.243 73.3906 361.733 73.152 361.065C72.9134 360.395 72.794 359.585 72.794 358.636C72.794 357.693 72.9134 356.888 73.152 356.22C73.3935 355.55 73.7401 355.038 74.1918 354.686C74.6463 354.331 75.1918 354.153 75.8281 354.153C76.4645 354.153 77.0085 354.331 77.4602 354.686C77.9148 355.038 78.2614 355.55 78.5 356.22C78.7415 356.888 78.8622 357.693 78.8622 358.636C78.8622 359.585 78.7429 360.395 78.5043 361.065C78.2656 361.733 77.9205 362.243 77.4688 362.595C77.017 362.945 76.4702 363.119 75.8281 363.119ZM75.8281 362.182C76.4645 362.182 76.9588 361.875 77.3111 361.261C77.6634 360.648 77.8395 359.773 77.8395 358.636C77.8395 357.881 77.7585 357.237 77.5966 356.706C77.4375 356.175 77.2074 355.77 76.9062 355.491C76.608 355.213 76.2486 355.074 75.8281 355.074C75.1974 355.074 74.7045 355.385 74.3494 356.007C73.9943 356.626 73.8168 357.503 73.8168 358.636C73.8168 359.392 73.8963 360.034 74.0554 360.562C74.2145 361.091 74.4432 361.493 74.7415 361.768C75.0426 362.044 75.4048 362.182 75.8281 362.182ZM84.2486 358.168V359.105H80.4304V358.168H84.2486ZM85.7965 361.21V360.341L89.6317 354.273H90.2624V355.619H89.8363L86.9386 360.205V360.273H92.1033V361.21H85.7965ZM89.9045 363V360.946V360.541V354.273H90.9102V363H89.9045ZM96.5469 363.119C95.9048 363.119 95.358 362.945 94.9062 362.595C94.4545 362.243 94.1094 361.733 93.8707 361.065C93.6321 360.395 93.5128 359.585 93.5128 358.636C93.5128 357.693 93.6321 356.888 93.8707 356.22C94.1122 355.55 94.4588 355.038 94.9105 354.686C95.3651 354.331 95.9105 354.153 96.5469 354.153C97.1832 354.153 97.7273 354.331 98.179 354.686C98.6335 355.038 98.9801 355.55 99.2188 356.22C99.4602 356.888 99.581 357.693 99.581 358.636C99.581 359.585 99.4616 360.395 99.223 361.065C98.9844 361.733 98.6392 362.243 98.1875 362.595C97.7358 362.945 97.1889 363.119 96.5469 363.119ZM96.5469 362.182C97.1832 362.182 97.6776 361.875 98.0298 361.261C98.3821 360.648 98.5582 359.773 98.5582 358.636C98.5582 357.881 98.4773 357.237 98.3153 356.706C98.1563 356.175 97.9261 355.77 97.625 355.491C97.3267 355.213 96.9673 355.074 96.5469 355.074C95.9162 355.074 95.4233 355.385 95.0682 356.007C94.7131 356.626 94.5355 357.503 94.5355 358.636C94.5355 359.392 94.6151 360.034 94.7741 360.562C94.9332 361.091 95.1619 361.493 95.4602 361.768C95.7614 362.044 96.1236 362.182 96.5469 362.182ZM105.649 361.364V360.903C105.649 360.585 105.714 360.294 105.845 360.03C105.979 359.763 106.172 359.55 106.425 359.391C106.68 359.229 106.99 359.148 107.354 359.148C107.723 359.148 108.033 359.229 108.283 359.391C108.533 359.55 108.722 359.763 108.849 360.03C108.977 360.294 109.041 360.585 109.041 360.903V361.364C109.041 361.682 108.976 361.974 108.845 362.241C108.717 362.506 108.527 362.719 108.274 362.881C108.024 363.04 107.717 363.119 107.354 363.119C106.984 363.119 106.673 363.04 106.42 362.881C106.168 362.719 105.976 362.506 105.845 362.241C105.714 361.974 105.649 361.682 105.649 361.364ZM106.518 360.903V361.364C106.518 361.628 106.581 361.865 106.706 362.075C106.831 362.283 107.047 362.386 107.354 362.386C107.652 362.386 107.862 362.283 107.984 362.075C108.109 361.865 108.172 361.628 108.172 361.364V360.903C108.172 360.639 108.112 360.403 107.993 360.196C107.874 359.986 107.661 359.881 107.354 359.881C107.055 359.881 106.841 359.986 106.71 360.196C106.582 360.403 106.518 360.639 106.518 360.903ZM101.303 356.369V355.909C101.303 355.591 101.368 355.3 101.499 355.036C101.632 354.768 101.825 354.555 102.078 354.396C102.334 354.234 102.643 354.153 103.007 354.153C103.376 354.153 103.686 354.234 103.936 354.396C104.186 354.555 104.375 354.768 104.503 355.036C104.631 355.3 104.695 355.591 104.695 355.909V356.369C104.695 356.687 104.629 356.98 104.499 357.247C104.371 357.511 104.18 357.724 103.928 357.886C103.678 358.045 103.371 358.125 103.007 358.125C102.638 358.125 102.327 358.045 102.074 357.886C101.821 357.724 101.629 357.511 101.499 357.247C101.368 356.98 101.303 356.687 101.303 356.369ZM102.172 355.909V356.369C102.172 356.634 102.234 356.871 102.359 357.081C102.484 357.288 102.7 357.392 103.007 357.392C103.305 357.392 103.516 357.288 103.638 357.081C103.763 356.871 103.825 356.634 103.825 356.369V355.909C103.825 355.645 103.766 355.409 103.646 355.202C103.527 354.991 103.314 354.886 103.007 354.886C102.709 354.886 102.494 354.991 102.364 355.202C102.236 355.409 102.172 355.645 102.172 355.909ZM101.626 363L107.626 354.273H108.598L102.598 363H101.626Z" fill="#3E3E3E"/>
<path d="M59.6989 381.21V380.341L63.5341 374.273H64.1648V375.619H63.7386L60.8409 380.205V380.273H66.0057V381.21H59.6989ZM63.8068 383V380.946V380.541V374.273H64.8125V383H63.8068ZM70.4492 383.119C69.8072 383.119 69.2603 382.945 68.8086 382.595C68.3569 382.243 68.0117 381.733 67.7731 381.065C67.5344 380.395 67.4151 379.585 67.4151 378.636C67.4151 377.693 67.5344 376.888 67.7731 376.22C68.0146 375.55 68.3612 375.038 68.8129 374.686C69.2674 374.331 69.8129 374.153 70.4492 374.153C71.0856 374.153 71.6296 374.331 72.0813 374.686C72.5359 375.038 72.8825 375.55 73.1211 376.22C73.3626 376.888 73.4833 377.693 73.4833 378.636C73.4833 379.585 73.364 380.395 73.1254 381.065C72.8867 381.733 72.5415 382.243 72.0898 382.595C71.6381 382.945 71.0913 383.119 70.4492 383.119ZM70.4492 382.182C71.0856 382.182 71.5799 381.875 71.9322 381.261C72.2844 380.648 72.4606 379.773 72.4606 378.636C72.4606 377.881 72.3796 377.237 72.2177 376.706C72.0586 376.175 71.8285 375.77 71.5273 375.491C71.229 375.213 70.8697 375.074 70.4492 375.074C69.8185 375.074 69.3256 375.385 68.9705 376.007C68.6154 376.626 68.4379 377.503 68.4379 378.636C68.4379 379.392 68.5174 380.034 68.6765 380.562C68.8356 381.091 69.0643 381.493 69.3626 381.768C69.6637 382.044 70.0259 382.182 70.4492 382.182ZM78.8697 378.168V379.105H75.0515V378.168H78.8697ZM83.6903 374.273V383H82.6335V375.381H82.5824L80.4517 376.795V375.722L82.6335 374.273H83.6903ZM88.9276 383.119C88.4276 383.119 87.9773 383.02 87.5767 382.821C87.1761 382.622 86.8551 382.349 86.6136 382.003C86.3722 381.656 86.2401 381.261 86.2173 380.818H87.2401C87.2798 381.213 87.4588 381.54 87.777 381.798C88.098 382.054 88.4815 382.182 88.9276 382.182C89.2855 382.182 89.6037 382.098 89.8821 381.93C90.1634 381.763 90.3835 381.533 90.5426 381.24C90.7045 380.945 90.7855 380.611 90.7855 380.239C90.7855 379.858 90.7017 379.518 90.5341 379.22C90.3693 378.919 90.142 378.682 89.8523 378.509C89.5625 378.335 89.2315 378.247 88.8594 378.244C88.5923 378.241 88.3182 378.283 88.0369 378.368C87.7557 378.45 87.5241 378.557 87.3423 378.688L86.3537 378.568L86.8821 374.273H91.4162V375.21H87.7685L87.4616 377.784H87.5128C87.6918 377.642 87.9162 377.524 88.1861 377.43C88.456 377.337 88.7372 377.29 89.0298 377.29C89.5639 377.29 90.0398 377.418 90.4574 377.673C90.8778 377.926 91.2074 378.273 91.446 378.713C91.6875 379.153 91.8082 379.656 91.8082 380.222C91.8082 380.778 91.6832 381.276 91.4332 381.713C91.1861 382.148 90.8452 382.491 90.4105 382.744C89.9759 382.994 89.4815 383.119 88.9276 383.119ZM97.9499 381.364V380.903C97.9499 380.585 98.0153 380.294 98.146 380.03C98.2795 379.763 98.4727 379.55 98.7255 379.391C98.9812 379.229 99.2908 379.148 99.6545 379.148C100.024 379.148 100.333 379.229 100.583 379.391C100.833 379.55 101.022 379.763 101.15 380.03C101.278 380.294 101.342 380.585 101.342 380.903V381.364C101.342 381.682 101.277 381.974 101.146 382.241C101.018 382.506 100.828 382.719 100.575 382.881C100.325 383.04 100.018 383.119 99.6545 383.119C99.2852 383.119 98.9741 383.04 98.7212 382.881C98.4684 382.719 98.2766 382.506 98.146 382.241C98.0153 381.974 97.9499 381.682 97.9499 381.364ZM98.8192 380.903V381.364C98.8192 381.628 98.8817 381.865 99.0067 382.075C99.1317 382.283 99.3477 382.386 99.6545 382.386C99.9528 382.386 100.163 382.283 100.285 382.075C100.41 381.865 100.473 381.628 100.473 381.364V380.903C100.473 380.639 100.413 380.403 100.294 380.196C100.174 379.986 99.9613 379.881 99.6545 379.881C99.3562 379.881 99.1417 379.986 99.011 380.196C98.8832 380.403 98.8192 380.639 98.8192 380.903ZM93.6033 376.369V375.909C93.6033 375.591 93.6687 375.3 93.7994 375.036C93.9329 374.768 94.1261 374.555 94.3789 374.396C94.6346 374.234 94.9442 374.153 95.3079 374.153C95.6772 374.153 95.9869 374.234 96.2369 374.396C96.4869 374.555 96.6758 374.768 96.8036 375.036C96.9315 375.3 96.9954 375.591 96.9954 375.909V376.369C96.9954 376.687 96.93 376.98 96.7994 377.247C96.6715 377.511 96.4812 377.724 96.2283 377.886C95.9783 378.045 95.6715 378.125 95.3079 378.125C94.9386 378.125 94.6275 378.045 94.3746 377.886C94.1218 377.724 93.93 377.511 93.7994 377.247C93.6687 376.98 93.6033 376.687 93.6033 376.369ZM94.4727 375.909V376.369C94.4727 376.634 94.5352 376.871 94.6602 377.081C94.7852 377.288 95.0011 377.392 95.3079 377.392C95.6062 377.392 95.8164 377.288 95.9386 377.081C96.0636 376.871 96.1261 376.634 96.1261 376.369V375.909C96.1261 375.645 96.0664 375.409 95.9471 375.202C95.8278 374.991 95.6147 374.886 95.3079 374.886C95.0096 374.886 94.7951 374.991 94.6644 375.202C94.5366 375.409 94.4727 375.645 94.4727 375.909ZM93.9272 383L99.9272 374.273H100.899L94.8988 383H93.9272Z" fill="#3E3E3E"/>
<path d="M62.9716 396.273V405H61.9148V397.381H61.8636L59.733 398.795V397.722L61.9148 396.273H62.9716ZM68.2088 405.119C67.7088 405.119 67.2585 405.02 66.858 404.821C66.4574 404.622 66.1364 404.349 65.8949 404.003C65.6534 403.656 65.5213 403.261 65.4986 402.818H66.5213C66.5611 403.213 66.7401 403.54 67.0582 403.798C67.3793 404.054 67.7628 404.182 68.2088 404.182C68.5668 404.182 68.8849 404.098 69.1634 403.93C69.4446 403.763 69.6648 403.533 69.8239 403.24C69.9858 402.945 70.0668 402.611 70.0668 402.239C70.0668 401.858 69.983 401.518 69.8153 401.22C69.6506 400.919 69.4233 400.682 69.1335 400.509C68.8438 400.335 68.5128 400.247 68.1406 400.244C67.8736 400.241 67.5994 400.283 67.3182 400.368C67.0369 400.45 66.8054 400.557 66.6236 400.688L65.6349 400.568L66.1634 396.273H70.6974V397.21H67.0497L66.7429 399.784H66.794C66.973 399.642 67.1974 399.524 67.4673 399.43C67.7372 399.337 68.0185 399.29 68.3111 399.29C68.8452 399.29 69.321 399.418 69.7386 399.673C70.1591 399.926 70.4886 400.273 70.7273 400.713C70.9688 401.153 71.0895 401.656 71.0895 402.222C71.0895 402.778 70.9645 403.276 70.7145 403.713C70.4673 404.148 70.1264 404.491 69.6918 404.744C69.2571 404.994 68.7628 405.119 68.2088 405.119ZM77.2312 403.364V402.903C77.2312 402.585 77.2965 402.294 77.4272 402.03C77.5607 401.763 77.7539 401.55 78.0067 401.391C78.2624 401.229 78.5721 401.148 78.9357 401.148C79.305 401.148 79.6147 401.229 79.8647 401.391C80.1147 401.55 80.3036 401.763 80.4315 402.03C80.5593 402.294 80.6232 402.585 80.6232 402.903V403.364C80.6232 403.682 80.5579 403.974 80.4272 404.241C80.2994 404.506 80.109 404.719 79.8562 404.881C79.6062 405.04 79.2994 405.119 78.9357 405.119C78.5664 405.119 78.2553 405.04 78.0025 404.881C77.7496 404.719 77.5579 404.506 77.4272 404.241C77.2965 403.974 77.2312 403.682 77.2312 403.364ZM78.1005 402.903V403.364C78.1005 403.628 78.163 403.865 78.288 404.075C78.413 404.283 78.6289 404.386 78.9357 404.386C79.234 404.386 79.4442 404.283 79.5664 404.075C79.6914 403.865 79.7539 403.628 79.7539 403.364V402.903C79.7539 402.639 79.6942 402.403 79.5749 402.196C79.4556 401.986 79.2425 401.881 78.9357 401.881C78.6374 401.881 78.4229 401.986 78.2923 402.196C78.1644 402.403 78.1005 402.639 78.1005 402.903ZM72.8846 398.369V397.909C72.8846 397.591 72.9499 397.3 73.0806 397.036C73.2141 396.768 73.4073 396.555 73.6602 396.396C73.9158 396.234 74.2255 396.153 74.5891 396.153C74.9585 396.153 75.2681 396.234 75.5181 396.396C75.7681 396.555 75.957 396.768 76.0849 397.036C76.2127 397.3 76.2766 397.591 76.2766 397.909V398.369C76.2766 398.687 76.2113 398.98 76.0806 399.247C75.9528 399.511 75.7624 399.724 75.5096 399.886C75.2596 400.045 74.9528 400.125 74.5891 400.125C74.2198 400.125 73.9087 400.045 73.6559 399.886C73.4031 399.724 73.2113 399.511 73.0806 399.247C72.9499 398.98 72.8846 398.687 72.8846 398.369ZM73.7539 397.909V398.369C73.7539 398.634 73.8164 398.871 73.9414 399.081C74.0664 399.288 74.2823 399.392 74.5891 399.392C74.8874 399.392 75.0977 399.288 75.2198 399.081C75.3448 398.871 75.4073 398.634 75.4073 398.369V397.909C75.4073 397.645 75.3477 397.409 75.2283 397.202C75.109 396.991 74.896 396.886 74.5891 396.886C74.2908 396.886 74.0763 396.991 73.9457 397.202C73.8178 397.409 73.7539 397.645 73.7539 397.909ZM73.2085 405L79.2085 396.273H80.18L74.18 405H73.2085Z" fill="#3E3E3E"/>
<path d="M38.0568 341V332.273H41.108C41.7159 332.273 42.2173 332.378 42.6122 332.588C43.0071 332.795 43.3011 333.075 43.4943 333.428C43.6875 333.777 43.7841 334.165 43.7841 334.591C43.7841 334.966 43.7173 335.276 43.5838 335.52C43.4531 335.764 43.2798 335.957 43.0639 336.099C42.8509 336.241 42.6193 336.347 42.3693 336.415V336.5C42.6364 336.517 42.9048 336.611 43.1747 336.781C43.4446 336.952 43.6705 337.196 43.8523 337.514C44.0341 337.832 44.125 338.222 44.125 338.682C44.125 339.119 44.0256 339.513 43.8267 339.862C43.6278 340.212 43.3139 340.489 42.8849 340.693C42.456 340.898 41.8977 341 41.2102 341H38.0568ZM39.1136 340.062H41.2102C41.9006 340.062 42.3906 339.929 42.6804 339.662C42.973 339.392 43.1193 339.065 43.1193 338.682C43.1193 338.386 43.044 338.114 42.8935 337.864C42.7429 337.611 42.5284 337.409 42.25 337.259C41.9716 337.105 41.642 337.028 41.2614 337.028H39.1136V340.062ZM39.1136 336.108H41.0739C41.392 336.108 41.679 336.045 41.9347 335.92C42.1932 335.795 42.3977 335.619 42.5483 335.392C42.7017 335.165 42.7784 334.898 42.7784 334.591C42.7784 334.207 42.6449 333.882 42.3778 333.615C42.1108 333.345 41.6875 333.21 41.108 333.21H39.1136V336.108ZM47.6513 341.153C47.2365 341.153 46.8601 341.075 46.522 340.919C46.1839 340.76 45.9155 340.531 45.7166 340.233C45.5178 339.932 45.4183 339.568 45.4183 339.142C45.4183 338.767 45.4922 338.463 45.6399 338.23C45.7876 337.994 45.9851 337.81 46.2322 337.676C46.4794 337.543 46.7521 337.443 47.0504 337.378C47.3516 337.31 47.6541 337.256 47.9581 337.216C48.3558 337.165 48.6783 337.126 48.9254 337.101C49.1754 337.072 49.3572 337.026 49.4709 336.96C49.5874 336.895 49.6456 336.781 49.6456 336.619V336.585C49.6456 336.165 49.5305 335.838 49.3004 335.605C49.0732 335.372 48.728 335.256 48.2649 335.256C47.7848 335.256 47.4084 335.361 47.1357 335.571C46.8629 335.781 46.6712 336.006 46.5604 336.244L45.6058 335.903C45.7763 335.506 46.0036 335.196 46.2876 334.974C46.5746 334.75 46.8871 334.594 47.2251 334.506C47.5661 334.415 47.9013 334.369 48.2308 334.369C48.4411 334.369 48.6825 334.395 48.9553 334.446C49.2308 334.494 49.4964 334.595 49.7521 334.749C50.0107 334.902 50.2251 335.134 50.3956 335.443C50.5661 335.753 50.6513 336.168 50.6513 336.688V341H49.6456V340.114H49.5945C49.5263 340.256 49.4126 340.408 49.2536 340.57C49.0945 340.732 48.8828 340.869 48.6186 340.983C48.3544 341.097 48.032 341.153 47.6513 341.153ZM47.8047 340.25C48.2024 340.25 48.5376 340.172 48.8104 340.016C49.0859 339.859 49.2933 339.658 49.4325 339.411C49.5746 339.163 49.6456 338.903 49.6456 338.631V337.71C49.603 337.761 49.5092 337.808 49.3643 337.851C49.2223 337.891 49.0575 337.926 48.87 337.957C48.6854 337.986 48.505 338.011 48.3288 338.034C48.1555 338.054 48.0149 338.071 47.907 338.085C47.6456 338.119 47.4013 338.175 47.174 338.251C46.9496 338.325 46.7678 338.437 46.6286 338.588C46.4922 338.736 46.424 338.937 46.424 339.193C46.424 339.543 46.5533 339.807 46.8118 339.986C47.0732 340.162 47.4041 340.25 47.8047 340.25ZM55.3335 334.455V335.307H51.9414V334.455H55.3335ZM52.93 332.886H53.9357V339.125C53.9357 339.409 53.9769 339.622 54.0593 339.764C54.1445 339.903 54.2525 339.997 54.3832 340.045C54.5167 340.091 54.6573 340.114 54.805 340.114C54.9158 340.114 55.0067 340.108 55.0778 340.097C55.1488 340.082 55.2056 340.071 55.2482 340.062L55.4528 340.966C55.3846 340.991 55.2894 341.017 55.1673 341.043C55.0451 341.071 54.8903 341.085 54.7028 341.085C54.4187 341.085 54.1403 341.024 53.8675 340.902C53.5977 340.78 53.3732 340.594 53.1942 340.344C53.0181 340.094 52.93 339.778 52.93 339.398V332.886ZM59.6928 334.455V335.307H56.3008V334.455H59.6928ZM57.2894 332.886H58.2951V339.125C58.2951 339.409 58.3363 339.622 58.4187 339.764C58.5039 339.903 58.6119 339.997 58.7425 340.045C58.8761 340.091 59.0167 340.114 59.1644 340.114C59.2752 340.114 59.3661 340.108 59.4371 340.097C59.5082 340.082 59.565 340.071 59.6076 340.062L59.8121 340.966C59.744 340.991 59.6488 341.017 59.5266 341.043C59.4045 341.071 59.2496 341.085 59.0621 341.085C58.7781 341.085 58.4996 341.024 58.2269 340.902C57.957 340.78 57.7326 340.594 57.5536 340.344C57.3775 340.094 57.2894 339.778 57.2894 339.398V332.886ZM63.8796 341.136C63.2489 341.136 62.7049 340.997 62.2475 340.719C61.793 340.438 61.4421 340.045 61.195 339.543C60.9506 339.037 60.8285 338.449 60.8285 337.778C60.8285 337.108 60.9506 336.517 61.195 336.006C61.4421 335.491 61.7859 335.091 62.2262 334.804C62.6694 334.514 63.1864 334.369 63.7773 334.369C64.1183 334.369 64.4549 334.426 64.7873 334.54C65.1197 334.653 65.4222 334.838 65.695 335.094C65.9677 335.347 66.185 335.682 66.3469 336.099C66.5089 336.517 66.5898 337.031 66.5898 337.642V338.068H61.5444V337.199H65.5671C65.5671 336.83 65.4933 336.5 65.3455 336.21C65.2006 335.92 64.9933 335.692 64.7234 335.524C64.4563 335.357 64.141 335.273 63.7773 335.273C63.3768 335.273 63.0302 335.372 62.7376 335.571C62.4478 335.767 62.2248 336.023 62.0685 336.338C61.9123 336.653 61.8342 336.991 61.8342 337.352V337.932C61.8342 338.426 61.9194 338.845 62.0898 339.189C62.2631 339.53 62.5032 339.79 62.81 339.969C63.1168 340.145 63.4734 340.233 63.8796 340.233C64.1438 340.233 64.3825 340.196 64.5955 340.122C64.8114 340.045 64.9975 339.932 65.1538 339.781C65.31 339.628 65.4308 339.437 65.516 339.21L66.4876 339.483C66.3853 339.812 66.2134 340.102 65.9719 340.352C65.7305 340.599 65.4322 340.793 65.0771 340.932C64.7219 341.068 64.3228 341.136 63.8796 341.136ZM68.1197 341V334.455H69.0913V335.443H69.1594C69.2788 335.119 69.4947 334.857 69.8072 334.655C70.1197 334.453 70.4719 334.352 70.864 334.352C70.9379 334.352 71.0302 334.354 71.141 334.357C71.2518 334.359 71.3356 334.364 71.3924 334.369V335.392C71.3583 335.384 71.2802 335.371 71.158 335.354C71.0387 335.334 70.9123 335.324 70.7788 335.324C70.4606 335.324 70.1765 335.391 69.9265 335.524C69.6793 335.655 69.4833 335.837 69.3384 336.07C69.1964 336.3 69.1254 336.562 69.1254 336.858V341H68.1197ZM73.4315 343.455C73.261 343.455 73.109 343.44 72.9755 343.412C72.842 343.386 72.7496 343.361 72.6985 343.335L72.9542 342.449C73.1985 342.511 73.4144 342.534 73.6019 342.517C73.7894 342.5 73.9556 342.416 74.1005 342.266C74.2482 342.118 74.3832 341.878 74.5053 341.545L74.6928 341.034L72.2724 334.455H73.3633L75.1701 339.67H75.2383L77.0451 334.455H78.136L75.3576 341.955C75.2326 342.293 75.0778 342.572 74.8931 342.794C74.7085 343.018 74.494 343.185 74.2496 343.293C74.0082 343.401 73.7354 343.455 73.4315 343.455ZM87.7475 334.455C87.6964 334.023 87.489 333.688 87.1254 333.449C86.7617 333.21 86.3157 333.091 85.7873 333.091C85.4009 333.091 85.0629 333.153 84.7731 333.278C84.4862 333.403 84.2617 333.575 84.0998 333.794C83.9407 334.013 83.8612 334.261 83.8612 334.54C83.8612 334.773 83.9165 334.973 84.0273 335.141C84.141 335.305 84.2859 335.443 84.462 335.554C84.6381 335.662 84.8228 335.751 85.016 335.822C85.2092 335.891 85.3867 335.946 85.5487 335.989L86.435 336.227C86.6623 336.287 86.9151 336.369 87.1935 336.474C87.4748 336.58 87.7433 336.723 87.9989 336.905C88.2575 337.084 88.4705 337.314 88.6381 337.595C88.8058 337.876 88.8896 338.222 88.8896 338.631C88.8896 339.102 88.766 339.528 88.5188 339.909C88.2745 340.29 87.9165 340.592 87.445 340.817C86.9762 341.041 86.4066 341.153 85.7362 341.153C85.1112 341.153 84.57 341.053 84.1126 340.851C83.658 340.649 83.3001 340.368 83.0387 340.007C82.7802 339.646 82.6339 339.227 82.5998 338.75H83.6907C83.7191 339.08 83.8299 339.352 84.0231 339.568C84.2191 339.781 84.4663 339.94 84.7646 340.045C85.0657 340.148 85.3896 340.199 85.7362 340.199C86.1396 340.199 86.5018 340.134 86.8228 340.003C87.1438 339.869 87.3981 339.685 87.5856 339.449C87.7731 339.21 87.8668 338.932 87.8668 338.614C87.8668 338.324 87.7859 338.088 87.6239 337.906C87.462 337.724 87.2489 337.577 86.9847 337.463C86.7205 337.349 86.435 337.25 86.1282 337.165L85.0543 336.858C84.3725 336.662 83.8327 336.382 83.435 336.018C83.0373 335.655 82.8384 335.179 82.8384 334.591C82.8384 334.102 82.9705 333.676 83.2347 333.312C83.5018 332.946 83.8597 332.662 84.3086 332.46C84.7603 332.256 85.2646 332.153 85.8214 332.153C86.3839 332.153 86.8839 332.254 87.3214 332.456C87.7589 332.655 88.1055 332.928 88.3612 333.274C88.6197 333.621 88.756 334.014 88.7702 334.455H87.7475ZM93.3374 334.455V335.307H89.9453V334.455H93.3374ZM90.9339 332.886H91.9396V339.125C91.9396 339.409 91.9808 339.622 92.0632 339.764C92.1484 339.903 92.2564 339.997 92.3871 340.045C92.5206 340.091 92.6612 340.114 92.8089 340.114C92.9197 340.114 93.0107 340.108 93.0817 340.097C93.1527 340.082 93.2095 340.071 93.2521 340.062L93.4567 340.966C93.3885 340.991 93.2933 341.017 93.1712 341.043C93.049 341.071 92.8942 341.085 92.7067 341.085C92.4226 341.085 92.1442 341.024 91.8714 340.902C91.6016 340.78 91.3771 340.594 91.1982 340.344C91.022 340.094 90.9339 339.778 90.9339 339.398V332.886ZM96.7763 341.153C96.3615 341.153 95.9851 341.075 95.647 340.919C95.3089 340.76 95.0405 340.531 94.8416 340.233C94.6428 339.932 94.5433 339.568 94.5433 339.142C94.5433 338.767 94.6172 338.463 94.7649 338.23C94.9126 337.994 95.1101 337.81 95.3572 337.676C95.6044 337.543 95.8771 337.443 96.1754 337.378C96.4766 337.31 96.7791 337.256 97.0831 337.216C97.4808 337.165 97.8033 337.126 98.0504 337.101C98.3004 337.072 98.4822 337.026 98.5959 336.96C98.7124 336.895 98.7706 336.781 98.7706 336.619V336.585C98.7706 336.165 98.6555 335.838 98.4254 335.605C98.1982 335.372 97.853 335.256 97.3899 335.256C96.9098 335.256 96.5334 335.361 96.2607 335.571C95.9879 335.781 95.7962 336.006 95.6854 336.244L94.7308 335.903C94.9013 335.506 95.1286 335.196 95.4126 334.974C95.6996 334.75 96.0121 334.594 96.3501 334.506C96.6911 334.415 97.0263 334.369 97.3558 334.369C97.5661 334.369 97.8075 334.395 98.0803 334.446C98.3558 334.494 98.6214 334.595 98.8771 334.749C99.1357 334.902 99.3501 335.134 99.5206 335.443C99.6911 335.753 99.7763 336.168 99.7763 336.688V341H98.7706V340.114H98.7195C98.6513 340.256 98.5376 340.408 98.3786 340.57C98.2195 340.732 98.0078 340.869 97.7436 340.983C97.4794 341.097 97.157 341.153 96.7763 341.153ZM96.9297 340.25C97.3274 340.25 97.6626 340.172 97.9354 340.016C98.2109 339.859 98.4183 339.658 98.5575 339.411C98.6996 339.163 98.7706 338.903 98.7706 338.631V337.71C98.728 337.761 98.6342 337.808 98.4893 337.851C98.3473 337.891 98.1825 337.926 97.995 337.957C97.8104 337.986 97.63 338.011 97.4538 338.034C97.2805 338.054 97.1399 338.071 97.032 338.085C96.7706 338.119 96.5263 338.175 96.299 338.251C96.0746 338.325 95.8928 338.437 95.7536 338.588C95.6172 338.736 95.549 338.937 95.549 339.193C95.549 339.543 95.6783 339.807 95.9368 339.986C96.1982 340.162 96.5291 340.25 96.9297 340.25ZM104.458 334.455V335.307H101.066V334.455H104.458ZM102.055 332.886H103.061V339.125C103.061 339.409 103.102 339.622 103.184 339.764C103.27 339.903 103.377 339.997 103.508 340.045C103.642 340.091 103.782 340.114 103.93 340.114C104.041 340.114 104.132 340.108 104.203 340.097C104.274 340.082 104.331 340.071 104.373 340.062L104.578 340.966C104.51 340.991 104.414 341.017 104.292 341.043C104.17 341.071 104.015 341.085 103.828 341.085C103.544 341.085 103.265 341.024 102.993 340.902C102.723 340.78 102.498 340.594 102.319 340.344C102.143 340.094 102.055 339.778 102.055 339.398V332.886ZM110.096 338.324V334.455H111.102V341H110.096V339.892H110.028C109.875 340.224 109.636 340.507 109.312 340.74C108.988 340.97 108.579 341.085 108.085 341.085C107.676 341.085 107.312 340.996 106.994 340.817C106.676 340.635 106.426 340.362 106.244 339.999C106.062 339.632 105.971 339.17 105.971 338.614V334.455H106.977V338.545C106.977 339.023 107.11 339.403 107.377 339.688C107.647 339.972 107.991 340.114 108.409 340.114C108.659 340.114 108.913 340.05 109.172 339.922C109.433 339.794 109.652 339.598 109.828 339.334C110.007 339.07 110.096 338.733 110.096 338.324ZM117.58 335.92L116.677 336.176C116.62 336.026 116.536 335.879 116.425 335.737C116.317 335.592 116.17 335.473 115.982 335.379C115.795 335.286 115.555 335.239 115.262 335.239C114.862 335.239 114.528 335.331 114.261 335.516C113.996 335.697 113.864 335.929 113.864 336.21C113.864 336.46 113.955 336.658 114.137 336.803C114.319 336.947 114.603 337.068 114.989 337.165L115.961 337.403C116.546 337.545 116.982 337.763 117.269 338.055C117.556 338.345 117.7 338.719 117.7 339.176C117.7 339.551 117.592 339.886 117.376 340.182C117.163 340.477 116.864 340.71 116.481 340.881C116.097 341.051 115.651 341.136 115.143 341.136C114.475 341.136 113.923 340.991 113.485 340.702C113.048 340.412 112.771 339.989 112.654 339.432L113.609 339.193C113.7 339.545 113.871 339.81 114.124 339.986C114.38 340.162 114.714 340.25 115.126 340.25C115.594 340.25 115.967 340.151 116.242 339.952C116.521 339.75 116.66 339.509 116.66 339.227C116.66 339 116.58 338.81 116.421 338.656C116.262 338.5 116.018 338.384 115.688 338.307L114.597 338.051C113.998 337.909 113.558 337.689 113.276 337.391C112.998 337.089 112.859 336.713 112.859 336.261C112.859 335.892 112.962 335.565 113.17 335.281C113.38 334.997 113.665 334.774 114.026 334.612C114.39 334.45 114.802 334.369 115.262 334.369C115.91 334.369 116.418 334.511 116.788 334.795C117.16 335.08 117.424 335.455 117.58 335.92Z" fill="#3E3E3E"/>
<circle cx="44" cy="359" r="6.5" fill="#09BB4A" stroke="#FBF8F5"/>
<circle cx="44" cy="379" r="6.5" fill="#FF9500" stroke="#FBF8F5"/>
<circle cx="44" cy="399" r="6.5" fill="#BF0000" stroke="#FBF8F5"/>
<rect x="53" y="489" width="207" height="56" rx="28" fill="#3E3E3E"/>
<ellipse cx="80" cy="517" rx="24" ry="25" fill="white"/>
<path d="M177.556 513H186.444M177.556 517H184.222M183.111 524L182 525L178.667 522H175.333C174.449 522 173.601 521.684 172.976 521.121C172.351 520.559 172 519.796 172 519V511C172 510.204 172.351 509.441 172.976 508.879C173.601 508.316 174.449 508 175.333 508H188.667C189.551 508 190.399 508.316 191.024 508.879C191.649 509.441 192 510.204 192 511V516.5M189.778 520L187.556 523H192L189.778 526" stroke="#FBF8F5" stroke-linecap="round" stroke-linejoin="round"/>
<path fill-rule="evenodd" clip-rule="evenodd" d="M79.7967 508.496C79.2975 508.068 78.6619 507.833 78.0046 507.833C77.3473 507.833 76.7117 508.068 76.2125 508.496L70.8683 513.079C70.517 513.381 70.2351 513.755 70.0421 514.176C69.8491 514.597 69.7494 515.055 69.75 515.518V523.878C69.75 524.179 69.8093 524.477 69.9244 524.755C70.0396 525.033 70.2084 525.285 70.4212 525.498C70.634 525.711 70.8866 525.88 71.1647 525.995C71.4427 526.11 71.7407 526.169 72.0417 526.169H78H83.9583C84.2593 526.169 84.5573 526.11 84.8353 525.995C85.1134 525.88 85.366 525.711 85.5788 525.498C85.7916 525.285 85.9604 525.033 86.0756 524.755C86.1907 524.477 86.25 524.179 86.25 523.878V515.518C86.2494 515.055 86.1492 514.598 85.9562 514.177C85.7633 513.756 85.4821 513.382 85.1317 513.079L79.7875 508.496H79.7967ZM80.7592 525.271H83.9675C84.3322 525.271 84.6819 525.126 84.9398 524.868C85.1976 524.61 85.3425 524.261 85.3425 523.896V515.536C85.3425 514.867 85.0501 514.234 84.5432 513.794L79.199 509.211C78.8673 508.926 78.4445 508.77 78.0073 508.77C77.5702 508.77 77.1474 508.926 76.8157 509.211L71.4715 513.794C71.2205 514.01 71.019 514.277 70.881 514.578C70.7431 514.878 70.6718 515.205 70.6722 515.536V523.896C70.6722 524.261 70.817 524.61 71.0749 524.868C71.3328 525.126 71.6825 525.271 72.0472 525.271H75.2555V518.854C75.2555 517.846 76.0759 517.021 77.0888 517.021H78.9222C79.9305 517.021 80.7555 517.842 80.7555 518.854V525.271H80.7592ZM79.7875 526.169H76.1758V518.854C76.1758 518.611 76.2724 518.378 76.4443 518.206C76.6162 518.034 76.8494 517.938 77.0925 517.938H78.9258C79.169 517.938 79.4021 518.034 79.574 518.206C79.7459 518.378 79.8425 518.611 79.8425 518.854L79.7875 526.169Z" fill="#3E3E3E"/>
<path d="M125.975 517.189C125.975 514.375 128.14 512.094 130.811 512.094C133.482 512.094 135.647 514.375 135.647 517.189V525.34H125.975V517.189Z" stroke="#FBF8F5" stroke-linejoin="round"/>
<path d="M130.811 507V508.528M136.562 509.205L135.629 510.376M139.622 514.788L138.193 515.053M122 514.788L123.429 515.053M125.06 509.205L125.993 510.376M122.106 525.34H140" stroke="#FBF8F5" stroke-linecap="round" stroke-linejoin="round"/>
<path d="M232.209 507.5L232.035 508C231.864 508.49 231.632 508.958 231.344 509.394C230.957 509.976 230.429 510.459 229.804 510.803C229.18 511.147 228.477 511.342 227.756 511.371C227.216 511.39 226.676 511.348 226.146 511.245L225.605 511.139L224.157 513.531L224.524 513.926C224.885 514.315 225.193 514.741 225.444 515.194C225.778 515.804 225.953 516.482 225.953 517.17C225.953 517.858 225.778 518.536 225.444 519.146C225.191 519.602 224.882 520.028 224.524 520.414L224.157 520.809L225.605 523.201L226.145 523.095C226.675 522.992 227.216 522.95 227.757 522.969C228.478 522.998 229.18 523.193 229.805 523.537C230.429 523.881 230.957 524.364 231.344 524.946C231.629 525.378 231.862 525.847 232.035 526.34L232.209 526.84H235.105L235.279 526.34C235.453 525.845 235.683 525.38 235.97 524.946C236.357 524.364 236.885 523.881 237.51 523.537C238.134 523.193 238.837 522.998 239.558 522.969C240.098 522.95 240.638 522.992 241.168 523.095L241.709 523.201L243.157 520.809L242.79 520.414C242.432 520.028 242.123 519.602 241.87 519.146C241.536 518.536 241.361 517.858 241.361 517.17C241.361 516.482 241.536 515.804 241.87 515.194C242.121 514.741 242.429 514.315 242.79 513.926L243.157 513.531L241.709 511.139L241.169 511.245C240.639 511.348 240.098 511.39 239.557 511.371C238.836 511.342 238.134 511.147 237.509 510.803C236.885 510.459 236.357 509.976 235.97 509.394C235.682 508.958 235.45 508.49 235.279 508L235.105 507.5H232.209Z" stroke="#FBF8F5"/>
<path d="M237.037 517.17C237.037 518.025 236.681 518.846 236.047 519.451C235.413 520.055 234.553 520.395 233.657 520.395C232.761 520.395 231.901 520.055 231.267 519.451C230.633 518.846 230.277 518.025 230.277 517.17C230.277 516.315 230.633 515.494 231.267 514.889C231.901 514.285 232.761 513.945 233.657 513.945C234.553 513.945 235.413 514.285 236.047 514.889C236.681 515.494 237.037 516.315 237.037 517.17Z" stroke="#FBF8F5"/>
</g>
<defs>
<clipPath id="clip0_160_36">
<rect width="320" height="568" fill="white"/>
</clipPath>
</defs>
</svg>
