<svg width="176" height="215" viewBox="0 0 176 215" fill="none" xmlns="http://www.w3.org/2000/svg">
<g clip-path="url(#clip0_1_5)">
<rect width="176" height="215" fill="white"/>
<rect width="176" height="215" fill="#FBFAF5"/>
<path d="M46.2656 51.7344V86H43.4766V55.2734L34.1953 58.7188V56.0703L45.7969 51.7344H46.2656ZM80.4141 66.0078V71.75C80.4141 74.25 80.1797 76.4297 79.7109 78.2891C79.2422 80.1328 78.5547 81.6641 77.6484 82.8828C76.7578 84.0859 75.6641 84.9844 74.3672 85.5781C73.0859 86.1719 71.6172 86.4688 69.9609 86.4688C68.6484 86.4688 67.4453 86.2812 66.3516 85.9062C65.2578 85.5312 64.2812 84.9609 63.4219 84.1953C62.5781 83.4141 61.8594 82.4375 61.2656 81.2656C60.6719 80.0938 60.2188 78.7188 59.9062 77.1406C59.5938 75.5469 59.4375 73.75 59.4375 71.75V66.0078C59.4375 63.4922 59.6719 61.3203 60.1406 59.4922C60.625 57.6641 61.3125 56.1484 62.2031 54.9453C63.1094 53.7422 64.2109 52.8516 65.5078 52.2734C66.8047 51.6797 68.2734 51.3828 69.9141 51.3828C71.2266 51.3828 72.4297 51.5781 73.5234 51.9688C74.6328 52.3438 75.6094 52.9062 76.4531 53.6562C77.3125 54.4062 78.0312 55.3672 78.6094 56.5391C79.2031 57.6953 79.6484 59.0625 79.9453 60.6406C80.2578 62.2188 80.4141 64.0078 80.4141 66.0078ZM77.625 72.0781V65.6562C77.625 64.1094 77.5156 62.7031 77.2969 61.4375C77.0938 60.1719 76.7891 59.0625 76.3828 58.1094C75.9766 57.1562 75.4609 56.3594 74.8359 55.7188C74.2266 55.0781 73.5078 54.6016 72.6797 54.2891C71.8672 53.9609 70.9453 53.7969 69.9141 53.7969C68.6484 53.7969 67.5312 54.0547 66.5625 54.5703C65.6094 55.0703 64.8125 55.8203 64.1719 56.8203C63.5312 57.8047 63.0469 59.0391 62.7188 60.5234C62.4062 62.0078 62.25 63.7188 62.25 65.6562V72.0781C62.25 73.6094 62.3516 75.0078 62.5547 76.2734C62.7578 77.5234 63.0703 78.6328 63.4922 79.6016C63.9141 80.5703 64.4297 81.3906 65.0391 82.0625C65.6641 82.7188 66.3828 83.2188 67.1953 83.5625C68.0234 83.8906 68.9453 84.0547 69.9609 84.0547C71.2578 84.0547 72.3828 83.7969 73.3359 83.2812C74.2891 82.75 75.0859 81.9766 75.7266 80.9609C76.3672 79.9297 76.8438 78.6719 77.1562 77.1875C77.4688 75.6875 77.625 73.9844 77.625 72.0781ZM86.2031 84.2891C86.2031 83.7422 86.375 83.2812 86.7188 82.9062C87.0781 82.5156 87.5625 82.3203 88.1719 82.3203C88.7969 82.3203 89.2891 82.5156 89.6484 82.9062C90.0078 83.2812 90.1875 83.7422 90.1875 84.2891C90.1875 84.8203 90.0078 85.2734 89.6484 85.6484C89.2891 86.0234 88.7969 86.2109 88.1719 86.2109C87.5625 86.2109 87.0781 86.0234 86.7188 85.6484C86.375 85.2734 86.2031 84.8203 86.2031 84.2891ZM86.2734 62.6562C86.2734 62.1094 86.4453 61.6484 86.7891 61.2734C87.1484 60.8828 87.6328 60.6875 88.2422 60.6875C88.8672 60.6875 89.3594 60.8828 89.7188 61.2734C90.0781 61.6484 90.2578 62.1094 90.2578 62.6562C90.2578 63.1875 90.0781 63.6406 89.7188 64.0156C89.3594 64.3906 88.8672 64.5781 88.2422 64.5781C87.6328 64.5781 87.1484 64.3906 86.7891 64.0156C86.4453 63.6406 86.2734 63.1875 86.2734 62.6562ZM102.797 67.3906H105.656C107.406 67.3906 108.867 67.0938 110.039 66.5C111.227 65.8906 112.117 65.0859 112.711 64.0859C113.32 63.0859 113.625 61.9766 113.625 60.7578C113.625 59.3828 113.367 58.1797 112.852 57.1484C112.336 56.1016 111.547 55.2891 110.484 54.7109C109.438 54.1172 108.094 53.8203 106.453 53.8203C105.016 53.8203 103.734 54.1016 102.609 54.6641C101.484 55.2266 100.594 56.0312 99.9375 57.0781C99.2812 58.125 98.9531 59.375 98.9531 60.8281H96.1641C96.1641 58.9688 96.6094 57.3359 97.5 55.9297C98.3906 54.5078 99.6172 53.3984 101.18 52.6016C102.742 51.8047 104.5 51.4062 106.453 51.4062C108.469 51.4062 110.219 51.7734 111.703 52.5078C113.203 53.2422 114.359 54.3125 115.172 55.7188C116 57.125 116.414 58.8359 116.414 60.8516C116.414 61.8828 116.188 62.8984 115.734 63.8984C115.297 64.8984 114.641 65.8047 113.766 66.6172C112.891 67.4141 111.805 68.0547 110.508 68.5391C109.211 69.0234 107.703 69.2656 105.984 69.2656H102.797V67.3906ZM102.797 69.8047V67.9531H105.984C107.938 67.9531 109.609 68.1797 111 68.6328C112.391 69.0703 113.531 69.6953 114.422 70.5078C115.328 71.3047 115.992 72.2344 116.414 73.2969C116.836 74.3594 117.047 75.5 117.047 76.7188C117.047 78.2812 116.789 79.6641 116.273 80.8672C115.758 82.0703 115.023 83.0938 114.07 83.9375C113.133 84.7656 112.023 85.3984 110.742 85.8359C109.477 86.2578 108.086 86.4688 106.57 86.4688C105.195 86.4688 103.852 86.2656 102.539 85.8594C101.242 85.4531 100.07 84.8516 99.0234 84.0547C97.9922 83.2422 97.1719 82.2266 96.5625 81.0078C95.9531 79.7734 95.6484 78.3516 95.6484 76.7422H98.4375C98.4375 78.1797 98.7812 79.4531 99.4688 80.5625C100.156 81.6562 101.109 82.5156 102.328 83.1406C103.562 83.75 104.977 84.0547 106.57 84.0547C108.18 84.0547 109.555 83.7812 110.695 83.2344C111.852 82.6719 112.734 81.8516 113.344 80.7734C113.953 79.6953 114.258 78.375 114.258 76.8125C114.258 75.1719 113.891 73.8359 113.156 72.8047C112.438 71.7734 111.43 71.0156 110.133 70.5312C108.852 70.0469 107.359 69.8047 105.656 69.8047H102.797ZM143.742 66.0078V71.75C143.742 74.25 143.508 76.4297 143.039 78.2891C142.57 80.1328 141.883 81.6641 140.977 82.8828C140.086 84.0859 138.992 84.9844 137.695 85.5781C136.414 86.1719 134.945 86.4688 133.289 86.4688C131.977 86.4688 130.773 86.2812 129.68 85.9062C128.586 85.5312 127.609 84.9609 126.75 84.1953C125.906 83.4141 125.188 82.4375 124.594 81.2656C124 80.0938 123.547 78.7188 123.234 77.1406C122.922 75.5469 122.766 73.75 122.766 71.75V66.0078C122.766 63.4922 123 61.3203 123.469 59.4922C123.953 57.6641 124.641 56.1484 125.531 54.9453C126.438 53.7422 127.539 52.8516 128.836 52.2734C130.133 51.6797 131.602 51.3828 133.242 51.3828C134.555 51.3828 135.758 51.5781 136.852 51.9688C137.961 52.3438 138.938 52.9062 139.781 53.6562C140.641 54.4062 141.359 55.3672 141.938 56.5391C142.531 57.6953 142.977 59.0625 143.273 60.6406C143.586 62.2188 143.742 64.0078 143.742 66.0078ZM140.953 72.0781V65.6562C140.953 64.1094 140.844 62.7031 140.625 61.4375C140.422 60.1719 140.117 59.0625 139.711 58.1094C139.305 57.1562 138.789 56.3594 138.164 55.7188C137.555 55.0781 136.836 54.6016 136.008 54.2891C135.195 53.9609 134.273 53.7969 133.242 53.7969C131.977 53.7969 130.859 54.0547 129.891 54.5703C128.938 55.0703 128.141 55.8203 127.5 56.8203C126.859 57.8047 126.375 59.0391 126.047 60.5234C125.734 62.0078 125.578 63.7188 125.578 65.6562V72.0781C125.578 73.6094 125.68 75.0078 125.883 76.2734C126.086 77.5234 126.398 78.6328 126.82 79.6016C127.242 80.5703 127.758 81.3906 128.367 82.0625C128.992 82.7188 129.711 83.2188 130.523 83.5625C131.352 83.8906 132.273 84.0547 133.289 84.0547C134.586 84.0547 135.711 83.7969 136.664 83.2812C137.617 82.75 138.414 81.9766 139.055 80.9609C139.695 79.9297 140.172 78.6719 140.484 77.1875C140.797 75.6875 140.953 73.9844 140.953 72.0781Z" fill="#3E3E3E"/>
<path d="M70.9268 99.252C70.9268 99.0566 70.8942 98.8825 70.8291 98.7295C70.764 98.5765 70.6566 98.4398 70.5068 98.3193C70.3604 98.1956 70.1618 98.0817 69.9111 97.9775C69.6637 97.8701 69.3545 97.7643 68.9834 97.6602C68.6286 97.5592 68.3079 97.4486 68.0215 97.3281C67.735 97.2077 67.4893 97.0693 67.2842 96.9131C67.0824 96.7568 66.9277 96.5745 66.8203 96.3662C66.7129 96.1546 66.6592 95.9089 66.6592 95.6289C66.6592 95.3555 66.7178 95.1064 66.835 94.8818C66.9521 94.6572 67.1165 94.4635 67.3281 94.3008C67.543 94.138 67.7952 94.0127 68.085 93.9248C68.3779 93.8369 68.6986 93.793 69.0469 93.793C69.5449 93.793 69.9746 93.8874 70.3359 94.0762C70.7005 94.265 70.9821 94.5205 71.1807 94.8428C71.3825 95.1618 71.4834 95.5199 71.4834 95.917H70.8828C70.8828 95.6077 70.8096 95.3327 70.6631 95.0918C70.5199 94.8477 70.3115 94.6572 70.0381 94.5205C69.7679 94.3805 69.4375 94.3105 69.0469 94.3105C68.6562 94.3105 68.3275 94.3708 68.0605 94.4912C67.7969 94.6084 67.5967 94.7663 67.46 94.9648C67.3265 95.1602 67.2598 95.3783 67.2598 95.6191C67.2598 95.7884 67.2923 95.9447 67.3574 96.0879C67.4225 96.2279 67.5283 96.3597 67.6748 96.4834C67.8245 96.6038 68.0215 96.7178 68.2656 96.8252C68.5098 96.9294 68.8109 97.0286 69.1689 97.123C69.5465 97.2272 69.8818 97.3428 70.1748 97.4697C70.4678 97.5967 70.7152 97.7432 70.917 97.9092C71.1188 98.0719 71.2718 98.2624 71.376 98.4805C71.4801 98.6986 71.5322 98.9525 71.5322 99.2422C71.5322 99.5319 71.4704 99.7923 71.3467 100.023C71.2262 100.251 71.0553 100.445 70.834 100.604C70.6159 100.764 70.3571 100.886 70.0576 100.971C69.7614 101.055 69.4375 101.098 69.0859 101.098C68.7702 101.098 68.4561 101.057 68.1436 100.976C67.8311 100.894 67.5446 100.769 67.2842 100.6C67.027 100.427 66.8203 100.206 66.6641 99.9355C66.5111 99.6654 66.4346 99.3431 66.4346 98.9688H67.0303C67.0303 99.2682 67.0905 99.5205 67.2109 99.7256C67.3314 99.9307 67.4909 100.097 67.6895 100.224C67.8913 100.351 68.1126 100.443 68.3535 100.502C68.5977 100.557 68.8418 100.585 69.0859 100.585C69.4603 100.585 69.7842 100.53 70.0576 100.419C70.3343 100.308 70.5475 100.154 70.6973 99.9551C70.8503 99.7533 70.9268 99.5189 70.9268 99.252ZM75.9072 100.053V97.3281C75.9072 97.0775 75.8551 96.861 75.751 96.6787C75.6468 96.4964 75.4938 96.3564 75.292 96.2588C75.0902 96.1611 74.8411 96.1123 74.5449 96.1123C74.2715 96.1123 74.0273 96.1611 73.8125 96.2588C73.6009 96.3532 73.4333 96.4818 73.3096 96.6445C73.1891 96.804 73.1289 96.9814 73.1289 97.1768L72.543 97.1719C72.543 96.9733 72.5918 96.7812 72.6895 96.5957C72.7871 96.4102 72.9255 96.2441 73.1045 96.0977C73.2835 95.9512 73.4967 95.8356 73.7441 95.751C73.9948 95.6631 74.2699 95.6191 74.5693 95.6191C74.9469 95.6191 75.279 95.6826 75.5654 95.8096C75.8551 95.9365 76.0814 96.127 76.2441 96.3809C76.4069 96.6348 76.4883 96.9538 76.4883 97.3379V99.8916C76.4883 100.074 76.5013 100.263 76.5273 100.458C76.5566 100.653 76.5973 100.814 76.6494 100.941V101H76.0293C75.9902 100.883 75.9593 100.736 75.9365 100.561C75.917 100.382 75.9072 100.212 75.9072 100.053ZM76.0439 97.9238L76.0537 98.373H74.9062C74.6068 98.373 74.3382 98.4007 74.1006 98.4561C73.8662 98.5081 73.6676 98.5863 73.5049 98.6904C73.3421 98.7913 73.2168 98.9134 73.1289 99.0566C73.0443 99.1999 73.002 99.3626 73.002 99.5449C73.002 99.7337 73.0492 99.9062 73.1436 100.062C73.2412 100.219 73.3779 100.344 73.5537 100.438C73.7327 100.53 73.9443 100.575 74.1885 100.575C74.514 100.575 74.8005 100.515 75.0479 100.395C75.2985 100.274 75.5052 100.116 75.668 99.9209C75.8307 99.7256 75.9398 99.5124 75.9951 99.2812L76.249 99.6182C76.2067 99.7809 76.1286 99.9486 76.0146 100.121C75.904 100.29 75.7591 100.45 75.5801 100.6C75.401 100.746 75.1895 100.867 74.9453 100.961C74.7044 101.052 74.431 101.098 74.125 101.098C73.7799 101.098 73.4788 101.033 73.2217 100.902C72.9678 100.772 72.7692 100.595 72.626 100.37C72.486 100.142 72.416 99.8851 72.416 99.5986C72.416 99.3382 72.4714 99.1055 72.582 98.9004C72.6927 98.6921 72.8522 98.5163 73.0605 98.373C73.2721 98.2266 73.526 98.1159 73.8223 98.041C74.1217 97.9629 74.457 97.9238 74.8281 97.9238H76.0439ZM80.0527 95.7168V96.1953H77.4062V95.7168H80.0527ZM78.3779 94.3594H78.959V99.7158C78.959 99.96 78.9915 100.144 79.0566 100.268C79.1217 100.391 79.2064 100.474 79.3105 100.517C79.4147 100.559 79.527 100.58 79.6475 100.58C79.7354 100.58 79.82 100.575 79.9014 100.565C79.9827 100.552 80.056 100.539 80.1211 100.526L80.1455 101.02C80.0739 101.042 79.9811 101.06 79.8672 101.073C79.7533 101.09 79.6393 101.098 79.5254 101.098C79.3008 101.098 79.1022 101.057 78.9297 100.976C78.7572 100.891 78.6221 100.748 78.5244 100.546C78.4268 100.341 78.3779 100.062 78.3779 99.7109V94.3594ZM81.8398 100.077V100.761C81.8398 101.06 81.778 101.348 81.6543 101.625C81.5306 101.905 81.363 102.141 81.1514 102.333L80.8096 102.079C80.9105 101.942 80.9951 101.806 81.0635 101.669C81.1318 101.535 81.1823 101.396 81.2148 101.249C81.2507 101.103 81.2686 100.945 81.2686 100.775V100.077H81.8398ZM91.0732 93.8906V101H90.4678L86.3809 94.9258V101H85.7803V93.8906H86.3809L90.4775 99.9648V93.8906H91.0732ZM92.4307 98.4414V98.2803C92.4307 97.8962 92.486 97.5413 92.5967 97.2158C92.7074 96.8903 92.8652 96.6087 93.0703 96.3711C93.2786 96.1335 93.5277 95.9495 93.8174 95.8193C94.1071 95.6859 94.4294 95.6191 94.7842 95.6191C95.1423 95.6191 95.4661 95.6859 95.7559 95.8193C96.0456 95.9495 96.2946 96.1335 96.5029 96.3711C96.7113 96.6087 96.8708 96.8903 96.9814 97.2158C97.0921 97.5413 97.1475 97.8962 97.1475 98.2803V98.4414C97.1475 98.8255 97.0921 99.1803 96.9814 99.5059C96.8708 99.8281 96.7113 100.108 96.5029 100.346C96.2979 100.583 96.0505 100.769 95.7607 100.902C95.471 101.033 95.1488 101.098 94.7939 101.098C94.4359 101.098 94.112 101.033 93.8223 100.902C93.5326 100.769 93.2835 100.583 93.0752 100.346C92.8669 100.108 92.7074 99.8281 92.5967 99.5059C92.486 99.1803 92.4307 98.8255 92.4307 98.4414ZM93.0117 98.2803V98.4414C93.0117 98.7311 93.0508 99.0062 93.1289 99.2666C93.207 99.5238 93.321 99.7533 93.4707 99.9551C93.6204 100.154 93.806 100.31 94.0273 100.424C94.2487 100.538 94.5042 100.595 94.7939 100.595C95.0804 100.595 95.3327 100.538 95.5508 100.424C95.7721 100.31 95.9577 100.154 96.1074 99.9551C96.2572 99.7533 96.3695 99.5238 96.4443 99.2666C96.5225 99.0062 96.5615 98.7311 96.5615 98.4414V98.2803C96.5615 97.9938 96.5225 97.722 96.4443 97.4648C96.3695 97.2077 96.2555 96.9782 96.1025 96.7764C95.9528 96.5745 95.7673 96.415 95.5459 96.2979C95.3245 96.1807 95.0706 96.1221 94.7842 96.1221C94.4977 96.1221 94.2438 96.1807 94.0225 96.2979C93.8044 96.415 93.6188 96.5745 93.4658 96.7764C93.3161 96.9782 93.2021 97.2077 93.124 97.4648C93.0492 97.722 93.0117 97.9938 93.0117 98.2803ZM99.8379 100.438L101.532 95.7168H102.133L100.155 101H99.7305L99.8379 100.438ZM98.3047 95.7168L100.019 100.453L100.111 101H99.6816L97.6992 95.7168H98.3047ZM106.244 100.541H106.371C106.889 100.541 107.322 100.466 107.67 100.316C108.018 100.163 108.297 99.9535 108.505 99.6865C108.716 99.4163 108.868 99.1006 108.959 98.7393C109.05 98.3779 109.096 97.9857 109.096 97.5625V96.5713C109.096 96.1969 109.055 95.8682 108.974 95.585C108.892 95.3018 108.777 95.0658 108.627 94.877C108.477 94.6849 108.3 94.54 108.095 94.4424C107.893 94.3447 107.668 94.2959 107.421 94.2959C107.177 94.2959 106.955 94.348 106.757 94.4521C106.562 94.5563 106.396 94.7012 106.259 94.8867C106.125 95.069 106.021 95.279 105.946 95.5166C105.875 95.751 105.839 96 105.839 96.2637C105.839 96.5046 105.871 96.7389 105.937 96.9668C106.005 97.1914 106.104 97.3949 106.234 97.5771C106.365 97.7562 106.524 97.8994 106.713 98.0068C106.905 98.111 107.126 98.1631 107.377 98.1631C107.66 98.1631 107.911 98.1094 108.129 98.002C108.35 97.8945 108.537 97.7562 108.69 97.5869C108.847 97.4144 108.965 97.2288 109.047 97.0303C109.132 96.8285 109.177 96.6331 109.184 96.4443L109.477 96.4395C109.477 96.7357 109.421 97.0189 109.311 97.2891C109.203 97.556 109.05 97.7936 108.852 98.002C108.656 98.207 108.427 98.3698 108.163 98.4902C107.899 98.6107 107.615 98.6709 107.309 98.6709C106.977 98.6709 106.682 98.6058 106.425 98.4756C106.171 98.3421 105.958 98.1631 105.785 97.9385C105.616 97.7106 105.487 97.4551 105.399 97.1719C105.312 96.8887 105.268 96.5941 105.268 96.2881C105.268 95.9463 105.315 95.6257 105.409 95.3262C105.507 95.0234 105.648 94.7581 105.834 94.5303C106.02 94.2992 106.244 94.1185 106.508 93.9883C106.775 93.8581 107.076 93.793 107.411 93.793C107.792 93.793 108.124 93.863 108.407 94.0029C108.69 94.1396 108.925 94.335 109.11 94.5889C109.299 94.8428 109.439 95.1423 109.53 95.4873C109.625 95.8324 109.672 96.2132 109.672 96.6299V97.1914C109.672 97.6113 109.639 98.0133 109.574 98.3975C109.509 98.7816 109.4 99.1364 109.247 99.4619C109.097 99.7842 108.896 100.064 108.642 100.302C108.388 100.539 108.074 100.725 107.699 100.858C107.325 100.989 106.882 101.054 106.371 101.054H106.239L106.244 100.541Z" fill="#3E3E3E"/>
<path d="M57.4521 167.891V175H56.5244V167.891H57.4521ZM59.7373 167.891V168.662H54.2441V167.891H59.7373ZM63.2139 174.097V171.377C63.2139 171.169 63.1715 170.988 63.0869 170.835C63.0055 170.679 62.8818 170.558 62.7158 170.474C62.5498 170.389 62.3447 170.347 62.1006 170.347C61.8727 170.347 61.6725 170.386 61.5 170.464C61.3307 170.542 61.1973 170.645 61.0996 170.771C61.0052 170.898 60.958 171.035 60.958 171.182H60.0547C60.0547 170.993 60.1035 170.806 60.2012 170.62C60.2988 170.435 60.4388 170.267 60.6211 170.117C60.8066 169.964 61.028 169.844 61.2852 169.756C61.5456 169.665 61.8353 169.619 62.1543 169.619C62.5384 169.619 62.877 169.684 63.1699 169.814C63.4661 169.945 63.6973 170.142 63.8633 170.405C64.0326 170.666 64.1172 170.993 64.1172 171.387V173.848C64.1172 174.023 64.1318 174.211 64.1611 174.409C64.1937 174.608 64.2409 174.779 64.3027 174.922V175H63.3604C63.3148 174.896 63.279 174.757 63.2529 174.585C63.2269 174.409 63.2139 174.246 63.2139 174.097ZM63.3701 171.797L63.3799 172.432H62.4668C62.2096 172.432 61.9801 172.453 61.7783 172.495C61.5765 172.534 61.4072 172.594 61.2705 172.676C61.1338 172.757 61.0296 172.86 60.958 172.983C60.8864 173.104 60.8506 173.245 60.8506 173.408C60.8506 173.574 60.888 173.726 60.9629 173.862C61.0378 173.999 61.1501 174.108 61.2998 174.189C61.4528 174.268 61.64 174.307 61.8613 174.307C62.138 174.307 62.3822 174.248 62.5938 174.131C62.8053 174.014 62.973 173.87 63.0967 173.701C63.2236 173.532 63.292 173.368 63.3018 173.208L63.6875 173.643C63.6647 173.779 63.6029 173.931 63.502 174.097C63.401 174.263 63.266 174.422 63.0967 174.575C62.9307 174.725 62.7321 174.85 62.501 174.951C62.2731 175.049 62.016 175.098 61.7295 175.098C61.3714 175.098 61.0573 175.028 60.7871 174.888C60.5202 174.748 60.3118 174.561 60.1621 174.326C60.0156 174.089 59.9424 173.823 59.9424 173.53C59.9424 173.247 59.9977 172.998 60.1084 172.783C60.2191 172.565 60.3786 172.384 60.5869 172.241C60.7952 172.095 61.0459 171.984 61.3389 171.909C61.6318 171.834 61.959 171.797 62.3203 171.797H63.3701ZM66.4414 170.732V177.031H65.5332V169.717H66.3633L66.4414 170.732ZM70.001 172.314V172.417C70.001 172.801 69.9554 173.158 69.8643 173.486C69.7731 173.812 69.6396 174.095 69.4639 174.336C69.2913 174.577 69.0781 174.764 68.8242 174.897C68.5703 175.031 68.279 175.098 67.9502 175.098C67.6149 175.098 67.3187 175.042 67.0615 174.932C66.8044 174.821 66.5863 174.66 66.4072 174.448C66.2282 174.237 66.085 173.983 65.9775 173.687C65.8734 173.39 65.8018 173.057 65.7627 172.686V172.139C65.8018 171.748 65.875 171.398 65.9824 171.089C66.0898 170.78 66.2314 170.516 66.4072 170.298C66.5863 170.076 66.8027 169.909 67.0566 169.795C67.3105 169.678 67.6035 169.619 67.9355 169.619C68.2676 169.619 68.5622 169.684 68.8193 169.814C69.0765 169.941 69.293 170.124 69.4688 170.361C69.6445 170.599 69.7764 170.884 69.8643 171.216C69.9554 171.545 70.001 171.911 70.001 172.314ZM69.0928 172.417V172.314C69.0928 172.051 69.0651 171.803 69.0098 171.572C68.9544 171.338 68.8682 171.133 68.751 170.957C68.637 170.778 68.4906 170.638 68.3115 170.537C68.1325 170.433 67.9193 170.381 67.6719 170.381C67.444 170.381 67.2454 170.42 67.0762 170.498C66.9102 170.576 66.7686 170.682 66.6514 170.815C66.5342 170.946 66.4382 171.095 66.3633 171.265C66.2917 171.431 66.238 171.603 66.2021 171.782V173.047C66.2673 173.275 66.3584 173.49 66.4756 173.691C66.5928 173.89 66.749 174.051 66.9443 174.175C67.1396 174.295 67.3854 174.355 67.6816 174.355C67.9258 174.355 68.1357 174.305 68.3115 174.204C68.4906 174.1 68.637 173.958 68.751 173.779C68.8682 173.6 68.9544 173.395 69.0098 173.164C69.0651 172.93 69.0928 172.681 69.0928 172.417ZM75.8457 169.717V170.41H72.9893V169.717H75.8457ZM73.9561 168.433H74.8594V173.691C74.8594 173.87 74.887 174.006 74.9424 174.097C74.9977 174.188 75.0693 174.248 75.1572 174.277C75.2451 174.307 75.3395 174.321 75.4404 174.321C75.5153 174.321 75.5934 174.315 75.6748 174.302C75.7594 174.285 75.8229 174.272 75.8652 174.263L75.8701 175C75.7985 175.023 75.7041 175.044 75.5869 175.063C75.473 175.086 75.3346 175.098 75.1719 175.098C74.9505 175.098 74.7471 175.054 74.5615 174.966C74.376 174.878 74.2279 174.731 74.1172 174.526C74.0098 174.318 73.9561 174.038 73.9561 173.687V168.433ZM76.5684 172.417V172.305C76.5684 171.924 76.6237 171.571 76.7344 171.245C76.8451 170.916 77.0046 170.632 77.2129 170.391C77.4212 170.146 77.6735 169.958 77.9697 169.824C78.266 169.688 78.598 169.619 78.9658 169.619C79.3369 169.619 79.6706 169.688 79.9668 169.824C80.2663 169.958 80.5202 170.146 80.7285 170.391C80.9401 170.632 81.1012 170.916 81.2119 171.245C81.3226 171.571 81.3779 171.924 81.3779 172.305V172.417C81.3779 172.798 81.3226 173.151 81.2119 173.477C81.1012 173.802 80.9401 174.087 80.7285 174.331C80.5202 174.572 80.2679 174.761 79.9717 174.897C79.6787 175.031 79.3467 175.098 78.9756 175.098C78.6045 175.098 78.2708 175.031 77.9746 174.897C77.6784 174.761 77.4245 174.572 77.2129 174.331C77.0046 174.087 76.8451 173.802 76.7344 173.477C76.6237 173.151 76.5684 172.798 76.5684 172.417ZM77.4717 172.305V172.417C77.4717 172.681 77.5026 172.93 77.5645 173.164C77.6263 173.395 77.7191 173.6 77.8428 173.779C77.9697 173.958 78.1276 174.1 78.3164 174.204C78.5052 174.305 78.7249 174.355 78.9756 174.355C79.223 174.355 79.4395 174.305 79.625 174.204C79.8138 174.1 79.9701 173.958 80.0938 173.779C80.2174 173.6 80.3102 173.395 80.3721 173.164C80.4372 172.93 80.4697 172.681 80.4697 172.417V172.305C80.4697 172.044 80.4372 171.799 80.3721 171.567C80.3102 171.333 80.2158 171.126 80.0889 170.947C79.9652 170.765 79.8089 170.622 79.6201 170.518C79.4346 170.413 79.2165 170.361 78.9658 170.361C78.7184 170.361 78.5003 170.413 78.3115 170.518C78.126 170.622 77.9697 170.765 77.8428 170.947C77.7191 171.126 77.6263 171.333 77.5645 171.567C77.5026 171.799 77.4717 172.044 77.4717 172.305ZM87.1055 174.355C87.3203 174.355 87.5189 174.312 87.7012 174.224C87.8835 174.136 88.0332 174.015 88.1504 173.862C88.2676 173.706 88.3343 173.529 88.3506 173.33H89.21C89.1937 173.643 89.0879 173.934 88.8926 174.204C88.7005 174.471 88.4482 174.688 88.1357 174.854C87.8232 175.016 87.4798 175.098 87.1055 175.098C86.7083 175.098 86.3617 175.028 86.0654 174.888C85.7725 174.748 85.5283 174.556 85.333 174.312C85.141 174.067 84.9961 173.787 84.8984 173.472C84.804 173.153 84.7568 172.816 84.7568 172.461V172.256C84.7568 171.901 84.804 171.566 84.8984 171.25C84.9961 170.931 85.141 170.649 85.333 170.405C85.5283 170.161 85.7725 169.969 86.0654 169.829C86.3617 169.689 86.7083 169.619 87.1055 169.619C87.5189 169.619 87.8802 169.704 88.1895 169.873C88.4987 170.039 88.7412 170.267 88.917 170.557C89.096 170.843 89.1937 171.169 89.21 171.533H88.3506C88.3343 171.315 88.2725 171.118 88.165 170.942C88.0609 170.767 87.9176 170.627 87.7354 170.522C87.5563 170.415 87.3464 170.361 87.1055 170.361C86.8288 170.361 86.596 170.417 86.4072 170.527C86.2217 170.635 86.0736 170.781 85.9629 170.967C85.8555 171.149 85.7773 171.353 85.7285 171.577C85.6829 171.799 85.6602 172.025 85.6602 172.256V172.461C85.6602 172.692 85.6829 172.92 85.7285 173.145C85.7741 173.369 85.8506 173.573 85.958 173.755C86.0687 173.937 86.2168 174.084 86.4023 174.194C86.5911 174.302 86.8255 174.355 87.1055 174.355ZM89.9863 172.417V172.305C89.9863 171.924 90.0417 171.571 90.1523 171.245C90.263 170.916 90.4225 170.632 90.6309 170.391C90.8392 170.146 91.0915 169.958 91.3877 169.824C91.6839 169.688 92.016 169.619 92.3838 169.619C92.7549 169.619 93.0885 169.688 93.3848 169.824C93.6842 169.958 93.9382 170.146 94.1465 170.391C94.3581 170.632 94.5192 170.916 94.6299 171.245C94.7406 171.571 94.7959 171.924 94.7959 172.305V172.417C94.7959 172.798 94.7406 173.151 94.6299 173.477C94.5192 173.802 94.3581 174.087 94.1465 174.331C93.9382 174.572 93.6859 174.761 93.3896 174.897C93.0967 175.031 92.7646 175.098 92.3936 175.098C92.0225 175.098 91.6888 175.031 91.3926 174.897C91.0964 174.761 90.8424 174.572 90.6309 174.331C90.4225 174.087 90.263 173.802 90.1523 173.477C90.0417 173.151 89.9863 172.798 89.9863 172.417ZM90.8896 172.305V172.417C90.8896 172.681 90.9206 172.93 90.9824 173.164C91.0443 173.395 91.137 173.6 91.2607 173.779C91.3877 173.958 91.5456 174.1 91.7344 174.204C91.9232 174.305 92.1429 174.355 92.3936 174.355C92.641 174.355 92.8574 174.305 93.043 174.204C93.2318 174.1 93.388 173.958 93.5117 173.779C93.6354 173.6 93.7282 173.395 93.79 173.164C93.8551 172.93 93.8877 172.681 93.8877 172.417V172.305C93.8877 172.044 93.8551 171.799 93.79 171.567C93.7282 171.333 93.6338 171.126 93.5068 170.947C93.3831 170.765 93.2269 170.622 93.0381 170.518C92.8525 170.413 92.6344 170.361 92.3838 170.361C92.1364 170.361 91.9183 170.413 91.7295 170.518C91.5439 170.622 91.3877 170.765 91.2607 170.947C91.137 171.126 91.0443 171.333 90.9824 171.567C90.9206 171.799 90.8896 172.044 90.8896 172.305ZM96.832 170.845V175H95.9287V169.717H96.7832L96.832 170.845ZM96.6172 172.158L96.2412 172.144C96.2445 171.782 96.2982 171.449 96.4023 171.143C96.5065 170.833 96.653 170.565 96.8418 170.337C97.0306 170.109 97.2552 169.933 97.5156 169.81C97.7793 169.683 98.0706 169.619 98.3896 169.619C98.6501 169.619 98.8844 169.655 99.0928 169.727C99.3011 169.795 99.4785 169.906 99.625 170.059C99.7747 170.212 99.8887 170.41 99.9668 170.654C100.045 170.895 100.084 171.19 100.084 171.538V175H99.1758V171.528C99.1758 171.252 99.1351 171.03 99.0537 170.864C98.9723 170.695 98.8535 170.573 98.6973 170.498C98.541 170.42 98.349 170.381 98.1211 170.381C97.8965 170.381 97.6914 170.428 97.5059 170.522C97.3236 170.617 97.1657 170.747 97.0322 170.913C96.902 171.079 96.7995 171.27 96.7246 171.484C96.653 171.696 96.6172 171.921 96.6172 172.158ZM103.668 169.717V170.41H100.812V169.717H103.668ZM101.778 168.433H102.682V173.691C102.682 173.87 102.709 174.006 102.765 174.097C102.82 174.188 102.892 174.248 102.979 174.277C103.067 174.307 103.162 174.321 103.263 174.321C103.338 174.321 103.416 174.315 103.497 174.302C103.582 174.285 103.645 174.272 103.688 174.263L103.692 175C103.621 175.023 103.526 175.044 103.409 175.063C103.295 175.086 103.157 175.098 102.994 175.098C102.773 175.098 102.569 175.054 102.384 174.966C102.198 174.878 102.05 174.731 101.939 174.526C101.832 174.318 101.778 174.038 101.778 173.687V168.433ZM105.709 169.717V175H104.801V169.717H105.709ZM104.732 168.315C104.732 168.169 104.776 168.045 104.864 167.944C104.955 167.843 105.089 167.793 105.265 167.793C105.437 167.793 105.569 167.843 105.66 167.944C105.755 168.045 105.802 168.169 105.802 168.315C105.802 168.455 105.755 168.576 105.66 168.677C105.569 168.774 105.437 168.823 105.265 168.823C105.089 168.823 104.955 168.774 104.864 168.677C104.776 168.576 104.732 168.455 104.732 168.315ZM108.062 170.845V175H107.159V169.717H108.014L108.062 170.845ZM107.848 172.158L107.472 172.144C107.475 171.782 107.529 171.449 107.633 171.143C107.737 170.833 107.883 170.565 108.072 170.337C108.261 170.109 108.486 169.933 108.746 169.81C109.01 169.683 109.301 169.619 109.62 169.619C109.881 169.619 110.115 169.655 110.323 169.727C110.532 169.795 110.709 169.906 110.855 170.059C111.005 170.212 111.119 170.41 111.197 170.654C111.275 170.895 111.314 171.19 111.314 171.538V175H110.406V171.528C110.406 171.252 110.366 171.03 110.284 170.864C110.203 170.695 110.084 170.573 109.928 170.498C109.771 170.42 109.579 170.381 109.352 170.381C109.127 170.381 108.922 170.428 108.736 170.522C108.554 170.617 108.396 170.747 108.263 170.913C108.132 171.079 108.03 171.27 107.955 171.484C107.883 171.696 107.848 171.921 107.848 172.158ZM115.919 173.779V169.717H116.827V175H115.963L115.919 173.779ZM116.09 172.666L116.466 172.656C116.466 173.008 116.428 173.333 116.354 173.633C116.282 173.929 116.165 174.186 116.002 174.404C115.839 174.622 115.626 174.793 115.362 174.917C115.099 175.037 114.778 175.098 114.4 175.098C114.143 175.098 113.907 175.06 113.692 174.985C113.481 174.91 113.299 174.795 113.146 174.639C112.993 174.482 112.874 174.279 112.789 174.028C112.708 173.778 112.667 173.477 112.667 173.125V169.717H113.57V173.135C113.57 173.372 113.596 173.569 113.648 173.726C113.704 173.879 113.777 174.001 113.868 174.092C113.963 174.18 114.067 174.242 114.181 174.277C114.298 174.313 114.418 174.331 114.542 174.331C114.926 174.331 115.23 174.258 115.455 174.111C115.68 173.962 115.841 173.761 115.938 173.511C116.039 173.257 116.09 172.975 116.09 172.666ZM120.396 175.098C120.029 175.098 119.695 175.036 119.396 174.912C119.099 174.785 118.844 174.608 118.629 174.38C118.417 174.152 118.255 173.882 118.141 173.569C118.027 173.257 117.97 172.915 117.97 172.544V172.339C117.97 171.909 118.033 171.527 118.16 171.191C118.287 170.853 118.46 170.566 118.678 170.332C118.896 170.098 119.143 169.92 119.42 169.8C119.697 169.679 119.983 169.619 120.279 169.619C120.657 169.619 120.982 169.684 121.256 169.814C121.533 169.945 121.759 170.127 121.935 170.361C122.11 170.592 122.241 170.866 122.325 171.182C122.41 171.494 122.452 171.836 122.452 172.207V172.612H118.507V171.875H121.549V171.807C121.536 171.572 121.487 171.344 121.402 171.123C121.321 170.902 121.191 170.719 121.012 170.576C120.833 170.433 120.589 170.361 120.279 170.361C120.074 170.361 119.885 170.405 119.713 170.493C119.54 170.578 119.392 170.705 119.269 170.874C119.145 171.043 119.049 171.25 118.98 171.494C118.912 171.738 118.878 172.02 118.878 172.339V172.544C118.878 172.795 118.912 173.031 118.98 173.252C119.052 173.47 119.155 173.662 119.288 173.828C119.425 173.994 119.589 174.124 119.781 174.219C119.977 174.313 120.198 174.36 120.445 174.36C120.764 174.36 121.035 174.295 121.256 174.165C121.477 174.035 121.671 173.861 121.837 173.643L122.384 174.077C122.27 174.25 122.125 174.414 121.949 174.57C121.773 174.727 121.557 174.854 121.3 174.951C121.046 175.049 120.745 175.098 120.396 175.098Z" fill="#3E3E3E"/>
<g clip-path="url(#clip1_1_5)">
<path d="M157 13.4V17.6H148.333V13.4H157ZM157.667 16.55H158.333V14.45H157.667V12.875C157.667 12.824 157.651 12.782 157.62 12.7492C157.589 12.7164 157.549 12.7 157.5 12.7H147.833C147.785 12.7 147.745 12.7164 147.714 12.7492C147.682 12.782 147.667 12.824 147.667 12.875V18.125C147.667 18.176 147.682 18.218 147.714 18.2508C147.745 18.2836 147.785 18.3 147.833 18.3H157.5C157.549 18.3 157.589 18.2836 157.62 18.2508C157.651 18.218 157.667 18.176 157.667 18.125V16.55ZM159 14.45V16.55C159 16.7432 158.935 16.9082 158.805 17.0449C158.674 17.1816 158.517 17.25 158.333 17.25V18.125C158.333 18.3656 158.252 18.5716 158.089 18.743C157.925 18.9143 157.729 19 157.5 19H147.833C147.604 19 147.408 18.9143 147.245 18.743C147.082 18.5716 147 18.3656 147 18.125V12.875C147 12.6344 147.082 12.4284 147.245 12.257C147.408 12.0857 147.604 12 147.833 12H157.5C157.729 12 157.925 12.0857 158.089 12.257C158.252 12.4284 158.333 12.6344 158.333 12.875V13.75C158.517 13.75 158.674 13.8184 158.805 13.9551C158.935 14.0918 159 14.2568 159 14.45Z" fill="#3E3E3E"/>
</g>
<circle cx="68.5" cy="155.5" r="4.5" fill="#539EFF"/>
<circle cx="81.5" cy="155.5" r="4.5" fill="#FFFF50"/>
<circle cx="94.5" cy="155.5" r="4.5" fill="#909090"/>
<circle cx="107.5" cy="155.5" r="4.5" fill="#B887C5"/>
</g>
<defs>
<clipPath id="clip0_1_5">
<rect width="176" height="215" fill="white"/>
</clipPath>
<clipPath id="clip1_1_5">
<rect width="12" height="7" fill="white" transform="translate(147 12)"/>
</clipPath>
</defs>
</svg>
